<svg id="clear_sky" data-name="clear sky" xmlns="http://www.w3.org/2000/svg" width="94.739" height="94.737" viewBox="0 0 94.739 94.737">
  <g id="Group_598" data-name="Group 598" transform="translate(0 0)">
    <path id="Path_1113" data-name="Path 1113" d="M105.614,183.46a3.233,3.233,0,0,0-3.233,3.233v9.192a3.233,3.233,0,0,0,6.466,0v-9.192A3.233,3.233,0,0,0,105.614,183.46Z" transform="translate(-58.249 -104.38)" fill="#ffa025"/>
    <path id="Path_1114" data-name="Path 1114" d="M105.614,15.661a3.233,3.233,0,0,0,3.233-3.233V3.236a3.233,3.233,0,1,0-6.466,0v9.193A3.233,3.233,0,0,0,105.614,15.661Z" transform="translate(-58.249 -0.003)" fill="#ffa025"/>
    <path id="Path_1115" data-name="Path 1115" d="M37.436,160.66l-6.5,6.5a3.233,3.233,0,0,0,4.571,4.573l6.5-6.5a3.233,3.233,0,0,0-4.571-4.573Z" transform="translate(-17.061 -90.87)" fill="#ffa025"/>
    <path id="Path_1116" data-name="Path 1116" d="M162.941,42.955a3.224,3.224,0,0,0,2.286-.947l6.5-6.5a3.233,3.233,0,1,0-4.571-4.573l-6.5,6.5a3.233,3.233,0,0,0,2.285,5.519Z" transform="translate(-90.866 -17.064)" fill="#ffa025"/>
    <path id="Path_1117" data-name="Path 1117" d="M15.658,105.628a3.233,3.233,0,0,0-3.233-3.233H3.233a3.233,3.233,0,0,0,0,6.466h9.192A3.233,3.233,0,0,0,15.658,105.628Z" transform="translate(0 -58.259)" fill="#ffa025"/>
    <path id="Path_1118" data-name="Path 1118" d="M195.881,102.395h-9.2a3.233,3.233,0,1,0,0,6.466h9.2a3.233,3.233,0,0,0,0-6.466Z" transform="translate(-104.374 -58.259)" fill="#ffa025"/>
    <path id="Path_1119" data-name="Path 1119" d="M37.44,42.009a3.233,3.233,0,0,0,4.572-4.572l-6.5-6.5a3.233,3.233,0,1,0-4.572,4.572Z" transform="translate(-17.065 -17.065)" fill="#ffa025"/>
    <path id="Path_1120" data-name="Path 1120" d="M165.235,160.661a3.233,3.233,0,0,0-4.573,4.571l6.5,6.5a3.233,3.233,0,0,0,4.573-4.571Z" transform="translate(-90.87 -90.87)" fill="#ffa025"/>
    <path id="Path_1121" data-name="Path 1121" d="M76.678,51.518a25.163,25.163,0,1,0,25.164,25.164A25.191,25.191,0,0,0,76.678,51.518Zm0,43.861a18.7,18.7,0,1,1,18.7-18.7A18.718,18.718,0,0,1,76.678,95.379Z" transform="translate(-29.31 -29.312)" fill="#ffa025"/>
  </g>
</svg>
