<svg xmlns="http://www.w3.org/2000/svg" width="101.709" height="101.71" viewBox="0 0 101.709 101.71">
  <path id="few_clouds" data-name="few clouds" d="M43.484,14.517a3.148,3.148,0,0,0,3.147-3.147V5.075a3.147,3.147,0,1,0-6.294,0V11.37A3.148,3.148,0,0,0,43.484,14.517Zm24.477,8.294,4.45-4.45a3.147,3.147,0,0,0-4.45-4.45l-4.45,4.45a3.147,3.147,0,0,0,4.45,4.45ZM5.718,45.989h6.294a3.147,3.147,0,1,0,0-6.294H5.718a3.147,3.147,0,0,0,0,6.294Zm66.091-3.147a3.148,3.148,0,0,0,3.147,3.147H81.25a3.147,3.147,0,1,0,0-6.294H74.956A3.148,3.148,0,0,0,71.809,42.841ZM19,22.811a3.147,3.147,0,1,0,4.45-4.45L19,13.91a3.147,3.147,0,0,0-4.45,4.45L19,22.811ZM81.25,52.283a21.825,21.825,0,0,0-3.106.221,31.331,31.331,0,0,0-12.679-10.13,22.008,22.008,0,0,0-44.011.467,21.637,21.637,0,0,0,2.262,9.528A22,22,0,0,0,24.6,96.343,21.8,21.8,0,0,0,32.412,94.9a31.065,31.065,0,0,0,41.028,0,21.8,21.8,0,0,0,7.811,1.442,22.03,22.03,0,1,0,0-44.061ZM43.484,27.105A15.7,15.7,0,0,1,58.966,40.333a30.8,30.8,0,0,0-6.04-.639A31.155,31.155,0,0,0,29.641,50.168a15.532,15.532,0,0,1-1.893-7.327A15.735,15.735,0,0,1,43.484,27.105ZM81.25,90.049a15.64,15.64,0,0,1-9.036-2.885,24.855,24.855,0,0,1-38.577,0A15.725,15.725,0,1,1,24.6,58.577a15.28,15.28,0,0,1,4.352.7,14.265,14.265,0,0,1,1.635.5A25.553,25.553,0,0,1,33.731,55.1a24.414,24.414,0,0,1,24.948-8.38,24.026,24.026,0,0,1,5.868,2.221A25.415,25.415,0,0,1,75.259,59.77,15.733,15.733,0,1,1,81.25,90.049Z" transform="translate(-2.071 -1.428)" fill="#ffa025" stroke="#ffa025" stroke-width="1"/>
</svg>
