<svg id="mist" xmlns="http://www.w3.org/2000/svg" width="119.172" height="109.51" viewBox="0 0 119.172 109.51">
  <g id="mist-2" data-name="mist" transform="translate(15.061 79.892)">
    <g id="Group_596" data-name="Group 596" transform="translate(0 0)">
      <path id="Path_1098" data-name="Path 1098" d="M55.972,42.494a2.9,2.9,0,0,0-2.9-2.9H2.9a2.9,2.9,0,0,0,0,5.8H53.073A2.9,2.9,0,0,0,55.972,42.494Z" transform="translate(0 -39.595)" fill="#ffa025"/>
      <path id="Path_1099" data-name="Path 1099" d="M112.517,70.4H54.031a2.9,2.9,0,1,0,0,5.8h58.485a2.9,2.9,0,0,0,0-5.8Z" transform="translate(-26.526 -58.495)" fill="#ffa025"/>
      <path id="Path_1100" data-name="Path 1100" d="M76.634,107.012a2.9,2.9,0,0,0,0-5.8H17.845a2.9,2.9,0,1,0,0,5.8Z" transform="translate(-9.169 -77.395)" fill="#ffa025"/>
    </g>
  </g>
  <g id="cloud_and_sun" data-name="cloud and sun" transform="translate(0)">
    <path id="cloud" d="M95.674,31.059A25.816,25.816,0,0,0,92,31.321c-14.439-23.853-51.141-16.873-59.492.193C4.109,31.347,2.571,50.929,2.571,57.137A26.105,26.105,0,0,0,28.64,83.216a25.787,25.787,0,0,0,9.243-1.707,36.749,36.749,0,0,0,48.549,0,25.787,25.787,0,0,0,9.243,1.707,26.078,26.078,0,0,0,0-52.157Zm0,44.706a18.5,18.5,0,0,1-10.692-3.415,29.405,29.405,0,0,1-45.649,0A18.612,18.612,0,1,1,28.64,38.51a18.075,18.075,0,0,1,5.15.824,16.874,16.874,0,0,1,1.935.587,30.25,30.25,0,0,1,3.719-5.53A29.428,29.428,0,0,1,62.157,23.608a29.131,29.131,0,0,1,6.808.864A28.424,28.424,0,0,1,75.909,27.1,30.08,30.08,0,0,1,88.584,39.921a18.622,18.622,0,1,1,7.09,35.843Z" transform="translate(-2.571 -15.956)" fill="#ffa025"/>
  </g>
</svg>
