<svg xmlns="http://www.w3.org/2000/svg" width="102.052" height="79.948" viewBox="0 0 102.052 79.948">
  <g id="scatted_cloud" data-name="scatted cloud" transform="translate(-5811.81 -867.186)">
    <path id="Icon_metro-cloudy" data-name="Icon metro-cloudy" d="M79.921,28.139a21.456,21.456,0,0,0-3.054.218A30.8,30.8,0,0,0,64.4,18.4c-13.186-5.8-31.193.384-35.9,11.3a8.587,8.587,0,0,0-5.149-1.475,21.624,21.624,0,0,0,.87,43.231,21.431,21.431,0,0,0,7.679-1.418,30.54,30.54,0,0,0,40.335,0,21.431,21.431,0,0,0,7.679,1.418,21.658,21.658,0,1,0,0-43.316Zm0,37.128a15.376,15.376,0,0,1-8.883-2.836,24.436,24.436,0,0,1-37.926,0,15.459,15.459,0,1,1-8.883-28.1,15.022,15.022,0,0,1,4.278.685c.544.153,1.607.488,1.607.488a51.68,51.68,0,0,1,3.09-4.593,24,24,0,0,1,24.527-8.238A23.62,23.62,0,0,1,63.5,24.851,24.985,24.985,0,0,1,74.031,35.5a15.467,15.467,0,1,1,5.89,29.768Z" transform="translate(5809.239 869.49)" fill="#ffa025"/>
    <path id="Path_2352" data-name="Path 2352" d="M55.444,80.647A16.931,16.931,0,0,0,44.335,49.37a24.09,24.09,0,0,0-9.748-7.785c-10.31-4.535-24.389.3-28.069,8.835a6.713,6.713,0,0,0-4.026-1.153A16.927,16.927,0,0,0-13.755,66.135,17.57,17.57,0,0,0-13.4,69.6" transform="translate(5847.154 830.419)" fill="none" stroke="#ffa025" stroke-width="6"/>
  </g>
</svg>
