<svg xmlns="http://www.w3.org/2000/svg" width="110.109" height="133.367" viewBox="0 0 110.109 133.367">
  <g id="scatted_cloud" data-name="scatted cloud" transform="translate(0.5 0.5)">
    <path id="Path_1124" data-name="Path 1124" d="M358.784,197.384l4.818-4.818a3.407,3.407,0,0,0-4.818-4.819l-4.818,4.818a3.407,3.407,0,0,0,4.818,4.819Z" transform="translate(-287.99 -174.775)" fill="#ffa025" stroke="#ffa025" stroke-width="1"/>
    <path id="Path_1125" data-name="Path 1125" d="M394.059,309.181h0a3.408,3.408,0,0,0,3.406,3.407h6.814a3.407,3.407,0,0,0,0-6.814h-6.814A3.408,3.408,0,0,0,394.059,309.181Z" transform="translate(-319.099 -264.886)" fill="#ffa025" stroke="#ffa025" stroke-width="1"/>
    <path id="Path_1126" data-name="Path 1126" d="M257.2,151.084a3.408,3.408,0,0,0,3.407-3.407v-6.815a3.407,3.407,0,0,0-6.814,0v6.815A3.408,3.408,0,0,0,257.2,151.084Z" transform="translate(-212.909 -137.455)" fill="#ffa025" stroke="#ffa025" stroke-width="1"/>
    <path id="Path_1127" data-name="Path 1127" d="M88.892,312.589h6.814a3.407,3.407,0,0,0,0-6.814H88.892a3.407,3.407,0,0,0,0,6.814Z" transform="translate(-85.484 -264.886)" fill="#ffa025" stroke="#ffa025" stroke-width="1"/>
    <path id="Path_1128" data-name="Path 1128" d="M170.815,255.688h-.152a23.64,23.64,0,0,0-3.363.24,33.92,33.92,0,0,0-13.727-10.967,23.827,23.827,0,0,0-47.649.506,23.426,23.426,0,0,0,2.449,10.315,23.814,23.814,0,1,0,9.414,46.047,30.28,30.28,0,0,0,10.608,6.256l2.669-.276a24.775,24.775,0,0,1,.714-3.107,7.017,7.017,0,0,0,.628-3.633l-2.933.164a27.679,27.679,0,0,1-10.36-7.782,17.024,17.024,0,1,1-9.783-30.948,16.546,16.546,0,0,1,4.713.753,15.509,15.509,0,0,1,1.77.537,27.663,27.663,0,0,1,3.4-5.058A26.928,26.928,0,0,1,140,248.871a26.66,26.66,0,0,1,6.229.79,26.021,26.021,0,0,1,6.353,2.4,27.516,27.516,0,0,1,11.6,11.726,17.033,17.033,0,1,1,6.486,32.782h0a16.933,16.933,0,0,1-9.783-3.124,27.936,27.936,0,0,1-7.2,6.165c-.192.533-.319,1.089-.519,1.62a13.105,13.105,0,0,0,.42,1.627h.011a1.25,1.25,0,0,1,1.215,1.215c.095.887-1.306,1.523-1.1,2.551l1.48-.04a33.644,33.644,0,0,0,7.023-4.758,23.6,23.6,0,0,0,8.456,1.561,23.851,23.851,0,1,0,.152-47.7ZM140,242.058A33.731,33.731,0,0,0,114.79,253.4a16.818,16.818,0,0,1-2.05-7.933,17.035,17.035,0,0,1,17.033-17.036h0a17,17,0,0,1,16.762,14.321A33.345,33.345,0,0,0,140,242.058Z" transform="translate(-85.481 -201.171)" fill="#ffa025" stroke="#ffa025" stroke-width="1"/>
    <path id="Path_1129" data-name="Path 1129" d="M140.635,197.428a3.407,3.407,0,1,0,4.818-4.819l-4.818-4.818a3.407,3.407,0,0,0-4.818,4.818Z" transform="translate(-122.845 -174.819)" fill="#ffa025" stroke="#ffa025" stroke-width="1"/>
    <g id="Group_600" data-name="Group 600" transform="translate(44.195 87.489)">
      <path id="Path_1123" data-name="Path 1123" d="M273.962,540.487a1.433,1.433,0,0,1-.605-.135,1.73,1.73,0,0,1-.91-1.9l3.124-16.691h-6.613a1.5,1.5,0,0,1-1.229-.667,1.822,1.822,0,0,1-.26-1.473l5.254-20.77a1.575,1.575,0,0,1,1.489-1.242h13.645a1.539,1.539,0,0,1,1.37.9,1.813,1.813,0,0,1-.093,1.744l-6.223,9.926h7.951a1.539,1.539,0,0,1,1.37.9,1.813,1.813,0,0,1-.093,1.744l-16.9,26.916A1.515,1.515,0,0,1,273.962,540.487Z" transform="translate(-267.414 -497.61)" fill="none" stroke="#ffa025" stroke-miterlimit="10" stroke-width="5"/>
    </g>
  </g>
</svg>
