<svg id="shower_rain" data-name="shower rain" xmlns="http://www.w3.org/2000/svg" width="99.008" height="93.48" viewBox="0 0 99.008 93.48">
  <path id="Icon_awesome-cloud-showers-heavy" data-name="Icon awesome-cloud-showers-heavy" d="M32.98,23.363c-1.4-.811-16.129,24.977-14.71,25.77.461.258,16.129-24.959,14.71-25.77Zm17.7,0c-1.358-.786-16.129,24.977-14.71,25.77.461.258,16.129-24.959,14.71-25.77Zm-35.392,0C13.883,22.551-.845,48.34.574,49.132c.461.258,16.129-24.959,14.71-25.77Zm70.784,0c-1.4-.811-16.129,24.977-14.71,25.77.461.258,16.129-24.959,14.71-25.77Zm-17.7,0c-1.4-.811-16.129,24.977-14.71,25.77.461.258,16.126-24.96,14.71-25.77Z" transform="translate(1.981 42.975)" fill="#ffa025" stroke="#ffa025" stroke-width="3"/>
  <path id="Icon_metro-cloudy" data-name="Icon metro-cloudy" d="M79.921,28.139a21.456,21.456,0,0,0-3.054.218A30.8,30.8,0,0,0,64.4,18.4c-13.186-5.8-31.193.384-35.9,11.3a8.587,8.587,0,0,0-5.149-1.475,21.624,21.624,0,0,0,.87,43.231,21.431,21.431,0,0,0,7.679-1.418,30.54,30.54,0,0,0,40.335,0,21.431,21.431,0,0,0,7.679,1.418,21.658,21.658,0,1,0,0-43.316Zm0,37.128a15.376,15.376,0,0,1-8.883-2.836,24.436,24.436,0,0,1-37.926,0,15.459,15.459,0,1,1-8.883-28.1,15.022,15.022,0,0,1,4.278.685c.544.153,1.607.488,1.607.488a51.68,51.68,0,0,1,3.09-4.593,24,24,0,0,1,24.527-8.238A23.62,23.62,0,0,1,63.5,24.851,24.985,24.985,0,0,1,74.031,35.5a15.467,15.467,0,1,1,5.89,29.768Z" transform="translate(-2.571 -16.176)" fill="#ffa025"/>
</svg>
