<svg id="snow" xmlns="http://www.w3.org/2000/svg" width="113.143" height="116.604" viewBox="0 0 113.143 116.604">
  <path id="Path_1112" data-name="Path 1112" d="M111.805,69.993a2.683,2.683,0,0,0-2.186-.224L93.488,75.126l-9.832-5.677,11.135-3.922a2.673,2.673,0,0,0,1.433-1.189l.106-.184a2.682,2.682,0,0,0-3.167-3.887l-16.13,5.356-8.8-5.077V56.059l8.8-5.079,16.13,5.356a2.682,2.682,0,0,0,3.167-3.887l-.1-.186a2.7,2.7,0,0,0-1.433-1.19L83.657,47.153l9.832-5.677,16.131,5.357a2.683,2.683,0,0,0,3.167-3.887l-.107-.185a2.688,2.688,0,0,0-1.432-1.189l-11.135-3.922,5.53-3.193a3.887,3.887,0,1,0-3.887-6.732l-5.53,3.193,2.172-11.6a2.681,2.681,0,0,0-.312-1.834l-.107-.185a2.682,2.682,0,0,0-4.95.8L89.6,34.742l-9.832,5.676,2.173-11.6a2.685,2.685,0,0,0-.313-1.835l-.106-.184a2.683,2.683,0,0,0-4.95.8L73.143,44.243l-6.3,3.64L60.463,44.7V36.924l12.7-11.291a2.683,2.683,0,0,0-1.782-4.688h-.212a2.687,2.687,0,0,0-1.745.645l-8.964,7.684V17.924l12.7-11.291a2.684,2.684,0,0,0-1.782-4.69h-.212a2.687,2.687,0,0,0-1.745.645l-8.964,7.684V3.887a3.887,3.887,0,1,0-7.773,0v6.386L43.726,2.591a2.687,2.687,0,0,0-1.745-.645h-.214a2.683,2.683,0,0,0-1.782,4.688l12.7,11.291V29.275l-8.963-7.682a2.687,2.687,0,0,0-1.745-.645h-.214a2.683,2.683,0,0,0-1.782,4.688l12.7,11.289V44.7l-6.379,3.189-6.3-3.64L36.579,27.6a2.683,2.683,0,0,0-4.95-.8l-.106.184a2.675,2.675,0,0,0-.313,1.835l2.173,11.6L23.55,34.746,20.122,18.1a2.682,2.682,0,0,0-4.95-.8l-.107.185a2.672,2.672,0,0,0-.312,1.834l2.172,11.6-5.53-3.193A3.887,3.887,0,1,0,7.508,34.46l5.53,3.193L1.9,41.575A2.675,2.675,0,0,0,.471,42.764l-.107.185a2.683,2.683,0,0,0,3.167,3.887L19.662,41.48l9.832,5.676L18.358,51.078a2.673,2.673,0,0,0-1.433,1.189l-.106.185a2.683,2.683,0,0,0,3.167,3.887l16.13-5.357,8.8,5.077v4.486l-8.8,5.079L19.99,60.268a2.682,2.682,0,0,0-3.167,3.887l.106.184a2.7,2.7,0,0,0,1.433,1.19L29.5,69.45l-9.832,5.677L3.535,69.771A2.683,2.683,0,0,0,.368,73.658l.107.185a2.688,2.688,0,0,0,1.432,1.189l11.135,3.922-5.53,3.193A3.887,3.887,0,0,0,11.4,88.878l5.53-3.193-2.172,11.6a2.681,2.681,0,0,0,.312,1.834l.107.185a2.682,2.682,0,0,0,4.95-.8l3.428-16.647,9.832-5.676-2.173,11.6a2.685,2.685,0,0,0,.313,1.835l.106.184a2.683,2.683,0,0,0,4.95-.8L40.01,72.359l6.3-3.64L52.69,71.9v7.773L39.986,90.97a2.683,2.683,0,0,0,1.782,4.688h.212a2.687,2.687,0,0,0,1.745-.645l8.965-7.682V98.68l-12.7,11.291a2.683,2.683,0,0,0,1.782,4.688h.212a2.687,2.687,0,0,0,1.745-.645l8.965-7.682v6.386a3.887,3.887,0,1,0,7.773,0v-6.386l8.962,7.682a2.687,2.687,0,0,0,1.745.645h.212a2.683,2.683,0,0,0,1.782-4.688L60.463,98.68V87.329l8.962,7.682a2.687,2.687,0,0,0,1.745.645h.212a2.683,2.683,0,0,0,1.782-4.688l-12.7-11.291V71.9l6.378-3.189,6.3,3.64L76.573,89a2.683,2.683,0,0,0,4.95.8l.106-.184a2.675,2.675,0,0,0,.313-1.835l-2.173-11.6L89.6,81.857,93.03,98.5a2.682,2.682,0,0,0,4.95.8l.107-.185a2.678,2.678,0,0,0,.313-1.834l-2.173-11.6,5.53,3.193a3.887,3.887,0,1,0,3.887-6.732l-5.53-3.193,11.135-3.922a2.675,2.675,0,0,0,1.432-1.189l.107-.185a2.679,2.679,0,0,0-.983-3.661Zm-51.342-7.8-3.887,1.943L52.69,62.188V54.415l3.887-1.943,3.887,1.943Zm0,0" transform="translate(-0.004 0)" fill="#ffa025"/>
</svg>
