<svg enable-background="new 0 0 368 387" viewBox="0 0 368 387" xmlns="http://www.w3.org/2000/svg" xmlns:xlink="http://www.w3.org/1999/xlink"><clipPath id="a"><path d="m324.4 352.5h-279.8c-23 0-41.6-18.6-41.6-41.6v-259.7c0-23 18.6-41.6 41.6-41.6h279.9c23 0 41.6 18.6 41.6 41.6v259.7c-.1 22.9-18.7 41.6-41.7 41.6z"/></clipPath><clipPath id="b"><path d="m546.4 291.5c-4.2-3.2-71.2-31.6-75.9-34.5-134.9-80.9-482.7-13.4-482.1-6.7.1.8 6.1 4.9 20 6.4 103 11.1 538 34.8 538 34.8z"/></clipPath><radialGradient id="c" cx="-1071.9601" cy="241.5918" gradientTransform="matrix(.0101 -.4315 5.878 .0907 -1118.8007 -264.7825)" gradientUnits="userSpaceOnUse" r="17.2273"><stop offset="0" stop-color="#6d7d2d"/><stop offset=".301" stop-color="#373f17"/><stop offset=".4783" stop-color="#1b1f0b"/><stop offset=".7124" stop-color="#080903"/><stop offset="1"/></radialGradient><clipPath id="d"><path d="m546.4 291.5c-4.2-3.2-71.2-31.6-75.9-34.5-134.9-80.9-482.7-13.4-482.1-6.7.1.8 6.1 4.9 20 6.4 103 11.1 538 34.8 538 34.8z"/></clipPath><clipPath id="e"><path d="m324.4 352.5h-279.8c-23 0-41.6-18.6-41.6-41.6v-259.7c0-23 18.6-41.6 41.6-41.6h279.9c23 0 41.6 18.6 41.6 41.6v259.7c-.1 22.9-18.7 41.6-41.7 41.6z"/></clipPath><clipPath id="f"><path d="m317.4 352.5h-279.8c-23 0-41.6-18.6-41.6-41.6v-259.7c0-23 18.6-41.6 41.6-41.6h279.9c23 0 41.6 18.6 41.6 41.6v259.7c-.1 22.9-18.7 41.6-41.7 41.6z"/></clipPath><linearGradient id="g"><stop offset=".08791211" stop-color="#1a1a1a"/><stop offset=".2912" stop-color="#1a1a1a"/><stop offset=".5165" stop-color="#1a1a1a"/><stop offset=".8132" stop-color="#436102"/><stop offset="1" stop-color="#436102"/></linearGradient><radialGradient id="h" cx="-871.0757" cy="259.0732" gradientTransform="matrix(.011 -.577 3.547 .0674 -615.4506 -19.3224)" gradientUnits="userSpaceOnUse" r="20.5304" xlink:href="#g"/><radialGradient id="i" cx="-876.6723" cy="211.1627" gradientTransform="matrix(.011 -.577 3.547 .0674 -615.4506 9.6776)" gradientUnits="userSpaceOnUse" r="20.5304" xlink:href="#g"/><path d="m324.4 352.5h-279.8c-23 0-41.6-18.6-41.6-41.6v-259.7c0-23 18.6-41.6 41.6-41.6h279.9c23 0 41.6 18.6 41.6 41.6v259.7c-.1 22.9-18.7 41.6-41.7 41.6z" fill="#ffa025"/><g clip-path="url(#a)"><path d="m-7 251.8c118.8-131.8 474.4-13.3 473.8-3.6s-473.8 3.6-473.8 3.6z" fill="#9dba61"/><path d="m546.4 291.5c-4.2-3.2-71.2-31.6-75.9-34.5-134.9-80.9-482.7-13.4-482.1-6.7.1.8 6.1 4.9 20 6.4 103 11.1 538 34.8 538 34.8z" fill="#6e8a33"/><path clip-path="url(#b)" d="m290.6 212.2c55.9.9 101.2 4.9 101.1 9s-45.5 6.7-101.4 5.9c-55.9-.9-101.2-4.9-101.1-9s45.5-6.7 101.4-5.9z" fill="url(#c)"/><path d="m546.4 291.5c-4.2-3.2-71.2-31.6-75.9-34.5-134.9-80.9-482.7-13.4-482.1-6.7.1.8 6.1 4.9 20 6.4 103 11.1 538 34.8 538 34.8z" fill="#6e8a33"/><path clip-path="url(#d)" d="m245 208c55.8-2.7 101.5.2 101.9 6.4.5 6.2-44.4 13.4-100.3 16.1-55.8 2.7-101.5-.2-101.9-6.4-.4-6.3 44.5-13.4 100.3-16.1z" fill="#6e8a33"/><path d="m5 248.9c0 .5-1 3.3 3 5 10.7 4.6 38.5 10.6 76 12 80.5-31.1 177.8-52.3 267.2-41 15.3 1.9 30.7 3.9 45.9 6.1-146.9-39.7-392.6 12.1-392.1 17.9z" fill="#85a034"/><path d="m-98 295.6c96.3-101.1 579.2-6.8 578.5-2.8-.1.5-2.9 58.4-17.9 58.9-96.3 3.3-457.1 6.8-531.8 7.5-8.9.1-28.8-63.6-28.8-63.6z" fill="#436102"/><path d="m441 223.3c.1-7.7-264.1-78.2-406.1-14.2 48.5-13.3 99.5-17.9 151.2-17.5 70.8 1 136.9 16.1 199.5 38.3 33.8-2.4 55.3-4.7 55.4-6.6z" fill="#afcc6a"/></g><g clip-path="url(#e)"><g clip-path="url(#f)" transform="translate(-6.962)"><path d="m31.2 157.7s-1.9 4.2-8.7 7l-1.1-1.7s6.6-2.3 9.1-6z" fill="#634c37"/><path d="m70.2 164.8c7.2 2.2 1.7 6.7 0 6.2s-3.5-7.2 0-6.2z" fill="#517504"/><path d="m57.6 181.4c4.7-5 9.9-9.4 15.6-13.2l-1.5 2.2c-4.6 3.6-8.8 7.5-12.6 11.9z" fill="#634c37"/><path d="m53.5 179.8s7.9 1.3 13.5 5.1l-.5 1.2c-6.1-2.1-12.5-3.5-18.9-4.1z" fill="#634c37"/><path d="m10.3 171.9c-2.7-.8-4.2-3-6.2-1.9-2.1-1.5-4.7-2.2-7.3-2.1 4.2-3.5.2-4.4-1.4-7.5-1.4 3.2-5.4 4.3-.8 7.7-4.5.7-7.6 3.6-3.2 8.2 2.3 2.4 4.4 4.6 6.4 5.7.1 1.7 2.6 2.3 4.2 4.2.4-2.5 2.5-4.1 1.3-5.8.1-.2.2-.3.4-.5 1.4.1 3.2-.4 5.1-.1-1.3-1.8-1.4-3.8-2.5-4.9 1.3-.7 2.3-2.2 4-3z" fill="#476603"/><path d="m-5.6 175.7s2.3-6.4 12.9-11.8l-3.3-1.8s-7.5 3.4-10.2 8.8z" fill="#3d2c1c"/><path d="m-1.8 200.9s2.8-8.9 21.1-13.7l-2.5-2.3s-15.1 2.3-21.5 12.2z" fill="#634c37"/><path d="m19.3 187.2-2.5-2.3c-4.2.8-8.3 2.1-12.1 4.1.1 1.3.6 2.6 1.5 3.6 4-2.5 8.5-4.3 13.1-5.4z" fill="#7f6b54"/><g transform="translate(10.763 .57)"><path d="m-13.1 140c-.2-1.6-.1-3.3.2-4.9-3.5 1.8-7.4 1.2-8.3 4.1-.3 0-.7 0-1 0 3.1-3.6-.8-4.3-2.8-7.1-1 3.4-4.9 5 .2 7.9-.5.3-.9.7-1.2 1.1-2.4-4.9-4.3-1.9-7.6-1.4 2.6 1.8 2.8 5.1 7 2.3-.2.3-.3.6-.4.9-1.3.6-2.7 1.1-4.1 1.4.9.7 1.7 1.5 2.5 2.4-.7.3-1.5.6-2.3.8 1.5 1 1.9 2.7 3.5 2.4.1.4.2.7.4 1-3.9-.2-3.2 3.2-5.2 6 4.1-.6 7.6 2 8.6-3.4.5.1 1.1.2 1.6.2.4 1.6 2.8 2.6 4.2 4.7.9-2.9 3.7-4.6 2.2-6.7 1.4.1 2.8.4 4.1.9-.3-1.1-.5-2.2-.5-3.3.6-.6 1.3-1.1 2-1.6-.3-.1-.7-.2-1-.3 1.8-.8 3.2-3 5.7-4.4-3.3-1-5.5-3.3-7.8-3z" fill="#5e8705"/><path d="m-20.6 135c-4.9 2.7-5.5 8.5-13 1.6 5.1-8.4 7.5-3 13-1.6z" fill="#699906" transform="translate(18.234 10.731)"/></g><g transform="translate(25.745 6.85)"><path d="m4.1 157c.1-.1.3-.3.5-.4-1.9-.1-3.4-1-4.7-1.1-.2-.2-.4-.4-.6-.5.5-1.6-.1-3.8.5-6.1-.3.2-.7.3-1 .4 0-1.1.2-2.1.5-3.1-1.2.4-2.5.8-3.8.9 0-.6.1-1.3.3-1.9-.9.3-1.8.5-2.7.6 1-.7 2.2-1.3 3.3-1.8-1.1-.6-2.1-1.4-3.1-2.2 2.5-1 1.8-4.1 3.4-7-1.8.3-3.5.5-5.3.4-.3-.5-.6-1-.8-1.6-.6.8-1.2 1.5-2 2.1-.2 0-.4 0-.6 0-1.2-2.1-4.9-2-8.1-3.8.4 2.2-.1 4.2-.1 5.8-2.3-1.2-5.1.9-8.7 1 1 1 1.9 2.2 2.6 3.5-2-.2-4.4 1.2-7.4 1.3 2.9 2.6 3.1 6.4 6.7 6.1-.5.8-1.2 1.6-1.9 2.3 1 .1 2 .4 3 .7.1.3.2.6.2.9-1.5 1.1-2.3 3.5-4.4 5.3 3.3.2 5.8 1.9 7.9 1.5.3.4.6.7 1 1.1-2.4.9-1 3-1.5 5.3 1.2-.5 2.5-1 3.8-1.3 0 .5 0 .9-.1 1.4 1.4-.8 3.1-.7 3.5-1.7.3.1.5.2.8.2-.8 3.2 3.5 4.3 5.9 7.7.3-1 .7-2 1.3-2.9.7.6 1.4 1.3 2 2.1.6-2.1 1.9-3.7 2.6-5.2 1 .1 1.9.3 2.8.6-.5-1.3-.3-2.6-.7-3.4 5.3 1.8 5.4-2.9 9.1-5.9-1.3-.4-2.8-.8-4.2-1.3zm-12.2-10.7c-.3.3-.5.7-.5 1.1-.2-.3-.3-.7-.3-1.1.2.1.5.1.8 0z" fill="#517504"/><g fill="#436104"><path d="m-33.6 136c2.7-2.3 2.3-6.1 8.1-2.6-2 6.1-4.4 2.9-8.1 2.6z" transform="translate(10.804 13.256)"/><path d="m-33.6 135.5c2.4-2 2-5.3 7-2.3-1.7 5.3-3.7 2.5-7 2.3z" transform="translate(8.686 22.8)"/><path d="m-33.6 142.4c1.2-5.4-3.4-10 7.9-10.4 3.7 9.7-2.7 7.5-7.9 10.4z" transform="translate(8.011 23.117)"/><path d="m-33.6 140.7c1-4.5-2.9-8.4 6.6-8.7 3.1 8.1-2.3 6.3-6.6 8.7z" transform="translate(18.908 24.067)"/><path d="m-29.2 141.1c-2.5-3.4-7.5-3.7-1.7-9.1 7.4 3.4 2.8 5.2 1.7 9.1z" transform="translate(19.778 24.525)"/><path d="m-29 141.5c-2.6-3.5-7.8-3.8-1.8-9.5 7.7 3.5 2.9 5.4 1.8 9.5z" transform="translate(22.579 24.236)"/><path d="m-28 137.2c-3.1-1.2-6.5.5-5.4-5.1 6.3-.7 4.2 2.2 5.4 5.1z" transform="translate(30.629 26.087)"/><path d="m-26.6 132.9c-2.4 2-2 5.3-7 2.2 1.8-5.2 3.8-2.4 7-2.2z" transform="translate(29.413 24.753)"/><path d="m-26.7 132c-1.1 4 2.2 7.6-6.3 7.5-2.3-7.4 2.4-5.5 6.3-7.5z" transform="translate(27.172 23.343)"/><path d="m-25.2 132c-1.5 4.7 2.2 9.1-7.8 8.6-2.4-8.8 3-6.4 7.8-8.6z" transform="translate(26.309 15.194)"/><path d="m-24 132c-1.8 5.1 2 10.1-9.1 9.2-2.3-9.8 3.7-6.9 9.1-9.2z" transform="translate(19.611 13.144)"/><path d="m-25.9 134.6c-3.2 1-4.3 4.3-7.7-.4 4.1-4.4 4.7-1 7.7.4z" transform="translate(15.601 5.894)"/><path d="m-21.9 135.9c-4.8 1.6-6.6 6.6-11.7-.7 6.2-6.6 7.2-1.4 11.7.7z" transform="translate(18.089 1.649)"/><path d="m-31 132c.8 2.4 3.7 3.4-.8 5.7-3.8-3.2-.6-3.6.8-5.7z" transform="translate(19.853 5.216)"/><path d="m-33.5 132c2 1.2 4.6.4 3 4.2-4.5-.3-2.6-2.1-3-4.2z" transform="translate(13.121 1.864)"/><path d="m-33.6 132.7c2.8-.1 4.6-2.4 5.9 2.2-4.4 2.4-3.9-.5-5.9-2.2z" transform="translate(6.938 11.059)"/><path d="m-33.6 132.6c2.6-.1 4.3-2.2 5.5 2-4.1 2.3-3.7-.3-5.5-2z" transform="translate(6.307 13.622)"/></g></g><g transform="translate(43.593)"><path d="m-9 144.3c-1.8-.9-2.9-2.4-4.1-3.1-.6-.6-1.3-1.1-2.1-1.5.8-2.2-1.8-4.4-2.4-7.7-2.5 3-6.7 3.9-5.9 7-.8.3-1.5.7-2.2 1.2-2.5-2.9-4.4-.1-7.8.5 2.3 1.4 3.1 3.8 5.1 3.8-.3 1.3-.5 2.5-.5 3.8 0 .6.1 1.2.4 1.7-.1.6-.2 1.3-.5 1.8 1.4-.4 2.8-.1 3.5-.7 1.4-.2 2.7-.7 4-1.3 1.1.2 2.2.4 3.3.9-.2-.8-.3-1.6-.3-2.4 1-.6 1.9-1.2 2.8-1.8 2.1 1 3.8-1.4 6.7-2.2z" fill="#5e8705"/><g fill="#699906"><path d="m-29 132c.8 3.9 5.2 5.9-2.3 8.8-5.2-5.6-.3-5.6 2.3-8.8z" transform="translate(13.382 4.437)"/><path d="m-32.8 132c3.1 2.4 7.6 1.6 4 7.7-7.5-1.4-3.9-4-4-7.7z" transform="translate(7.113 3.308)"/><path d="m-33.6 133.6c3.5-.7 5.2-4 8 1.5-4.9 4-5.1.4-8-1.5z" transform="translate(3.216 12.634)"/><path d="m-29.7 135.9c-2.2-1-4.7.1-3.6-3.9 4.5-.2 2.9 1.8 3.6 3.9z" transform="translate(10.301 15.764)"/><path d="m-25.8 138.1c-4.2-1-8.1 1.7-7.8-5.7 7.9-1.8 5.8 2.2 7.8 5.7z" transform="translate(16.491 7.964)"/></g></g><path d="m40.2 154.2c-5.9-12.3-17.8-2.6-18.8.3-2.2 6.7 27.3 17.3 18.8-.3-.6-1.3 1.1 2.1 0 0z" fill="#5e8705"/><g fill="#5e8705" transform="translate(50.772 12.153)"><path d="m-9.2 144.2c.7-1 .5-2.7 1.4-4.3-3.5 1-6.9-1.2-6.4 5 .8.2 1.6.3 2.4.3-.4.5-.8 1-1.1 1.5 4.2 4 4.6.6 7.4-.9-1.5-.3-2.6-1.3-3.7-1.6z"/><path d="m-13.7 149.2c-2.3 4.2.8 3.5 2.9 5.1-.2-2.5 2.2-4.3-2.9-5.1z"/><path d="m-21.1 156.6c3.1-3.8 9.1-3.9 2.7-10.6-9 3.5-3.7 5.9-2.7 10.6z"/><path d="m-24.1 144.4c-8.6.5-5 3.9-5.8 8 3.9-2.3 8.8-.7 5.8-8z"/><path d="m-33.6 138.7c1.5 2.5.1 5.4 5.8 3.9 0-5.2-2.7-3.2-5.8-3.9z"/><path d="m-21 141.7c3.4-7.9-2-6.3-6.1-8.8.7 4.5-3.3 8.2 6.1 8.8z"/><path d="m-13.3 132c-3.8 3.1-9.5 2.1-4.9 9.6 9.3-1.8 4.8-5 4.9-9.6z"/></g><path d="m-22.7 133c-3.5 3.4-2.5 8.7-10.9 4.3 2.2-8.5 5.7-4.3 10.9-4.3z" fill="#699906" transform="translate(68.328 19.351)"/><path d="m-25.4 143.1c-4.7-3.4-11.4-2-6.4-11.1 11.1 1.6 6 5.7 6.4 11.1z" fill="#699906" transform="translate(65.2 25.977)"/><path d="m-33.6 134.7c5.5-1.2 8.1-6.5 12.9 2.1-7.8 6.6-8.2.8-12.9-2.1z" fill="#699906" transform="translate(52.926 19.285)"/><path d="m-30.7 132c1.5 3.1 5.7 4.1 0 7.9-5.7-3.9-1.5-4.8 0-7.9z" fill="#699906" transform="translate(64.507 15.147)"/><path d="m-25.9 132c-1.9 3.6.4 7.6-7.7 6-.5-7.5 3.5-4.8 7.7-6z" fill="#699906" transform="translate(68.315 20.534)"/><path d="m33.9 175.2c-6.8-21.3 35.8-6 20.7 8.3-14 13.3-16.9 3.7-20.7-8.3z" fill="#517504"/><path d="m64.5 181.7c-2-1.9-2.2-4.5-4.8-4.1 1-1 1.4-2.9 2.8-4.4-1.4 0-2.8-.2-4.1-.5.5-1 1-1.9 1.7-2.8-1.8.1-3.3-.6-4.4-.3.6-.9 0-2.2.1-3.6.7-1.9-.5-4.5.1-7.5-2.8 1.7-6.1 1.8-7.6 3.3-.6-.8-1-1.7-1.3-2.7-.8 1-1.7 1.8-2.7 2.6-.4-.7-.8-1.4-1-2.2-.8 1-1.7 1.8-2.7 2.6-1.5-.7-3.4-1.1-5.1-2.3.1 1.4 0 2.8-.4 4.2-1.1-.4-2.2-.8-3.1-1.5.3 2.9-1.4 5.4.3 7-.7.6-1.5 1-2.4 1.4.8.3 1.5.8 2.1 1.3-1.4 1.1-3 2.1-4.7 2.8 2.2.9 3.7 2.5 5.3 3.3-3.5-1.6-3.5 1.2-5.6 3 1.2.2 2.3.5 3.4.9-.8 1.3-1.9 2.5-3 3.5 2.9.2 5.2 1.6 7.2 1.7-.4 1-.9 1.9-1.4 2.7 2.5-.3 4.7.2 6.6.2-2.4 1.9.2 3.1 1 5.5.5-.7 1.1-1.3 1.7-1.8.9 1.1 1.6 2.3 2.1 3.6 1.5-2.3 4.1-3.5 4.5-5.3 1.8.3 3.6.8 5.4 1.5-.3-1.1-.4-2.2-.4-3.4 1.2.2 2.4.6 3.5 1.1-.6-2-.3-3.9-.4-5.4 1.5.8 3.4-.6 5.9-.6-.9-.9-1.6-2-2.3-3.1.9-.2 2.3-.5 3.7-.7zm-22.7 8.3c0-.1.1-.1 0 0 .1-.1 0-.1 0 0zm.8-.8c.8-1 1.3-2.6 1.5-5.4-1.5-.6-3.1-.9-4.7-1.1.1-.2.2-.4.2-.7-2.8-1.8-4.6-2.4-6-2.3.1-.2.1-.3.2-.5-.3-.2-.7-.4-1-.6 1.8.8 3.8.4 7-3.5-1-1.4-2.3-2.6-3.8-3.5.2-.2.4-.4.6-.6.2 0 .3 0 .5.1.4-.8.7-1.6 1-2.5 1 .2 2 .4 3 .5.1-.1.1-.2.2-.3 1.1-.5 2.1-1.1 3.1-1.8.2.2.5.5.8.8.9-.4 1.7-.8 2.5-1.4.2.8.5 1.5.8 2.3l3-.3c.1.8.3 1.6.6 2.3.8 0 1.7-.2 2.5-.4-.5.8-.8 1.7-.9 2.6.5.2 1.1.4 1.6.6-.8 1.1-1.3 2.4-1.4 3.7 1.2.6 2.4 1 3.7 1.1-.3.2-.7.3-1 .5.2 1 .6 1.9 1.2 2.7-1.1.2-2.1.7-3 1.2 0 .2.1.3.1.4-1.8-.6-3.8-.9-5.7-.7-.3.9-.5 1.8-.6 2.7-.6 0-1.4 0-2.2 0-.3.8-.4 1.6-.6 2.5-.1-.1-.2-.2-.3-.3-1 .6-2 1.2-2.9 1.9z" fill="#517504"/><g fill="#436104"><path d="m-33.6 138.5c4.6-3.7 4-10 13.4-4.1-3.6 9.9-7.3 4.6-13.4 4.1z" transform="translate(66.372 42.832)"/><path d="m-33.6 137.9c2.5-3.4.9-7.8 8.8-5-.6 7.6-4.3 4.4-8.8 5z" transform="translate(68.176 49.481)"/><path d="m-30 144.1c-1.7-5.1-8-7.2 1.5-12.1 8.1 6.8 1.5 7.5-1.5 12.1z" transform="translate(72.245 52.229)"/><path d="m-25.6 140.3c-4.5-2.2-9.8 0-7.3-8.3 9.5-.3 5.9 3.8 7.3 8.3z" transform="translate(79.079 51.842)"/><path d="m-20.4 138.9c-6.2.2-10.2 5.3-13.2-4.7 9.8-5.5 8.8.7 13.2 4.7z" transform="translate(80.795 45.706)"/><path d="m-24.5 136.8c-4.3.1-7.1 3.7-9.1-3.3 6.8-3.8 6.1.5 9.1 3.3z" transform="translate(85.623 41.341)"/><path d="m-26.4 132.4c-2.2 2.5-1.3 6-7.2 3.4 1-5.9 3.7-3.1 7.2-3.4z" transform="translate(82.314 38.283)"/><path d="m-29.1 132c-.5 2.8 1.9 5.1-3.9 5.4-2-4.9 1.3-3.8 3.9-5.4z" transform="translate(83.02 30.214)"/><path d="m-28.3 132c1.3 4.8 7 6.9-2 11.1-7.1-6.6-1-7 2-11.1z" transform="translate(75.623 30.352)"/><path d="m-33.1 132c4.7 3.1 11 1.5 6.6 10.5-10.7-1.2-5.9-5.3-6.6-10.5z" transform="translate(69.168 29.495)"/><path d="m-33.6 133.5c6.1-.2 10.1-5.3 13 4.7-9.7 5.4-8.7-.8-13-4.7z" transform="translate(64.199 34.805)"/><path d="m-33.6 134.9c3.9-1.5 5.1-5.8 9.8.1-4.8 5.8-5.9 1.5-9.8-.1z" transform="translate(64.749 40.328)"/></g><g transform="translate(38.617 25.625)"><path d="m8.9 162.1c-2.9-3-2.7-7.1-7.1-6.4-.1-.3-.1-.6-.2-.9.6-.9 1.2-1.7 2-2.4-1.2-.2-2.4-.5-3.6-.8-.3-.4-.5-.8-.9-1.2 7.3.3 4.8-4.3 6.9-8.7-4.9 1.6-9.8-.7-10 5.4-.4-.4-.8-.7-1.3-1.1 2.7-2 0-4.6-.1-8.1-1 .8-2.2 1.5-3.4 2.1.7-2.1-1.3-4.7-1.4-7.9-3.7 3.2-9.1 3-7 8.3-1.3-1.6-4.4-1.5-7.1-3 .5 2.6-.5 4.9.2 6.6-.5.2-1.1.3-1.7.4 1 .9 1.9 1.9 2.7 3-2.6-1.4-5.4 1.2-9.4 1.7 3.2 2.4 4 6.1 7.3 6-.1.5-.1.9-.2 1.3-3.4-1.3-3.7 1.8-6.2 3.8.6.1 1.2.2 1.8.4-1.2 1.1-2.1 3-4 4.5 4.5.5 7.4 4 10.2-.7.3.4.7.8 1.1 1.2-1 1.6.4 3.8.2 6.4 2.4-1.7 5.4-1.8 6.2-3.6.2 0 .4 0 .6.1-4 4.4 1.1 5.6 3.5 9.6 1.6-4.2 6.4-6.1 1.9-9.9l1.2-.3c1.1.7 3 .9 4.7 2-.1-1.4 0-2.7.2-4.1.6-.3 1.1-.7 1.6-1.1 2 6 5.6 2.5 10.4 2.7-1.4-1.5-2.1-3.2-2.9-4.5 1.3-.6 2.6-.8 3.8-.8zm-25.3-20.5c-.1 0-.1 0 0 0-.1 0-.1-.1-.1-.2 0 .1 0 .2.1.2z" fill="#5e8705"/><g fill="#699906"><path d="m-33.6 132c3.3 1.9 7.6.5 5.1 6.8-7.4-.3-4.3-3.3-5.1-6.8z" transform="translate(15.455 13.522)"/><path d="m-28.7 132c.1 3.6 3.7 5.9-3.4 7.6-3.8-5.7.6-5.1 3.4-7.6z" transform="translate(13.491 11.495)"/><path d="m-29 132c.1 3.3 3.4 5.5-3.2 7-3.6-5.3.5-4.7 3.2-7z" transform="translate(22.428 6.86)"/><path d="m-23.9 132c-2.2 4.8 1 9.9-9.5 8.2-1.3-9.6 4.1-6.4 9.5-8.2z" transform="translate(25.211 7.836)"/><path d="m-27.3 132c-1.4 3.1.7 6.4-6.1 5.3-.9-6.2 2.6-4.2 6.1-5.3z" transform="translate(26.458 16.966)"/><path d="m-24.7 133.2c-3 2.5-2.5 6.7-8.9 2.8 2.2-6.6 4.8-3.1 8.9-2.8z" transform="translate(26.749 19.023)"/><path d="m-25.2 133.1c-2.8 2.4-2.4 6.3-8.4 2.7 2.1-6.3 4.5-3 8.4-2.7z" transform="translate(35.615 20.556)"/><path d="m-23.9 137.5c-4.7-.1-8 3.6-9.7-4.1 7.7-3.8 6.6.9 9.7 4.1z" transform="translate(28.156 24.523)"/><path d="m-25.2 142.5c-4.8-3.1-11.2-1.2-7.1-10.5 11.1.9 6.3 5.2 7.1 10.5z" transform="translate(24.743 25.746)"/><path d="m-29.3 139.3c-2.4-2.5-6.6-2.2-2.6-7.3 6.5 2 2.9 3.9 2.6 7.3z" transform="translate(23.157 34.44)"/><path d="m-29.7 141.4c-2.1-3.6-7.2-4.4-.8-9.4 7.2 4 2.3 5.5.8 9.4z" transform="translate(16.075 31.734)"/><path d="m-33.1 139.8c.4-3.9-3.2-6.8 4.7-7.9 3.4 6.7-1.3 5.5-4.7 7.9z" transform="translate(14.31 29.561)"/><path d="m-33.6 135.9c2.9-2.3 2.6-6.2 8.4-2.3-2.4 6.1-4.6 2.7-8.4 2.3z" transform="translate(7.393 29.585)"/><path d="m-33.6 135.8c2.8-2.2 2.5-5.9 8-2.2-2.2 5.8-4.4 2.5-8 2.2z" transform="translate(3.468 25.225)"/><path d="m-33.6 133.3c3.7-.4 5.8-3.8 8.2 2.1-5.5 3.9-5.3.1-8.2-2.1z" transform="translate(4.01 19.447)"/><path d="m-33.6 133.8c5-.6 7.8-5 11 2.9-7.4 5.1-7.2-.1-11-2.9z" transform="translate(12.682 17.139)"/><path d="m-33.6 133.3c3.6-.4 5.7-3.7 8 2.1-5.4 3.7-5.2 0-8-2.1z" transform="translate(7.815 10.9)"/></g></g><path d="m-4.9 142.5c-3.9-.8-6.4-3.7-9.1-1.7-.1-1.1-.8-2.4-.9-3.9-1.5 1.3-3.5 1.7-4.3 2.7-.1 0-.3-.1-.4-.1 2.1-2.3-.8-3.3-1.9-5.7-.4.7-.8 1.3-1.4 1.9-1.2-2.9-5.4-2-9.3-3.7 1 3.2 0 6.3 1.4 8.1-1.8.6-2.9 1.6-2.8 3 .2 3.9.6 11.9 6 12.4 2.9.1 5.7-.2 8.5-1 .6 3.4 5.1 2.8 9 4.9-.7-3.3.8-6.4-.7-8.3 1.3.3 2.7.8 3.9 1.4-.6-2.8 1.2-5.3-1.8-6.3 1.1-1.5 2.4-2.7 3.8-3.7z" fill="#517504" transform="translate(70.247 52.33)"/><g transform="translate(85.282 42.851)"><path d="m-9 138.3c.2-1.3-.3-3 .1-4.8-1.8 1-3.8 1.1-5.2 1.8-.9-1-1.6-2.1-2.2-3.2-.7 1.1-1.6 2.1-2.6 3.1-.7 0-1.4.1-2.1.4-.7.4-1.3.9-1.8 1.6-1.1.1-2.1 0-3.2-.2.6 1.2 1 2.5 1.3 3.8 0 .1-.1.2-.1.3-1.4.7-2.9 1.2-4.5 1.6 1.9 1.3 2.9 3.2 4.3 4 0 .1.1.2.1.3-.6 1.4-1.3 2.6-2.2 3.8 2.4-.2 4.5.6 6.2.6.4.6.8 1.3 1 2 1.2-1.8 3.4-2.6 3.3-4.1.5-.1 1.1-.1 1.6-.2-.3 2.1 2.5 2.9 4.1 5.1.8-3 3.9-4.7 1.2-7 .3-.2.6-.4.8-.7 2.6-.2 3.8-3.4 6.8-5.4-2.6-.9-4.8-2.6-6.9-2.8z" fill="#6c9c06"/><g fill="#74a807"><path d="m-31.3 139.9c-1.1-3.4-5.2-4.8 1.1-8 5.3 4.6.9 5-1.1 8z" transform="translate(9.235 11.725)"/><path d="m-28.3 142.9c-2.9-4-9-4.4-2.1-10.9 8.9 4 3.3 6.2 2.1 10.9z" transform="translate(13.769 11.29)"/><path d="m-23.8 133.9c-3.6 2.3-3.7 6.8-9.8 1.9 3.4-6.7 5.5-2.7 9.8-1.9z" transform="translate(17.565 7.055)"/><path d="m-31.9 132c2.2 2.6 6.3 2.7 1.9 7.4-6.3-2.5-2.6-4.2-1.9-7.4z" transform="translate(11.095 1.376)"/><path d="m-33.6 134.4c5.5-.9 8.4-6.1 12.6 2.6-8 6.2-8.1.4-12.6-2.6z" transform="translate(0 4.992)"/><path d="m-33.6 138.6c3.4-3.8 1.9-9.2 11-5.2-1.5 9-5.6 4.8-11 5.2z" transform="translate(5.766 12.327)"/></g></g><path d="m70.4 171.8c.3-2.4 5.4-4.7 6.8-4.7 4 0 5 5.9 3.2 8.4-1.7 2.4-10.4.2-10-3.7z" fill="#5e8705"/><path d="m-32 139.1c-.6-3.1-4.2-4.8 1.9-7.1 4.2 4.6.2 4.6-1.9 7.1z" fill="#5e8705" transform="translate(105.937 40.123)"/><path d="m-24.2 135.4c-3.9 1.1-5.6 5-9.4-1 5.3-5.1 5.8-.9 9.4 1z" fill="#699906" transform="translate(108.613 38.19)"/><path d="m-25.3 132c-1.8 4.2 1.2 8.6-8.1 7.4-1.4-8.4 3.5-5.7 8.1-7.4z" fill="#5e8705" transform="translate(107.087 31.686)"/><path d="m-33.6 133.6c3.7-.6 5.7-4.1 8.4 1.8-5.3 4.1-5.4.2-8.4-1.8z" fill="#699906" transform="translate(101.099 36.084)"/><path d="m24 237.5s-9.8.7-10.3-7.3.1-18.1-3.2-22.4-11-6.3-11.1-12-1.4-20.7-1.5-24-14.1-12.8-14.1-12.8c-.8 3-.8 6.2 0 9.2 0 0 8.8 6.4 6.8 16.6s-.3 15.6 3.2 21.5 4 16.2.6 20.9c-1.8 2.7-5.2 3.9-8.2 2.8 0 0-8 2.4-12.8 8.9 0 0 11.3-6.4 14.1-3.3 1.8 2.1 3.5 4.4 5 6.8 0 0 3.8-5.4 15.6 0-.1.3 4.9-6.3 15.9-4.9z" fill="#634c37"/><path d="m24 237.5s-9.8.7-10.3-7.3.1-18.1-3.2-22.4-11-6.3-11.1-12-1.4-20.7-1.5-24-14.1-12.8-14.1-12.8c-.8 3-.8 6.2 0 9.2 0 0 8.8 6.4 6.8 16.6s-.3 15.6 3.2 21.5 4 16.2.6 20.9c-1.8 2.7-5.2 3.9-8.2 2.8 0 0-8 2.4-12.8 8.9 0 0 11.3-6.4 14.1-3.3 1.8 2.1 3.5 4.4 5 6.8 0 0 3.8-5.4 15.6 0-.1.3 4.9-6.3 15.9-4.9z" fill="#7f6b54"/><path d="m12.7 214.1c-.2-2.2-1-4.4-2.2-6.3-.1-.1-.2-.2-.3-.3-1.1 1.4-1 4.7-.2 5.7.5 1 1.7 1.3 2.7.9z" fill="#685439"/><path d="m9.1 206.4c-.8-.7-1.7-1.4-2.7-2.1-.8 5.5 1 11.1 3 16.4 2.1 5.8 3.9 11.9 4.1 18 2.4-1 4.9-1.5 7.4-1.4-2.9-.5-7-2-7.3-7.1-.3-4.7-.2-10-.7-14.6-.9.4-2.1.3-2.9-.3-1.9-1.4-2.3-3.6-2-5.7.1-1.1.5-2.2 1.1-3.2z" fill="#675338"/><path d="m12.2 235.6c-.9-6.7-3.5-12.7-5.5-19.2-1.4-4.1-1.8-8.5-1.3-12.8-2.5-1.8-5-3.5-5.8-6.1-1.3-1.4-2.3-3.2-2.8-5.1-1.5-5.8-.8-11.8-2.6-17.6-1.7-5.5-5.3-10.2-10.1-13.2 9.4 7 11.5 21.5 6.2 31.5 6.4 9.9 13.1 20 16 31.2 1.5 5.8 1.6 11.8.2 17.6.5.2 1 .4 1.5.6 1.2-1.4 2.7-2.6 4.4-3.4 0-1.1-.1-2.3-.2-3.5z" fill="#675338"/><path d="m1.9 220.8c1.2 6.5.7 13.3-1.5 19.5.7.1 1.3.2 2 .3.1-.7.2-1.4.3-2 .9-5.9.6-11.9-.8-17.8z" fill="#675338"/><path d="m4.6 220.1c-3.5-9.4-8.9-18-14.4-26.5-.1.2-.2.4-.4.6.1 1.6.3 3.3.7 4.9 1.7 2.5 3.5 4.9 5.2 7.4.8.8 1.4 1.8 1.9 2.8.4.7.9 1.5 1.2 2.2.5 1 1.1 2 1.5 3 3.3 7.8 4.3 16.3 2.8 24.6-.1.5-.2 1.1-.3 1.6 1.1.3 2.2.6 3.2 1 1.8-7.1 1.2-14.6-1.4-21.6z" fill="#675338"/><path d="m24 237.5c-1-.1-2-.2-3-.2 1 .2 2 .2 3 .2z" fill="#1c1610"/><path d="m24 237.5c-1-.1-2-.2-3-.2 1 .2 2 .2 3 .2z" fill="#c9c1bb"/><path d="m5.4 228.3c.9 5.6 6.4 8.4 8.3 7.5.7-.3 1.3-.6 1.9-.9-1.2-1.3-2-2.9-2-4.7-.2-3.1-.2-6.4-.4-9.7-3.5 2-8.5 3.2-7.8 7.8z" fill="#59442f"/><path d="m24 237.5c-1-.1-2-.2-3-.2 1 .2 2 .2 3 .2z" fill="#1c1610"/><path d="m24 237.5c-1-.1-2-.2-3-.2 1 .2 2 .2 3 .2z" fill="#a1938a"/><path d="m10 207.3c-3.5-3.9-10.6-6.1-10.7-11.5-.1-5.6-1.4-20.7-1.5-24s-14.1-12.8-14.1-12.8c-.8 3-.8 6.2 0 9.2 0 0 8.8 6.4 6.8 16.6s-.3 15.6 3.2 21.5c2.5 4.3 3.5 10.9 2.5 16 3.4-.1 6.5-1.1 8.1-3.8 2.2-1 4.5-1.8 6.9-2.3-.8-2.7-1.2-5.8-1.2-8.9z" fill="#59442f"/><g transform="translate(7.287 63.514)"><path d="m-4.7 143.4c0-.2.1-.4.1-.6 3.2 1.5 4.1-1.7 7.1-3.4-2.2-.5-3.8-1.9-5.3-2.2-.8-1.2-2.6-2.1-3.8-3.7-.2.6-.4 1.2-.8 1.8-1.3-.9-2.4-2-3.3-3.3-.5 1.4-1.1 2.7-2 3.9-.2-.6-.3-1.3-.3-1.9-2.7 2.3-6.5 2.3-5.5 5.7-.4-.2-.9-.3-1.3-.4 1.5-4.2-2.8-3.9-5.9-6.4 0 2.6-1.5 4.7-.9 6.3-2.6-.4-4 2.5-7.1 4 3.6 1.1 5.5 4 8.3 2.6.2.4.5.9.8 1.3-2.5.3-1.8 2.8-3.1 5 2.6-.6 5 .5 6-1.6.3.3.6.6.9.9-2.4 1.9.3 3.4.9 6 1.1-1.5 2.8-2.2 3.4-3.3 1.2.2 2.4.1 3.5-.3 1.7.6 4.1.6 6.4 1.5-.4-1.3-.6-2.5-.6-3.9 2.2.2 4.8-1.1 8-1-2.5-2.6-2.8-6.2-5.5-7z" fill="#5e8705"/><g fill="#699906"><path d="m-24.9 137c-4.2-.1-7.2 3.2-8.7-3.8 7-3.3 6 .9 8.7 3.8z" transform="translate(21.863 12.134)"/><path d="m-31.5 132c2 2.9 6.2 3.2 1.3 7.7-6.2-3-2.3-4.4-1.3-7.7z" transform="translate(25.258 4.109)"/></g></g><path d="m8 225s7.9-9.2 27.2-17.2l-4.8 4s-11.2 4.2-3.5 6c6.1 1.4 14.8-4.5 14.8-4.5v1.6s-9.6 6.1-14.8 4.9-3.3-1.9-5.8-.2-10.2 7.8-9.7 13.9c-.1 0-8.6-3.8-3.4-8.5z" fill="#634c37"/><path d="m8 225c-2.5 2.2-1.9 4.2-.5 5.7 4.2-9.6 13.7-16.1 24.6-20.3l3.1-2.6c-19.2 8-27.2 17.2-27.2 17.2z" fill="#685439"/><path d="m26.9 219.8c5.3 1.2 14.8-4.9 14.8-4.9v-1.6s-8.8 5.9-14.8 4.5c-7.7-1.8 3.5-6 3.5-6l4.8-4c-5.9 2.4-11.6 5.4-16.9 8.9-.2 1.5.1 3.1.7 4.4.7-.5 1.3-1.1 2.1-1.5 2.5-1.6.6-.9 5.8.2z" fill="#7f6b54"/><g transform="translate(51.136 52.558)"><path d="m8.5 154.2c-1.1-1.1-2-2.3-2.7-3.6.1 0 .1-.1.2-.1-.1 0-.2 0-.3-.1-1-1.5-2.1-2.5-4.5-1.9-.5-.2-1.1-.4-1.6-.5-.3-.5-.7-1-1.1-1.5 0-1.3.1-2.6.5-3.8-1.2.5-2.4.8-3.6 1-1-.8-2-1.5-3.1-2.1-.2-.9-.3-1.8-.3-2.7-.7.5-1.5.9-2.3 1.2-.2-.1-.4-.2-.6-.3.6-2.1-1.8-4.3-2.4-7.4-1.5 1.7-3.5 2.7-4.8 3.9-.5-1.3-2.2-2.5-3.1-4.3-1.5 3-5.2 4.2-1.9 7.3-.5.7-.9 1.5-1.2 2.3-1.2.3-2.5.5-3.7.5 1 1.2 1.8 2.5 2.5 3.9-.1.2-.1.5-.2.7-.9.3-1.7.5-2.6.6.6.6 1.2 1.2 1.6 1.9-.2.3-.3.6-.5.9-.6 1-1.1 2-1.3 3.1-1.1.7-2.3 1.3-3.6 1.7 1.7 1 3.2 2.2 4.7 3.5.1.2.2.3.3.5-3 1.1-1.8 4.6-3.4 8 2.9-1 5.9-.5 7.7-1.4.2 1.9 2.1 4 2.6 6.8 1.9-2.3 4.7-3.3 5.9-5 1.6.7 3.2 1.6 4.6 2.7.2-1.8.6-3.6 1.2-5.4.8-.3 1.6-.6 2.3-1 .4.2.7.5 1 .7 0-.5.1-1 .2-1.5 1.2-.8 2.2-1.9 3-3 1.6.1 3.5-1 5.8-1.1-1-1-1.8-2.2-2.5-3.4 1.9.4 4.2-1 7.2-1.1z" fill="#6c9c06"/><g fill="#74a807"><path d="m-19.9 136.6c-5.6 1.8-7.7 7.6-13.7-.9 7.3-7.6 8.4-1.6 13.7.9z" transform="translate(22.604 15.206)"/><path d="m-28 132c-1 3.1 1.3 6-5.3 5.6-1.4-5.8 2.1-4.2 5.3-5.6z" transform="translate(27.134 10.537)"/><path d="m-28.5 132c-.3 3.4 2.9 5.9-4 6.9-3.1-5.7 1-4.8 4-6.9z" transform="translate(22.638 3.311)"/><path d="m-30.1 132c1.8 3.8 6.9 4.9 0 9.5-6.9-4.6-1.8-5.7 0-9.5z" transform="translate(14.804 3.379)"/><path d="m-29 132c2.4 4.9 8.9 6.4-.1 12.3-8.9-6-2.3-7.4.1-12.3z" transform="translate(6.786 2.003)"/><path d="m-33.6 133.2c5.3-.1 8.9-4.5 11.3 4.2-8.5 4.7-7.6-.7-11.3-4.2z" transform="translate(1.55 7.887)"/><path d="m-33.6 134.8c4.5-1.4 6.3-6 10.9.9-5.9 6-6.7 1.2-10.9-.9z" transform="translate(3.887 15.563)"/><path d="m-33.6 134.1c3.5-1 4.8-4.6 8.3.7-4.5 4.6-5.1.9-8.3-.7z" transform="translate(0 20.916)"/><path d="m-33.6 140.3c2.1-4.7-1-9.6 9.2-8 1.4 9.3-4 6.3-9.2 8z" transform="translate(4.675 23.523)"/><path d="m-31.9 139.8c-.6-3.5-4.5-5.3 2.2-7.8 4.6 5 .2 5-2.2 7.8z" transform="translate(13.553 26.645)"/><path d="m-26.2 143.3c-4.3-3.7-10.9-2.7-5.2-11.3 10.7 2.4 5.3 5.9 5.2 11.3z" transform="translate(18.773 22.446)"/><path d="m-24.7 136.6c-4.2.1-6.9 3.6-8.9-3.2 6.6-3.7 6 .6 8.9 3.2z" transform="translate(28.999 23.444)"/><path d="m-24.5 136.7c-4.2.1-7 3.7-9.1-3.2 6.7-3.8 6.1.5 9.1 3.2z" transform="translate(26.819 15.36)"/></g></g></g></g><g transform="translate(-30 -204)"><path d="m294.1 488.9c40.2.8 72.7 6.7 72.6 13.2s-32.8 11.2-73 10.5c-40.2-.8-72.7-6.7-72.6-13.2.1-6.6 32.8-11.3 73-10.5z" fill="url(#h)" opacity=".54"/><path d="m75.2 182.2-60.2-.3c-7.3-.1-13.2-6.2-13-13.5l.7-155c-.1-7.3 5.8-13.3 13.1-13.4l60.2.3c7.3.1 13.2 6.2 13 13.5l-.7 155c.1 7.3-5.8 13.3-13.1 13.4z" fill="#263238" transform="translate(107.749 235.353)"/><path d="m4.7 1.3c0 .7-.6 1.3-1.3 1.3s-1.4-.5-1.4-1.3c0-.7.6-1.3 1.3-1.3.8 0 1.4.6 1.4 1.3z" fill="#e0e0e0" transform="translate(187.342 375.586)"/><path d="m2.1 2.9c-.1-1-.1-1.9 0-2.9.2 1 .2 1.9 0 2.9z" fill="#e0e0e0" transform="translate(188.55 376.911)"/><g transform="translate(110.852 240.461)"><path d="m74.1.3-12.1-.1c-1.6 0-3 1.4-2.9 3v2.2c0 1.6-1.3 3-2.9 3h-23.5c-1.6 0-3-1.4-2.9-3.1v-2.2c0-1.6-1.3-3-2.9-3.1h-4.2-10.6c-5.2 0-9.4 4.2-9.5 9.4l-.6 151.9c0 5.2 4.2 9.5 9.4 9.5l61.9.3c5.2 0 9.5-4.2 9.5-9.4l.7-151.9c0-5.2-4.2-9.5-9.4-9.5z" fill="#fafafa"/><path d="m6.1 120.1c.5-.4 26.4-11.8 26.4-11.8l-30.2-15.1-.1 24.3z" fill="#ebebeb"/><path d="m7.7 92.7 22.1-11.2-23.8-13.1-3.7.9v21.3z" fill="#e8505b"/><path d="m7.8 93.2 22.5-11.4-24.2-13.4-3.7.9-.1 21.7z" fill="#bfbfbf"/><path d="m3.2 66.8 68-31.8-67.4-22z" fill="#ebebeb"/><path d="m2.4 149.6 31.1-16 46.3 27.2-11 9.7h-39.6l-26.8-16.4z" fill="#ebebeb"/><path d="m39.6 131.9 38.4 22.8 4.3-.5v-21.9l-21.1-11.1z" fill="#ebebeb"/><path d="m45.9 110.1 36.2 20.4v-26.7l-13.1-5.5z" fill="#ebebeb"/><path d="m7.2 121.4 21.3 11.6 25.8-13.4-20.5-10.4z" fill="#ebebeb"/><path d="m39.1 81.4 30.1 14.9 14-7.1.1-10-20.3-9.9z" fill="#ebebeb"/><path d="m8.3 94.4 30.1 14.9 14-7.1.1-10-20.3-9.9z" fill="#ebebeb"/><path d="m12.5 67.6 24.5 12.3 22.9-12.3-23.7-10.9z" fill="#ebebeb"/><path d="m54.5 97.5c-.2-.1-.3-.1-.4-.2l-1.3-.7-4.9-2.8-18-10.6-.4-.2.4-.2 23.7-12v.5l-17.7-9.4-.6-.3.6-.3 24.6-12.9v.6l-2.9-1.5-55-27.9-.6-.3.5-.3 29.2-13.9 8.1-3.8 2.1-1 .6-.2c0-.1.1-.1.2-.1-.1 0-.1.1-.2.1l-.5.3-2.1 1.1-8 4-29.1 14v-.5l55.1 27.8 2.9 1.5.6.3-.6.3-24.6 12.9v-.6l17.6 9.5.5.3-.5.3-23.7 11.8v-.4l17.9 10.8 4.8 2.9 1.2.8c.2.1.4.1.5.3z" fill="none" stroke="#43a7ff" transform="translate(5.411 48.656)"/><g transform="translate(45.366 69.566)"><path d="m2.1 13.7-.1-5.3 13.8 6.7v5.5z" fill="#f5f5f5"/><path d="m15.8 15.1 17.1-8.5v5.9l-17.1 8.1z" fill="#e0e0e0"/><path d="m2 8.4 16.8-8.4 14.1 6.6-17.1 8.5z" fill="#f5f5f5"/><g fill="#fafafa"><path d="m3.8 10.7v2.6l1.3.6v-2.5z"/><path d="m6 11.6v2.6l1.3.6v-2.5z"/></g></g><g transform="translate(2.057 33.026)"><path d="m2 16.8v-6.8l16.3 7.9v6.5z" fill="#e0e0e0"/><path d="m18.3 17.9 20.3-10.1v7l-20.3 9.6z" fill="#f5f5f5"/><g fill="#fafafa"><path d="m2 10 19.9-10 16.7 7.8-20.3 10.1z"/><path d="m4.1 12.7v3l1.6.7v-2.9z"/><path d="m6.7 13.8v3l1.6.7v-2.9z"/></g></g><g transform="translate(51.295 103.877)"><path d="m2 3.6v5.4l5.8 2.9v-5.6z" fill="#e0e0e0"/><path d="m15.3 2.7-7.5 3.6v5.6l7.4-4.1z" fill="#e0e0e0"/><path d="m2 3.6 7.4-3.6 5.9 2.7-7.5 3.6z" fill="#f5f5f5"/><path d="m4.1 7.5v2.5l1.3.6v-2.4z" fill="#fafafa"/></g><g transform="translate(4.272 101.069)"><path d="m2 3.6v5.4l5.8 2.9v-5.6z" fill="#e0e0e0"/><path d="m15.3 2.7-7.5 3.6v5.6l7.4-4.1z" fill="#e0e0e0"/><path d="m2 3.6 7.4-3.6 5.9 2.7-7.5 3.6z" fill="#f5f5f5"/><path d="m4.1 7.5v2.5l1.3.6v-2.4z" fill="#fafafa"/></g><g transform="translate(28.406 65.242)"><path d="m2 3.6v5.4l5.8 2.9v-5.6z" fill="#f5f5f5"/><path d="m15.3 2.7-7.5 3.6v5.6l7.4-4.1z" fill="#e0e0e0"/><path d="m2 3.6 7.4-3.6 5.9 2.7-7.5 3.6z" fill="#f5f5f5"/><path d="m4.1 7.5v2.5l1.3.6v-2.4z" fill="#e0e0e0"/></g><g transform="translate(21.936 111.761)"><path d="m2 3.6v5.4l5.8 2.9v-5.6z" fill="#e0e0e0"/><path d="m15.3 2.7-7.5 3.6v5.6l7.4-4.1z" fill="#ebebeb"/><path d="m2 3.6 7.4-3.6 5.9 2.7-7.5 3.6z" fill="#f5f5f5"/><path d="m4.1 7.5v2.5l1.3.6v-2.4z" fill="#fafafa"/></g><g transform="translate(45.968 123.968)"><path d="m2 4.5v6.8l12.3 7.2v-7z" fill="#f5f5f5"/><path d="m23.6 6.5-9.3 5v7l9.3-5.2z" fill="#e0e0e0"/><g fill="#fafafa"><path d="m2 4.5 9.2-4.5 12.4 6.5-9.3 5z"/><path d="m6.6 10.8v3.2l1.7 1v-3.2z"/></g></g><g transform="translate(16.458 134.96)"><path d="m2 7.5v6.8l12.3 7.2v-7z" fill="#e0e0e0"/><path d="m28.9 6.6-14.6 7.9v7l14.7-8.1z" fill="#fafafa"/><path d="m2 7.5 15.5-7.5 11.5 6.6-14.7 7.9z" fill="#f5f5f5"/><path d="m6.6 13.8v3.2l1.7 1v-3.2z" fill="#fafafa"/></g><g transform="translate(62.896 114.393)"><path d="m2 2.6v27.2l7.7 4v-27.6z" fill="#f5f5f5"/><path d="m7.7 0-5.7 2.6 7.7 3.6 5.2-2.9z" fill="#fafafa"/><path d="m9.7 6.2v27.5l4.7-2.5.5-27.9z" fill="#e0e0e0"/></g><g transform="translate(30.537 92.37)"><path d="m2 2.6v27.2l7.7 4v-27.6z" fill="#f5f5f5"/><path d="m7.7 0-5.7 2.6 7.7 3.6 5.2-2.9z" fill="#fafafa"/><path d="m9.7 6.2v27.5l4.7-2.3.5-28.1z" fill="#e0e0e0"/></g><g transform="translate(34.012 141.528)"><path d="m2 5.2v6.8l12.3 7.2v-7z" fill="#e0e0e0"/><path d="m23.6 7.1-9.3 5v7l9.3-5.2z" fill="#fafafa"/><path d="m2 5.2 9.4-5.2 12.2 7.1-9.3 5z" fill="#f5f5f5"/><path d="m6.6 11.5v3.2l1.7 1v-3.2z" fill="#fafafa"/></g><path d="m63.3 65.5-22.3-10.1 31.1-15.8 10.2 15.2z" fill="#ebebeb"/><path d="m83.2 74.8.2-17.4-17.4 9.8z" fill="#bfbfbf"/><g fill="#e0e0e0"><path d="m4.7 1.3c0 .7-.6 1.3-1.3 1.3s-1.4-.5-1.4-1.3c0-.7.6-1.3 1.3-1.3s1.4.6 1.4 1.3z" transform="translate(65.368 90.902)"/><path d="m2.1 2.9c-.1-1-.1-1.9 0-2.9.2 1 .2 1.9 0 2.9z" transform="translate(66.576 92.227)"/><path d="m4.7 1.3c0 .7-.6 1.3-1.3 1.3s-1.4-.5-1.4-1.3c0-.7.6-1.3 1.3-1.3.8 0 1.4.6 1.4 1.3z" transform="translate(29.212 87.655)"/><path d="m2.1 2.9c-.1-1-.1-1.9 0-2.9.2 1 .2 1.9 0 2.9z" transform="translate(30.42 88.98)"/><path d="m4.7 1.3c0 .7-.6 1.3-1.3 1.3s-1.4-.5-1.4-1.3c0-.7.6-1.3 1.3-1.3.8 0 1.4.6 1.4 1.3z" transform="translate(11.499 106.158)"/><path d="m2.1 2.9c-.1-1-.1-1.9 0-2.9.2 1 .2 1.9 0 2.9z" transform="translate(12.707 107.483)"/><path d="m4.7 1.3c0 .7-.6 1.3-1.3 1.3s-1.4-.5-1.4-1.3c0-.7.6-1.3 1.3-1.3.8 0 1.4.6 1.4 1.3z" transform="translate(12.824 91.88)"/><path d="m2.1 2.9c-.1-1-.1-1.9 0-2.9.2 1 .2 1.9 0 2.9z" transform="translate(14.032 93.206)"/><path d="m4.7 1.3c0 .7-.6 1.3-1.3 1.3s-1.4-.5-1.4-1.3c0-.7.6-1.3 1.3-1.3.8 0 1.4.6 1.4 1.3z" transform="translate(45.535 90.569)"/><path d="m2.1 2.9c-.1-1-.1-1.9 0-2.9.2 1 .2 1.9 0 2.9z" transform="translate(46.743 91.895)"/><path d="m4.7 1.3c0 .7-.6 1.3-1.3 1.3s-1.4-.5-1.4-1.3c0-.7.6-1.3 1.3-1.3.8 0 1.4.6 1.4 1.3z" transform="translate(66.47 100.498)"/><path d="m2.1 2.9c-.1-1-.1-1.9 0-2.9.2 1 .2 1.9 0 2.9z" transform="translate(67.678 101.824)"/><path d="m4.7 1.3c0 .7-.6 1.3-1.3 1.3s-1.4-.5-1.4-1.3c0-.7.6-1.3 1.3-1.3.8 0 1.4.6 1.4 1.3z" transform="translate(67.318 108.294)"/><path d="m2.1 2.9c-.1-1-.1-1.9 0-2.9.2 1 .2 1.9 0 2.9z" transform="translate(68.526 109.62)"/><path d="m4.7 1.3c0 .7-.6 1.3-1.3 1.3s-1.4-.5-1.4-1.3c0-.7.6-1.3 1.3-1.3s1.4.6 1.4 1.3z" transform="translate(30.151 124.468)"/><path d="m2.1 2.9c-.1-1-.1-1.9 0-2.9.2 1 .2 1.9 0 2.9z" transform="translate(31.359 125.793)"/><circle cx="76.995" cy="148.881" r="1.3"/><path d="m2.1 2.9c-.1-1-.1-1.9 0-2.9.2 1 .2 1.9 0 2.9z" transform="translate(74.903 148.906)"/><path d="m4.7 1.3c0 .7-.6 1.3-1.3 1.3s-1.4-.5-1.4-1.3c0-.7.6-1.3 1.3-1.3.8 0 1.4.6 1.4 1.3z" transform="translate(48.367 162.078)"/><path d="m2.1 2.9c-.1-1-.1-1.9 0-2.9.2 1 .2 1.9 0 2.9z" transform="translate(49.575 163.403)"/><path d="m4.7 1.3c0 .7-.6 1.3-1.3 1.3s-1.4-.5-1.4-1.3c0-.7.6-1.3 1.3-1.3s1.4.6 1.4 1.3z" transform="translate(38.164 158.072)"/><path d="m2.1 2.9c-.1-1-.1-1.9 0-2.9.2 1 .2 1.9 0 2.9z" transform="translate(39.372 159.397)"/><path d="m4.6 1.3c0 .7-.6 1.3-1.3 1.3s-1.3-.5-1.3-1.3c0-.7.6-1.3 1.3-1.3s1.3.6 1.3 1.3z" transform="translate(61.57 155.164)"/><path d="m2.1 2.9c-.1-1-.1-1.9 0-2.9.2 1 .2 1.9 0 2.9z" transform="translate(62.778 156.489)"/><circle cx="44.913" cy="130.939" r="1.3"/><path d="m2.1 2.9c-.1-1-.1-1.9 0-2.9.2 1 .2 1.9 0 2.9z" transform="translate(42.822 130.965)"/><path d="m4.7 1.3c0 .7-.6 1.3-1.3 1.3s-1.4-.5-1.4-1.3c0-.7.6-1.3 1.3-1.3.8 0 1.4.6 1.4 1.3z" transform="translate(44.955 116.701)"/><path d="m2.1 2.9c-.1-1-.1-1.9 0-2.9.2 1 .2 1.9 0 2.9z" transform="translate(46.163 118.026)"/><path d="m4.7 1.3c0 .7-.6 1.3-1.3 1.3s-1.4-.5-1.4-1.3c0-.7.6-1.3 1.3-1.3.8 0 1.4.6 1.4 1.3z" transform="translate(12.824 118.156)"/><path d="m2.1 2.9c-.1-1-.1-1.9 0-2.9.2 1 .2 1.9 0 2.9z" transform="translate(14.032 119.482)"/><path d="m4.7 1.3c0 .7-.6 1.3-1.3 1.3s-1.4-.5-1.4-1.3c0-.7.6-1.3 1.3-1.3s1.4.6 1.4 1.3z" transform="translate(74.034 106.158)"/><path d="m2.1 2.9c-.1-1-.1-1.9 0-2.9.2 1 .2 1.9 0 2.9z" transform="translate(75.242 107.483)"/><path d="m4.6 1.3c0 .7-.6 1.3-1.3 1.3s-1.3-.5-1.3-1.3c0-.7.6-1.3 1.3-1.3.8 0 1.3.6 1.3 1.3z" transform="translate(70.478 86.329)"/><path d="m2.1 2.9c-.1-1-.1-1.9 0-2.9.2 1 .2 1.9 0 2.9z" transform="translate(71.686 87.655)"/><circle cx="46.938" cy="70.106" r="1.3"/><path d="m2.1 2.9c-.1-1-.1-1.9 0-2.9.2 1 .2 1.9 0 2.9z" transform="translate(44.846 70.131)"/><path d="m4.7 1.3c0 .7-.6 1.3-1.3 1.3s-1.4-.5-1.4-1.3c0-.7.6-1.3 1.3-1.3s1.4.6 1.4 1.3z" transform="translate(18.299 93.81)"/><path d="m2.1 2.9c-.1-1-.1-1.9 0-2.9.2 1 .2 1.9 0 2.9z" transform="translate(19.508 95.135)"/><path d="m4.7 1.3c0 .7-.6 1.3-1.3 1.3-.8 0-1.4-.5-1.4-1.3 0-.7.6-1.3 1.3-1.3.8 0 1.4.6 1.4 1.3z" transform="translate(33.87 59.345)"/><path d="m2.1 2.9c-.1-1-.1-1.9 0-2.9.2 1 .2 1.9 0 2.9z" transform="translate(35.078 60.671)"/><path d="m4.7 1.3c0 .7-.6 1.3-1.3 1.3-.8 0-1.4-.5-1.4-1.3 0-.7.6-1.3 1.3-1.3.8 0 1.4.6 1.4 1.3z" transform="translate(60.901 56.438)"/><path d="m2.1 2.9c-.1-1-.1-1.9 0-2.9.2 1 .2 1.9 0 2.9z" transform="translate(62.109 57.764)"/><path d="m4.7 1.3c0 .7-.6 1.3-1.3 1.3-.8.1-1.4-.5-1.4-1.3 0-.7.6-1.3 1.3-1.3s1.4.6 1.4 1.3z" transform="translate(68.371 55.216)"/><path d="m2.1 2.9c-.1-1-.1-1.9 0-2.9.2 1 .2 1.9 0 2.9z" transform="translate(69.58 56.541)"/><path d="m4.7 1.3c0 .7-.6 1.3-1.3 1.3-.8 0-1.4-.5-1.4-1.3 0-.7.6-1.3 1.3-1.3.8 0 1.4.6 1.4 1.3z" transform="translate(65.368 45.438)"/><path d="m2.1 2.9c-.1-1-.1-1.9 0-2.9.2 1 .2 1.9 0 2.9z" transform="translate(66.576 46.764)"/><path d="m4.7 1.3c0 .7-.6 1.3-1.3 1.3-.8.1-1.4-.5-1.4-1.3 0-.7.6-1.3 1.3-1.3.8 0 1.4.6 1.4 1.3z" transform="translate(23.748 67.965)"/><path d="m2.1 2.9c-.1-1-.1-1.9 0-2.9.2 1 .2 1.9 0 2.9z" transform="translate(24.956 69.29)"/><path d="m4.7 1.3c0 .7-.6 1.3-1.3 1.3-.8 0-1.4-.5-1.4-1.3 0-.7.6-1.3 1.3-1.3.8 0 1.4.6 1.4 1.3z" transform="translate(54.555 55.423)"/><path d="m2.1 2.9c-.1-1-.1-1.9 0-2.9.2 1 .2 1.9 0 2.9z" transform="translate(55.764 56.749)"/><path d="m4.7 1.3c0 .7-.6 1.3-1.3 1.3s-1.4-.5-1.4-1.3c0-.7.6-1.3 1.3-1.3.8 0 1.4.6 1.4 1.3z" transform="translate(17.336 25.567)"/><path d="m2.1 2.9c-.1-1-.1-1.9 0-2.9.2 1 .2 1.9 0 2.9z" transform="translate(18.544 26.892)"/><path d="m4.7 1.3c0 .7-.6 1.3-1.3 1.3-.8.1-1.4-.5-1.4-1.3 0-.7.6-1.3 1.3-1.3.8 0 1.4.6 1.4 1.3z" transform="translate(32.545 32.827)"/><path d="m2.1 2.9c-.1-1-.1-1.9 0-2.9.2 1 .2 1.9 0 2.9z" transform="translate(33.754 34.152)"/><path d="m4.7 1.3c0 .7-.6 1.3-1.3 1.3-.8.1-1.4-.5-1.4-1.3 0-.7.6-1.3 1.3-1.3.8 0 1.4.6 1.4 1.3z" transform="translate(8.37 55.751)"/><path d="m2.1 2.9c-.1-1-.1-1.9 0-2.9.2 1 .2 1.9 0 2.9z" transform="translate(9.578 57.076)"/><path d="m4.7 1.3c0 .7-.6 1.3-1.3 1.3-.8.1-1.4-.5-1.4-1.3 0-.7.6-1.3 1.3-1.3.8 0 1.4.6 1.4 1.3z" transform="translate(9.696 34.152)"/><path d="m2.1 2.9c-.1-1-.1-1.9 0-2.9.2 1 .2 1.9 0 2.9z" transform="translate(10.904 35.478)"/></g><path d="m71.4 97.3 10.9-5.8v10.4z" fill="#ebebeb"/><path d="m26 134.3-23.9 12.4v-23.1l2.7-1.2z" fill="#ebebeb"/><g transform="translate(-211.869 -238.297)"><path d="m272.1 387.5c-1.4 0-2.5-1.1-2.5-2.5s1.1-2.5 2.5-2.5 2.5 1.1 2.5 2.5c0 1.3-1.1 2.5-2.5 2.5z" fill="#fff"/><path d="m272.1 386.5c.8 0 1.5-.7 1.5-1.5s-.7-1.5-1.5-1.5-1.5.7-1.5 1.5.7 1.5 1.5 1.5m0 2c-1.9 0-3.5-1.6-3.5-3.5s1.6-3.5 3.5-3.5 3.5 1.6 3.5 3.5-1.6 3.5-3.5 3.5z" fill="#5e53ff"/></g><path d="m75.7 37.6 7.6 2.3v12z" fill="#ebebeb"/><path d="m83.4 21.6v-13.1c-.6-4.7-4.6-8.2-9.3-8.2l-12.1-.1c-1.6 0-3 1.4-2.9 3v2.2c0 1.6-1.3 3-2.9 3h-23.5c-1.6 0-3-1.4-2.9-3.1v-2.2c0-1.6-1.3-3-2.9-3.1h-4.2-10.6c-2.3 0-4.6.9-6.4 2.5-1.1 2-2.2 4.9-1.7 7.1l79.3 25.8z" fill="#e8505b"/><path d="m83.4 21.6v-13.1c-.6-4.7-4.6-8.2-9.3-8.2l-12.1-.1c-1.6 0-3 1.4-2.9 3v2.2c0 1.6-1.3 3-2.9 3h-23.5c-1.6 0-3-1.4-2.9-3.1v-2.2c0-1.6-1.3-3-2.9-3.1h-4.2-10.6c-2.3 0-4.6.9-6.4 2.5-1.6 2.4-2.2 5.3-1.7 8.1l79.3 25.8z" fill="#bfbfbf"/><path d="m42.7 37.6 5.6 11.6 5.9-11.4c1.7-4.2-1.1-9-5.5-9.2h-.2c-.1 0-.1 0-.2 0-4.4.1-7.3 4.8-5.6 9zm2.8-2.4c.1-1.6 1.5-2.8 3.1-2.8 1.6.1 2.8 1.5 2.8 3.1-.1 1.6-1.4 2.8-2.9 2.8-1.7 0-3-1.4-3-3.1z" fill="#ffa025"/></g><path d="m74.2.4h.3c.3 0 .6 0 1 .1 1.2.1 2.4.5 3.5 1.2.8.5 1.5 1.1 2.2 1.8.8.8 1.4 1.8 1.8 2.8.5 1.2.7 2.5.7 3.8v4.5c0 12.6-.1 30.9-.2 53.4s-.2 49.4-.3 79.2v11.3 2.9s-.1 1.9-.4 2.9c-.3.9-.7 1.8-1.2 2.7-.6.8-1.2 1.6-2 2.2-1.6 1.3-3.5 2-5.5 2.1-.5 0-1 0-1.5 0h-1.5-3l-12.1-.1-24.7-.1-12.7-.1h-6.4c-2.2.1-4.3-.5-6.1-1.7-1.8-1.3-3.1-3.1-3.7-5.2-.3-1-.4-2.1-.4-3.2s0-2.1 0-3.2c0-4.2 0-8.5.1-12.7 0-8.4.1-16.6.1-24.7 0-16.3.1-31.9.2-46.8s.1-29.1.2-42.3c0-6.6.1-13 .1-19.2 0-.8 0-1.5 0-2.3 0-.4 0-.8.1-1.1.1-.4.1-.8.2-1.1.3-1.5 1-2.8 2-4 1.8-2.4 4.7-3.6 7.6-3.5h8.3 4 1.9c.7 0 1.3.2 1.9.5.5.4.9.9 1.1 1.5.2.7.2 1.4.2 2v.9s0 .6 0 .9c.1.6.3 1.1.7 1.6.4.4.9.8 1.4.9.3.1.6.1.9.1h.9 3.4l12.5.1h5.5 1.3c.4 0 .8-.2 1.2-.4.7-.4 1.2-1.1 1.3-1.9.1-.4.1-.8.1-1.2s0-.8 0-1.1c0-.4 0-.7.1-1.1s.2-.7.4-1c.3-.6.9-1.1 1.5-1.3s1.2-.3 1.9-.2h6.1 3.8c.7.1 1.2.1 1.2.1s-.4 0-1.3 0h-3.8-6.1c-.6-.1-1.3 0-1.9.2s-1.1.7-1.5 1.3c-.2.3-.3.6-.3 1s-.1.7-.1 1.1 0 .7 0 1.1 0 .8-.1 1.2c-.2.8-.7 1.5-1.4 2-.4.2-.8.4-1.2.4s-.9 0-1.3 0h-5.5-12.5-3.4-.8c-.3 0-.6 0-.9-.1-.5-.3-1.1-.6-1.5-1.1s-.6-1.1-.7-1.7c0-.3 0-.6 0-.9s0-.6 0-.9c.1-.6 0-1.2-.2-1.8s-.6-1.1-1.1-1.4c-.5-.4-1.1-.5-1.8-.5h-1.9-4-8.3c-2.9-.3-5.7 1-7.5 3.2-1 1.1-1.6 2.5-2 3.9-.1.4-.1.8-.2 1.1 0 .4 0 .7-.1 1.1v2.3c0 6.2 0 12.5-.1 19.2 0 13.3-.1 27.5-.1 42.4s-.1 30.5-.2 46.8c0 8.1-.1 16.4-.1 24.7 0 4.2 0 8.4-.1 12.7v3.2c0 1.1.1 2.1.4 3.1.6 2.1 1.9 3.8 3.6 5.1 1.8 1.2 3.9 1.8 6 1.7h6.4l12.7.1 24.7.1 12.1.1h3 1.5 1.5c1.9-.1 3.8-.8 5.3-2 .7-.6 1.4-1.3 1.9-2.1s.9-1.7 1.2-2.6.4-1.9.4-2.8c0-1 0-1.9 0-2.9 0-3.8 0-7.6.1-11.3.1-29.8.3-56.7.4-79.2s.2-40.8.3-53.4c0-1.6 0-3.1 0-4.5 0-1.3-.2-2.6-.7-3.8-.4-1-1-2-1.8-2.8-1.5-1.6-3.5-2.7-5.7-3-.3-.1-.6-.1-1-.1-.2-.2-.3-.2-.3-.2z" fill="#263238" transform="translate(110.737 240.379)"/><g transform="translate(253.467 355.333)"><path d="m41.7 0h-37.4c-1.3 0-2.3 1.1-2.3 2.3v15.5c0 1.3 1 2.3 2.3 2.3h29.4c1.1 1.6 2.3 3.2 3.5 4.7 0-1.6-.1-3.1-.4-4.7h4.8c1.3 0 2.3-1.1 2.3-2.3v-15.5c.1-1.2-.9-2.3-2.2-2.3z" fill="#fff"/><g fill="#ffa025"><path d="m7.3 10h6.7c.3 0 .5.2.5.5 0 .3-.2.5-.5.5h-6.7c-.3 0-.5-.2-.5-.5 0-.3.2-.5.5-.5z"/><path d="m17.1 10h7.3c.3 0 .5.2.5.5 0 .3-.2.5-.5.5h-7.3c-.3 0-.5-.2-.5-.5 0-.3.2-.5.5-.5z"/><path d="m17.1 4.6h7.3c.3 0 .5.2.5.5 0 .3-.2.5-.5.5h-7.3c-.3 0-.5-.2-.5-.5 0-.2.2-.5.5-.5z"/><path d="m27.8 10h11.1c.3 0 .5.2.5.5 0 .3-.2.5-.5.5h-11.1c-.3 0-.5-.2-.5-.5 0-.3.3-.5.5-.5z"/><path d="m27.8 4.6h11.1c.3 0 .5.2.5.5 0 .3-.2.5-.5.5h-11.1c-.3 0-.5-.2-.5-.5 0-.2.3-.5.5-.5z"/><path d="m7.3 14.5h14.3c.3 0 .5.2.5.5 0 .3-.2.5-.5.5h-14.3c-.3 0-.5-.2-.5-.5 0-.3.2-.5.5-.5z"/><path d="m24.6 14.5h14.3c.3 0 .5.2.5.5 0 .3-.2.5-.5.5h-14.3c-.3 0-.5-.2-.5-.5 0-.3.2-.5.5-.5z"/><path d="m8.7 5.3 1.7 3.4 1.8-3.3c.4-1 0-2.1-1-2.5-.2-.2-.4-.2-.7-.2h-.1c-1.1 0-1.9.9-1.9 2 .1.2.1.4.2.6zm.9-.7c0-.5.4-.9.9-.9s.9.4.9.9-.4.9-.9.9-.9-.4-.9-.9z"/></g></g><g transform="translate(75.249 397.944)"><path d="m21.6 75.9s53.5 8.9 54.2 8.5 7.6-30.3 7.6-30.3-44.2-8-45-8-10.4 7.8-10.5 8.3-6.3 21.5-6.3 21.5z" fill="#5e53ff"/><path d="m184.8 83.5c1.3.1 66.1-1.3 66.1-1.3l-4.9-14.9s-9-13.6-13.7-13.3-33-4.3-37.9-1-9.2.7-11.5 8.8-4.1 9-2.3 13.9c1 2.8 2.4 5.4 4.2 7.8z" fill="#5e53ff"/><ellipse cx="48.579" cy="81.231" fill="#1a1a1a" rx="22.1" ry="22.1"/><ellipse cx="48.579" cy="81.231" fill="#9e9da2" rx="15.3" ry="15.4"/><ellipse cx="48.579" cy="81.231" fill="#d8d9dd" rx="10.3" ry="10.3"/><ellipse cx="218.401" cy="81.231" fill="#1a1a1a" rx="22.1" ry="22.1"/><ellipse cx="218.401" cy="81.231" fill="#9e9da2" rx="15.3" ry="15.4"/><ellipse cx="218.401" cy="81.231" fill="#d8d9dd" rx="10.3" ry="10.3"/><path d="m269 60.2c-1.9-12.3-7.9-14.9-25.7-18.4-19.7-3.9-44.6-16.8-44.6-16.8s-42.6-20.9-53-23.3-36.2-1.6-57.7-1.5-34.3 6.2-45.2 14.7-30 15.1-30 15.1l-3.5.6c-3.5.6-6.1 3.7-6.1 7.3v30.5c0 3.5 2.3 6.5 5.7 7.4l12.5 3.3c1 .2 1.9-.5 2.1-1.5v-.1c1.6-13.7 14.1-23.5 27.8-21.9s23.6 14.1 21.9 27.8c-.1.5-.1 1.1-.2 1.6-.2 1.3.6 2.6 2 2.9h.5 114.8c2 0 3.7-1.6 3.7-3.7 0-.2 0-.3 0-.5-1.8-13.6 7.7-26.2 21.4-28 13.6-1.8 26.2 7.7 28 21.4.3 2 .3 4 .1 6-.3 2.3 1.4 4.5 3.8 4.7h.5 16.5c3 0 5.4-2.4 5.4-5.4v-16c-.2-1.9-.3-4.1-.7-6.2z" fill="#ffc431"/><path d="m4 41.5h13.6c.9 0 1.6.7 1.6 1.6 0 .2 0 .4-.1.6l-1.5 3.6c-1.5 3.5-4.9 5.7-8.6 5.7h-5c-1 0-1.8-.8-1.8-1.8v-8.1c0-.8.8-1.6 1.8-1.6z" fill="#cf283c"/><path d="m247.4 47.2c7.5 1.1 16.1 8.2 16.1 8.2 1.3 1.4 1.2 3.5-.2 4.7-.7.6-1.6.9-2.5.9l-14.6-.9c-3-.2-5.6-2.3-6.5-5.2-1.3-4.9-.1-8.9 7.7-7.7z" fill="#f3fcff"/><path d="m3.3 69.6c-.7 0-1.3.6-1.3 1.3 0 .2 0 .3.1.5 1 2.5 3.1 4.4 5.7 5.1l14 3.7c1.1.2 2.1-.6 2.3-1.6v-.1c.3-2.3.8-4.6 1.6-6.8.2-.6-.1-1.2-.6-1.5-.1 0-.2-.1-.4-.1z" fill="#eab054"/><path d="m243.6 75.3c-1 0-1.7.7-1.8 1.7v.3c.3 2.2.3 4.4.1 6.6-.3 2.6 1.6 5 4.2 5.3h.5 18.3c3.3 0 6-2.7 6-6v-4.7c0-1.3-1.1-2.4-2.4-2.5z" fill="#eab054"/><g fill="#feb546"><path d="m198.7 32.1c-.2-.1-24.5-13.4-40.6-20.9-15.9-7.4-33.7-6.6-34.5-6.6-2 0-44.6-1-57.7 3.1-13.2 4.1-30.3 22.8-31.1 23.6l-.2.2 4.6 21.6h.5c13.4-.8 23.7 2.8 29.7 10.3 2.7 3.4 4.5 7.4 5.1 11.7v.5l48.4 1.2h.6.6l67.4 1.3v-.6c.3-21.9 7.3-44.8 7.3-45l.1-.4zm-123 42.5c-.7-4.3-2.5-8.4-5.3-11.8-4.2-5.4-13-11.6-30.1-10.8l-4.3-20.1c2-2.1 18.2-19.3 30.3-23.1s51.5-3.2 56.7-3.1v70.1zm114.8 2.6-66.3-1.3v-70.1c3.1-.1 19-.2 33.4 6.5 14.9 6.9 36.8 18.9 40.1 20.6-.9 3.3-6.8 24.1-7.2 44.3z" opacity=".5"/><path d="m2.1 71.4c1 2.5 3.1 4.4 5.7 5.1l14 3.7c1.1.2 2.1-.6 2.3-1.6v-.1c.1-.9.2-1.8.4-2.7z" opacity=".5"/><path d="m242 82.2c0 .6-.1 1.2-.1 1.7-.3 2.6 1.6 5 4.2 5.3h.5 18.3c3.3 0 6-2.7 6-6v-1z" opacity=".5"/></g><path d="m194.7 82.2c0-1.2.1-2.5.3-3.7.2-1.3-.7-2.6-2-2.8-.1 0-.2 0-.3 0l-119.4-2.9c-1.1 0-1.9.8-2 1.9 0 .2 0 .4.1.6.6 2.2 1 4.5.9 6.9 0 1.5-.1 3.1-.4 4.6-.3 1.4.6 2.7 2 3h.5 116.8c2.1 0 3.8-1.7 3.8-3.8 0-.2 0-.3 0-.5-.2-1.2-.3-2.3-.3-3.3z" fill="#ecaa05"/><path d="m194.7 82.2c0-.1 0-.1 0 0l-122.4-.1c0 1.5-.1 3.1-.4 4.6-.3 1.4.6 2.7 2 3h.5 116.8c2.1 0 3.8-1.7 3.8-3.8 0-.2 0-.3 0-.5-.2-1.1-.3-2.2-.3-3.2z" fill="#feb546" opacity=".5"/><path d="m47.5 38.2h13.6c.7 0 1.3.6 1.3 1.3 0 .7-.6 1.3-1.3 1.3h-13.6c-.7 0-1.3-.6-1.3-1.3 0-.7.6-1.3 1.3-1.3z" fill="#eb9104"/><path d="m129.6 39.5h13.6c.7 0 1.3.6 1.3 1.3 0 .7-.6 1.3-1.3 1.3h-13.6c-.7 0-1.3-.6-1.3-1.3 0-.7.6-1.3 1.3-1.3z" fill="#eb9104"/><path d="m49 34.1 66 .6s4-.1 4.6-3.9.5-20.1.5-20.1-.5-3.3-3.6-3.3c-1.9 0-17.8-1.2-33.3.7-12.6 1.5-24.3 7.2-33.2 16.2l-4.7 4.7c0 .1-3.2 5.1 3.7 5.1z" fill="#5e53ff"/><path d="m127.4 12.9v17.1c0 2.2 1.7 4 3.9 4.1l51.8 2.1c1.2.1 2.4-.5 3-1.5.9-1.4 1-3.6-3.6-6.7-8.1-5.3-28.6-16.6-36.2-17.7-4.8-.7-11.2-1-15.1-1.1-2 0-3.7 1.6-3.8 3.6z" fill="#5e53ff"/></g><g transform="translate(283.734 348.767)"><path d="m10.8 43.1-.4.4c-.2.2-.5.2-.7 0l-7.5-8.3c-.3-.2-.2-.6 0-.8l.4-.4c.2-.2.5-.2.7 0l7.5 8.3c.2.3.2.6 0 .8z" fill="#183658"/><path d="m36.3 36.4c-1-.8-8.8 2.6-8.7 3.8s-5.4 12.7-5.4 12.7l-9.5-7.6c-.1-.3-1-3.2-1-3.8s-1.7-1.5-2.4-1.4.6 1.1.7 1.3c.2.4-.8.6-.8.6s-2.8-1.5-2.8-2.4-.6-2.8-1.2-2.4c-.3.2-.3 1.5-.2 2.2-.2-.7-.4-1.5-.7-1.6-.4-.1-.7.4-.6.7s.8 3.3 1 3.7 4.7 3.9 5.3 4.7c0 0 12.3 14.1 13.2 14.5.8.3 3.5-4.6 6.1-7.8s10.1-14.7 7-17.2z" fill="#f7a491"/><path d="m61.1 140.4s1.7 1.7 1.7 2.3.1 7.1-.5 7.7-2.7 1-2.1 1.7c.5.5 4.3.4 6.8.3.7 0 1.7-5.9 1.9-6.8.4-1.3 1.5-4.1 1.1-5-.6-.9-1.4-1.6-2.3-2.1-1-.8-1.9-1.7-2.6-2.8z" fill="#f48c7f"/><path d="m43.6 144.2 1.5 4.3c.1.7.6 2.4.6 3 0 2.3-10.5-2-8.1-3 .5-.4.9-1 .9-1.6 0-1-.3-1.9-.9-2.8z" fill="#f7a491"/><g transform="translate(22.376 64.198)"><path d="m4.8 0s-.8 7.7-.8 7.8c0 12.5-2.5 36.8-2 39.2 1.1 5.7 13.4 34.9 13.4 34.9l6.6-.8-8.7-34.9 3.2-14.1 4.5-27.8z" fill="#97545b"/><path d="m27.1 6.8 1.3 7.3 3.4 30.1 13 29.4s-1.8 4.3-4.5 4.9l-20.7-30.2-12.9-38.6.5-8.6z" fill="#b97670"/></g><path d="m24.5 45.8 9.2.9s.4-7.6.4-11.2c0-4.4-.4-10-.9-9.9-1.8.4-3.5 1.4-4.7 2.8-4 5.7-4 17.4-4 17.4z" fill="#b8b8b8"/><path d="m29.1 34.8c-.2 1.3-3.7 37.7-3.7 37.7 16.8 8.1 26 1.4 26 1.4s-.5-25.5.1-29c.4-2.3 1-17.6-.5-18-2.1-.7-4.3-1.1-6.5-1.4-2-.2-9.9-.3-11.3.1-2.2 2.7-3.6 5.9-4.1 9.2z" fill="#fff"/><path d="m67.7 138.5s-3.9 11-5.4 11.6c-.4.1-2.4.5-2.7 1.4-.1.4-.1.8 0 1.1h8.1s1-4.9 1.4-7c0 0 2.2-5.2 1.9-5.7s-3.3-1.4-3.3-1.4z" fill="#97545b"/><path d="m46.3 152.3-1.2-3.8s-2.5 1.1-3.8.9-2.5-.5-3.7-.9c-5 1.7-9.1 2.5-8.4 3.8z" fill="#97545b"/><path d="m3.1 9.5c-.1-.1-.1-.1-.2-.2.3-3.6.2-7-.9-8.2 0 0 .3-.6.5-1.1 1.3 1 1.9 3.7 1.7 8 0 .3-.1.6-.2.9-.4.4-.7.7-.9.6z" fill="#f7a491" transform="translate(20.125 51.879)"/><path d="m68 72.9c0-.1 0-.2 0-.2-.2-2.5-2.3-23.7-2.7-24.6-.3-.8-9.7-14.2-9.7-14.2l-4.6 6.3 9 12c.2.8 3.4 15 3.4 15s.7 2.6 1 4.2c-.1.4-.3.7-.4 1-.3.6-.6 1.1-1 1.6-.5.6-.8 1.3-1.1 2-.1.4-.3 1.1-.4 1.6s-.2 1-.3 1.2-.2.5-.3.7 0 .4.1.5.2.1.3 0c.3-.1.6-.5.7-.8.4-.7.7-2.1.8-2s.5 2.4.6 2.6c.2 1.2.5 2.3.8 3.4.3.5.6.4.7.1s-.3-4-.3-4 0-.5.2-.3.6 3.6.7 4.1.5.8.8.4c.3-.5-.2-4.1-.2-4.1s0-.4.2-.4.4 2.9.6 3.2c.1.2.3.3.5.2.1 0 .2-.1.2-.3 0-1.2-.1-2.5-.3-3.7 0 0 0-.3.1-.2s.5 2.5.8 2.8c.1.1.3.1.4 0 .5-.3-.2-2.7-.2-3.8s-.5-2.5-.4-3.9c-.1 0 0-.3 0-.4z" fill="#f8a492"/><path d="m63 42.4-8 5.4s-4.5-6.7-6.9-9.1c-3-3 1.1-12.2 3.1-11.7 4.3 1.2 11.8 15.4 11.8 15.4z" fill="#b8b8b8"/><path d="m43.9 17.7 1.2 7.9s-4.4 9.4-7 8.6c-2.2-.7-.8-9-.8-9s1.2-4.5.8-6.7 5.8-.8 5.8-.8z" fill="#f7a491"/><path d="m38.1 18.5c-.4-2.2 5.8-.8 5.8-.8l.1.7c-.2.4-.4.8-.7 1.1-1.4 1.5-3.3 2.3-5.4 2.4.3-1.1.3-2.3.2-3.4z" fill="#f47458"/><g transform="translate(32.447)"><path d="m12.5 6.5c.2-.1 1.4 9-.9 11.5s-6.8 3.3-8.4 1.3c-1.8-2.1-1.8-11.8 1.8-14.4s7.5 1.6 7.5 1.6z" fill="#f7a491"/><path d="m6.4.1c2 .4 3.8 1.5 5.2 3 1.3.1 3 .8 4.7 3.8 1.9 3.2 1 7.3-2 9.6-1.4 1-2.3 2.5-2.5 4.2l-.4-1.2c-.3-.9-.4-1.8-.3-2.8 0-.6.2-1.1.4-1.7.6-1.3-1.3-2.2-1.8-3.3-.4-.8-.4-2.7-1-4.1l-.8-1c-1-.8-2.3-1.1-3.6-1-1.7.4-1.5-6.3 2.1-5.5z"/><path d="m9.9 13.4c0 1.1.5 2 1.1 2s1.2-.9 1.2-2-.5-2-1.1-2-1.2.9-1.2 2z" fill="#f7a491"/></g><path d="m38.6 15.9-3.5-.2c0 .8.7 1.5 1.5 1.5 1.9.2 2-1.3 2-1.3z" fill="#fff"/></g><path d="m3.2 22.7 14.1 29.2 14.8-28.8c4.4-10.6-2.6-22.6-13.7-23.1-.2 0-.3 0-.5 0s-.3 0-.5 0c-11 .2-18.4 12-14.2 22.7zm7.2-6c.2-4 3.7-7.2 7.7-6.9 4 .2 7.2 3.7 6.9 7.7-.2 3.9-3.5 7-7.4 7-4.1-.2-7.3-3.7-7.2-7.8z" fill="#5e53ff" transform="translate(202.64 333.75)"/><g fill="#fff" opacity=".5" transform="translate(252.72 243.238)"><path d="m34.6 46.1c-3.1-.7-6.4-.1-9.2 1.5-4.2-5.8-12.4-7.1-18.2-2.9-2.6 1.9-4.4 4.7-5.1 7.9v.1c-.1.3.1.5.4.6.2 0 .4 0 .5-.2 2.8-3.9 7.8-4.8 13.1-3.7 3.1.7 5.9 2.5 7.8 5.1 2.8-1.6 6.1-2.1 9.2-1.5 5.3 1.1 9.5 4 10.5 8.6.1.3.3.5.6.4.2 0 .4-.2.4-.4v-.1c1.5-7-3-13.9-10-15.4z"/><path d="m69.3 37.1c-2.5-1.1-5.2-1.3-7.8-.5-2.4-5.6-8.8-8.2-14.4-5.8-2.5 1.1-4.5 3-5.7 5.5-.1.2 0 .5.2.6s.3 0 .5-.1c3-2.6 7.3-2.4 11.4-.5 2.5 1.1 4.4 3.2 5.5 5.7 2.6-.8 5.4-.6 7.8.5 4.2 2 7.1 5.2 7 9.3 0 .2.1.3.3.4.2 0 .4 0 .4-.2 0-.1.1-.2.1-.2 2.6-5.6.2-12.2-5.3-14.7z"/><path d="m19.8 18.7c.1 0 .2 0 .3-.1 1.4-2 3.8-2.5 6.5-2 1.6.3 3 1.2 4 2.5 1.4-.8 3-1.2 4.6-.9 2.7.5 4.8 1.9 5.4 4.2 0 .1.2.2.3.2s.2-.1.2-.2c.7-3.6-1.7-7-5.3-7.7-1.6-.3-3.2 0-4.6.9-2.2-2.9-6.3-3.4-9.2-1.2-1.3 1-2.2 2.4-2.5 4 .1.2.2.3.3.3z"/><path d="m56.9 14.6c.9.8 1.5 1.9 1.6 3.2 1.2 0 2.4.5 3.3 1.3 1.6 1.4 2.4 3.2 1.8 5 0 .1 0 .2.1.2s.1 0 .2 0c.1-.1.1-.1.2-.2 1.8-2 1.7-5.2-.4-7-.9-.8-2.1-1.3-3.3-1.3-.3-2.7-2.7-4.7-5.5-4.4-1.2.1-2.4.7-3.2 1.6-.1.1-.1.2 0 .3s.1.1.2 0c1.7-.7 3.5 0 5 1.3z"/></g><g transform="translate(0 -29)"><path d="m124.1 517.9c40.2.8 72.7 6.7 72.6 13.2s-32.8 11.2-73 10.5c-40.2-.8-72.7-6.7-72.6-13.2.1-6.6 32.8-11.3 73-10.5z" fill="url(#i)" opacity=".54"/><g fill="#668425"><path d="m34.5 615h73c1.4 0 2.5 1.1 2.5 2.5 0 1.4-1.1 2.5-2.5 2.5h-73c-1.4 0-2.5-1.1-2.5-2.5 0-1.4 1.1-2.5 2.5-2.5z"/><path d="m118.5 615h2c1.4 0 2.5 1.1 2.5 2.5 0 1.4-1.1 2.5-2.5 2.5h-2c-1.4 0-2.5-1.1-2.5-2.5 0-1.4 1.1-2.5 2.5-2.5z"/><path d="m128.5 615h2c1.4 0 2.5 1.1 2.5 2.5 0 1.4-1.1 2.5-2.5 2.5h-2c-1.4 0-2.5-1.1-2.5-2.5 0-1.4 1.1-2.5 2.5-2.5z" opacity=".5"/></g></g></g></svg>