<svg height="281.989" viewBox="0 0 305.391 281.989" width="305.391" xmlns="http://www.w3.org/2000/svg"><path d="m40.265 171.7h42.375v80.423h-42.375z" fill="#e0e0e0"/><path d="m62.771 171.7h19.869v80.423h-19.869z" fill="#ebebeb"/><path d="m49.15 179.267h3.81v9.257h-3.81z" fill="#f5f5f5"/><path d="m49.15 215.497h3.81v9.257h-3.81z" fill="#f5f5f5"/><path d="m117.632 355.767c0 .079-5.039.144-11.253.144s-11.254-.065-11.254-.144 5.037-.145 11.254-.145 11.253.065 11.253.145z" fill="#f5f5f5" transform="translate(-54.86 -163.61)"/><path d="m49.15 197.519h3.81v9.257h-3.81z" fill="#f5f5f5"/><path d="m117.632 385.4c0 .079-5.039.144-11.253.144s-11.254-.065-11.254-.144 5.037-.145 11.254-.145 11.253.061 11.253.145z" fill="#f5f5f5" transform="translate(-54.86 -174.986)"/><path d="m66.99 179.267h3.81v9.257h-3.81z" fill="#e0e0e0"/><path d="m75.256 179.267h3.81v9.257h-3.81z" fill="#e0e0e0"/><path d="m66.99 196.832h3.81v9.257h-3.81z" fill="#e0e0e0"/><path d="m75.256 196.832h3.81v9.257h-3.81z" fill="#e0e0e0"/><path d="m66.99 214.397h3.81v9.257h-3.81z" fill="#e0e0e0"/><path d="m75.256 214.397h3.81v9.257h-3.81z" fill="#e0e0e0"/><path d="m37.079 169.754h48.747v2.015h-48.747z" fill="#e0e0e0"/><path d="m138.024 322.98c0 .079-9.471.144-21.152.144s-21.154-.065-21.154-.144 9.469-.144 21.154-.144 21.152.064 21.152.144z" fill="#ebebeb" transform="translate(-55.088 -151.021)"/><path d="m12.417 201.861h37.936v50.037h-37.936z" fill="#ebebeb"/><path d="m32.566 201.861h17.788v50.037h-17.788z" fill="#e0e0e0"/><path d="m20.371 208.635h3.411v8.287h-3.411z" fill="#f5f5f5"/><path d="m20.371 241.069h3.411v8.287h-3.411z" fill="#f5f5f5"/><path d="m70.067 401.233c0 .093-4.511.169-10.074.169s-10.075-.076-10.075-.169 4.51-.168 10.075-.168 10.074.075 10.074.168z" fill="#f5f5f5" transform="translate(-37.502 -181.059)"/><path d="m20.371 224.975h3.411v8.287h-3.411z" fill="#f5f5f5"/><path d="m70.067 427.758c0 .094-4.511.169-10.074.169s-10.075-.075-10.075-.169 4.51-.168 10.075-.168 10.074.075 10.074.168z" fill="#f5f5f5" transform="translate(-37.502 -191.244)"/><path d="m36.343 208.635h3.411v8.287h-3.411z" fill="#f5f5f5"/><path d="m43.743 208.635h3.411v8.287h-3.411z" fill="#f5f5f5"/><path d="m36.343 224.36h3.411v8.287h-3.411z" fill="#f5f5f5"/><path d="m43.743 224.36h3.411v8.287h-3.411z" fill="#f5f5f5"/><path d="m36.343 240.086h3.411v8.287h-3.411z" fill="#f5f5f5"/><path d="m43.743 240.086h3.411v8.287h-3.411z" fill="#f5f5f5"/><path d="m9.565 200.119h43.64v1.804h-43.64z" fill="#e0e0e0"/><path d="m88.324 371.881c0 .093-8.479.169-18.936.169s-18.938-.076-18.938-.169 8.477-.168 18.938-.168 18.936.075 18.936.168z" fill="#ebebeb" transform="translate(-37.706 -169.788)"/><path d="m80.705 66.054s-6.037 1.819-.466 14.793a163.367 163.367 0 0 0 9.6 19.482s.943 2.988-1.54 3.279-7.825-.929-9.117 2c-1.34 3.038.727 6.124 5.14 9s13.851 9.543 14.7 10.149 1.62 2.008-.04 2.477-13.89.931-13.323 6.722 14.18 11.792 15.656 12.476 1.8 1.351 1.616 2.174-4.3.591-7.777.865-7.453 1.2-6.846 4.514 8.416 10.708 28.35 14l9.337.922 5.616-7.567c11.031-16.927 10.852-27.68 8.818-30.365s-5.4-.376-7.952 2-5.164 5.576-5.891 5.151-1-1.109-.511-2.66 5.258-15.643 1.371-19.972-12.489 4.379-13.955 5.287-1.979-.626-1.854-1.644c.128-1.037 1.588-12.5 2.444-17.7s-.024-8.807-3.169-9.871c-3.032-1.026-5.741 3.738-7.632 5.373s-3.458-1.079-3.458-1.079a163.471 163.471 0 0 0 -7.892-20.221c-5.806-12.871-11.345-9.539-11.345-9.539" fill="#ebebeb" transform="translate(-48.237 -52.292)"/><path d="m131.189 178.61c-4.227-9.47-11.457-26.426-17.739-40.952s-11.98-27.658-16.158-37.153l-4.96-11.233-1.347-3.055-.343-.8c-.076-.18-.108-.276-.108-.276s.05.087.135.264l.37.786 1.4 3.033c1.21 2.636 2.934 6.462 5.045 11.2 4.227 9.47 9.956 22.6 16.237 37.12s13.482 31.494 17.66 40.984" fill="#e0e0e0" transform="translate(-53.097 -59.753)"/><path d="m92.009 133.731a2.991 2.991 0 0 1 .641.225c.406.161.985.41 1.7.725 1.425.633 3.37 1.556 5.5 2.614l5.439 2.729 1.652.816a3.041 3.041 0 0 1 .6.324 3.052 3.052 0 0 1 -.643-.221c-.4-.162-.985-.412-1.695-.734-1.419-.647-3.352-1.6-5.48-2.654l-5.457-2.689-1.666-.806a3.051 3.051 0 0 1 -.591-.329z" fill="#e0e0e0" transform="translate(-53.663 -78.409)"/><path d="m118.315 133.569c-.074-.033 1.654-4.128 3.859-9.146s4.052-9.062 4.126-9.03-1.654 4.127-3.859 9.147-4.053 9.06-4.126 9.029z" fill="#e0e0e0" transform="translate(-63.763 -71.368)"/><path d="m132.341 173.136a3.189 3.189 0 0 1 .418-.553l1.209-1.443c1.019-1.22 2.419-2.91 3.9-4.832s2.761-3.7 3.677-5l1.087-1.537a3.178 3.178 0 0 1 .427-.546 3.188 3.188 0 0 1 -.332.608c-.23.381-.573.927-1.012 1.591-.874 1.331-2.131 3.138-3.617 5.063s-2.91 3.6-3.97 4.789c-.533.591-.969 1.066-1.281 1.384a3.158 3.158 0 0 1 -.506.476z" fill="#e0e0e0" transform="translate(-69.149 -88.198)"/><path d="m106.325 176.942a2.676 2.676 0 0 1 .639.053l1.722.252c1.453.225 3.455.557 5.664.94s4.207.747 5.65 1.025l1.707.343a2.707 2.707 0 0 1 .618.165 2.7 2.7 0 0 1 -.638-.054l-1.722-.252c-1.453-.225-3.455-.557-5.665-.94s-4.206-.747-5.65-1.024l-1.707-.344a2.759 2.759 0 0 1 -.618-.164z" fill="#e0e0e0" transform="translate(-59.16 -94.998)"/><path d="m114.569 211.1a4.4 4.4 0 0 1 .816.076l2.208.315c1.863.278 4.433.683 7.269 1.148s5.4.9 7.256 1.232l2.194.406a4.32 4.32 0 0 1 .8.189 4.468 4.468 0 0 1 -.816-.076l-2.208-.315c-1.863-.278-4.434-.683-7.27-1.148s-5.4-.9-7.255-1.231l-2.194-.407a4.43 4.43 0 0 1 -.8-.189z" fill="#e0e0e0" transform="translate(-62.326 -108.115)"/><path d="m147.153 204.982a5.032 5.032 0 0 1 .512-.713l1.467-1.885c1.237-1.593 2.937-3.8 4.744-6.288s3.392-4.781 4.525-6.449l1.343-1.976a5.024 5.024 0 0 1 .521-.707 5.181 5.181 0 0 1 -.425.768c-.29.484-.72 1.178-1.267 2.027-1.09 1.7-2.646 4.016-4.461 6.507s-3.539 4.684-4.818 6.245c-.642.779-1.167 1.4-1.541 1.829a5.137 5.137 0 0 1 -.6.642z" fill="#e0e0e0" transform="translate(-74.837 -98.849)"/><path d="m365.532 222.105c-12.479-8.719-15.31-24.9-14.816-39.447.082-2.428-.185-4.988.97-7.118s3.85-3.587 6.025-2.563c1.8.849 2.589 2.946 3.6 4.681a14.2 14.2 0 0 0 5.689 5.442c1.546.8 3.459 1.293 4.986.452 2.094-1.156 2.341-4.049 2.327-6.465q-.043-6.752-.084-13.5a22.5 22.5 0 0 1 .729-7.172 7.49 7.49 0 0 1 4.708-5.065c2.3-.643 5.138.681 5.624 3.045a22.215 22.215 0 0 1 .068 3.007 2.541 2.541 0 0 0 1.486 2.391 2.921 2.921 0 0 0 2.652-1.109 32.1 32.1 0 0 0 5.765-8.7 44.555 44.555 0 0 1 5.377-8.981c2.262-2.66 5.39-4.767 8.849-4.963s7.144 1.939 8.018 5.334-1.109 6.859-3.271 9.615a53.887 53.887 0 0 1 -11.223 10.7 4.433 4.433 0 0 0 -1.878 2.019c-.525 1.61 1 3.209 2.59 3.738 1.8.6 3.753.413 5.637.634s3.923 1.052 4.635 2.832c.989 2.468-1.075 5.056-3.107 6.75a46.168 46.168 0 0 1 -13.667 7.889 15.578 15.578 0 0 0 -5.079 2.468c-1.433 1.249-2.3 3.419-1.432 5.12s3.088 2.247 4.949 1.9 3.526-1.355 5.3-2.024c3.319-1.253 7.6-1.024 9.731 1.844a7.646 7.646 0 0 1 .813 6.758 17.619 17.619 0 0 1 -3.661 5.968 46.437 46.437 0 0 1 -19.827 13.935c-7.7 2.669-14.832 3.392-22.483.594" fill="#f5f5f5" transform="translate(-152.981 -79.288)"/><path d="m374.49 234.157a106.087 106.087 0 0 1 3.946-19.9 216.454 216.454 0 0 1 8.59-23.3q1.3-3.035 2.565-5.991c.847-1.965 1.686-3.913 2.625-5.767a108.033 108.033 0 0 1 6-10.349c2.069-3.2 4.15-6.16 6.115-8.914s3.858-5.28 5.675-7.512a85.718 85.718 0 0 1 9.352-9.884c1.191-1.077 2.143-1.881 2.795-2.418l.745-.606a1.855 1.855 0 0 1 .264-.194 1.7 1.7 0 0 1 -.235.23l-.717.639c-.633.559-1.565 1.384-2.737 2.478a90.623 90.623 0 0 0 -9.224 9.956c-1.8 2.238-3.665 4.772-5.62 7.529s-4.016 5.725-6.072 8.922a109.126 109.126 0 0 0 -5.957 10.324c-.931 1.846-1.761 3.777-2.608 5.748s-1.7 3.967-2.562 5.988a221.959 221.959 0 0 0 -8.607 23.24 107.89 107.89 0 0 0 -4.024 19.816" fill="#e0e0e0" transform="translate(-162.129 -80.555)"/><path d="m401.267 187.465a4.888 4.888 0 0 1 -.236-1.031c-.127-.667-.278-1.638-.448-2.841-.342-2.4-.7-5.741-1.081-9.422s-.785-7-1.162-9.4c-.185-1.2-.345-2.165-.464-2.831a4.827 4.827 0 0 1 -.135-1.048 4.819 4.819 0 0 1 .3 1.012c.171.657.379 1.619.6 2.813.458 2.388.914 5.718 1.295 9.4.367 3.633.7 6.919.952 9.43.121 1.133.225 2.089.307 2.855a4.823 4.823 0 0 1 .072 1.063z" fill="#e0e0e0" transform="translate(-171.054 -88.841)"/><path d="m434.519 194.586a6.731 6.731 0 0 1 -1.239.148c-.8.071-1.95.167-3.37.332-2.844.307-6.757.869-11.048 1.677s-8.142 1.721-10.908 2.455c-1.387.357-2.5.677-3.272.893a6.7 6.7 0 0 1 -1.212.3 6.625 6.625 0 0 1 1.161-.465c.757-.267 1.86-.634 3.24-1.032 2.753-.815 6.607-1.771 10.91-2.59a109.462 109.462 0 0 1 11.1-1.551c1.429-.125 2.59-.174 3.392-.19a6.563 6.563 0 0 1 1.246.023z" fill="#e0e0e0" transform="translate(-173.257 -101.764)"/><path d="m371.77 235.316a1.586 1.586 0 0 1 -.213-.379l-.53-1.123c-.457-.978-1.081-2.409-1.829-4.188-1.5-3.557-3.412-8.535-5.451-14.057s-3.906-10.514-5.327-14.1c-.7-1.742-1.27-3.174-1.7-4.239-.182-.462-.332-.843-.455-1.156a1.585 1.585 0 0 1 -.131-.416 1.627 1.627 0 0 1 .213.379l.53 1.122c.457.978 1.081 2.409 1.829 4.188 1.5 3.557 3.412 8.535 5.451 14.06s3.9 10.511 5.326 14.095c.7 1.741 1.27 3.174 1.7 4.238l.455 1.157a1.619 1.619 0 0 1 .132.419z" fill="#e0e0e0" transform="translate(-155.081 -102.189)"/><path d="m422.774 238.446a1.667 1.667 0 0 1 -.41.169l-1.2.4-4.418 1.432c-3.731 1.21-8.863 2.94-14.533 4.859s-10.825 3.6-14.582 4.738c-1.878.567-3.4 1.01-4.462 1.295l-1.221.322a1.64 1.64 0 0 1 -.435.082 1.709 1.709 0 0 1 .41-.17l1.2-.4 4.417-1.432c3.731-1.209 8.864-2.94 14.535-4.86s10.823-3.6 14.58-4.737c1.878-.567 3.4-1.011 4.462-1.3l1.222-.321a1.632 1.632 0 0 1 .435-.077z" fill="#e0e0e0" transform="translate(-164.827 -118.616)"/><path d="m301.107 454.535c0 .089-60.748.161-135.666.161-74.945 0-135.679-.072-135.679-.161s60.734-.16 135.679-.16c74.918 0 135.666.072 135.666.16z" fill="#263238" transform="translate(-29.762 -201.528)"/><path d="m113.928 255.56c9.794-9.885 9.689-24.9 6.862-37.9-.471-2.17-.651-4.515-2.038-6.243s-4.05-2.594-5.838-1.318c-1.482 1.059-1.846 3.074-2.468 4.8a12.981 12.981 0 0 1 -4.23 5.825c-1.259.975-2.9 1.729-4.41 1.222-2.073-.7-2.769-3.258-3.152-5.432q-1.067-6.079-2.136-12.157a20.594 20.594 0 0 0 -1.83-6.331 6.848 6.848 0 0 0 -5.064-3.784c-2.172-.2-4.509 1.454-4.559 3.66a20.48 20.48 0 0 0 .431 2.715 2.322 2.322 0 0 1 -.944 2.394 2.669 2.669 0 0 1 -2.567-.562 29.342 29.342 0 0 1 -6.61-6.882 40.737 40.737 0 0 0 -6.307-7.2c-2.47-2.021-5.628-3.4-8.77-3.014s-6.107 2.914-6.336 6.11 2.122 5.987 4.517 8.111a49.271 49.271 0 0 0 11.846 7.783 4.053 4.053 0 0 1 2.019 1.508c.736 1.362-.375 3.05-1.717 3.786-1.52.834-3.308.986-4.965 1.494s-3.355 1.589-3.7 3.306c-.485 2.382 1.8 4.37 3.9 5.562a42.234 42.234 0 0 0 13.583 4.856 14.233 14.233 0 0 1 4.972 1.387c1.493.888 2.626 2.7 2.126 4.37s-2.408 2.527-4.138 2.521a29.457 29.457 0 0 1 -5.1-.952c-3.19-.583-7.006.325-8.448 3.253a6.986 6.986 0 0 0 .376 6.211 16.108 16.108 0 0 0 4.27 4.768 42.456 42.456 0 0 0 20.114 9.283c7.36 1.14 13.894.62 20.317-3.149" fill="#86a445" transform="translate(-39.048 -98.206)"/><path d="m117.493 266.864a96.9 96.9 0 0 0 -6.809-17.253 197.727 197.727 0 0 0 -11.541-19.545l-3.288-4.966c-1.083-1.628-2.157-3.243-3.3-4.756a98.755 98.755 0 0 0 -7.1-8.323c-2.385-2.539-4.741-4.86-6.959-7.015s-4.334-4.116-6.335-5.826a78.394 78.394 0 0 0 -10.03-7.357c-1.247-.773-2.235-1.341-2.909-1.717l-.769-.423a1.6 1.6 0 0 0 -.269-.131 1.607 1.607 0 0 0 .248.168l.75.458c.66.4 1.634.988 2.868 1.781a82.866 82.866 0 0 1 9.927 7.442c1.982 1.719 4.077 3.692 6.287 5.85s4.55 4.491 6.922 7.029a99.927 99.927 0 0 1 7.049 8.306c1.14 1.507 2.2 3.109 3.287 4.742l3.285 4.966a202.772 202.772 0 0 1 11.547 19.489 98.6 98.6 0 0 1 6.865 17.161" fill="#263238" transform="translate(-40.675 -99.842)"/><path d="m112.925 224.291a4.481 4.481 0 0 0 .043-.965c0-.621-.018-1.519-.062-2.629-.087-2.218-.312-5.277-.572-8.65s-.441-6.428-.493-8.641c-.03-1.106-.045-2-.047-2.622a4.429 4.429 0 0 0 -.051-.965 4.4 4.4 0 0 0 -.107.96c-.046.619-.075 1.518-.082 2.629-.021 2.222.115 5.292.375 8.668.266 3.327.506 6.337.689 8.636.076 1.04.14 1.916.192 2.619a4.386 4.386 0 0 0 .115.96z" fill="#263238" transform="translate(-61.168 -103.785)"/><path d="m66.911 238.683a6.178 6.178 0 0 0 1.138-.07c.728-.067 1.781-.169 3.086-.254 2.608-.19 6.219-.326 10.21-.3s7.6.213 10.212.421c1.305.094 2.359.2 3.089.267a6.141 6.141 0 0 0 1.138.069 6.063 6.063 0 0 0 -1.12-.228c-.724-.116-1.777-.266-3.083-.4-2.609-.282-6.232-.511-10.236-.543a100.241 100.241 0 0 0 -10.235.423c-1.306.123-2.358.269-3.081.385a5.966 5.966 0 0 0 -1.118.23z" fill="#263238" transform="translate(-44.026 -118.31)"/><path d="m142.7 262.491a1.459 1.459 0 0 0 .129-.375c.079-.3.176-.659.294-1.1.25-.954.577-2.344.958-4.066.764-3.444 1.671-8.235 2.6-13.535s1.79-10.095 2.481-13.549c.341-1.68.622-3.063.83-4.09.088-.445.161-.812.22-1.114a1.468 1.468 0 0 0 .05-.4 1.486 1.486 0 0 0 -.129.376l-.294 1.1c-.251.954-.577 2.343-.958 4.066-.765 3.444-1.671 8.235-2.6 13.537s-1.79 10.093-2.481 13.549c-.342 1.679-.622 3.062-.83 4.089-.089.445-.161.814-.22 1.114a1.471 1.471 0 0 0 -.05.398z" fill="#263238" transform="translate(-73.124 -113.173)"/><path d="m78.932 277.869a1.508 1.508 0 0 0 .4.085l1.143.164 4.208.564c3.553.477 8.452 1.193 13.866 1.99s10.326 1.469 13.89 1.872c1.782.2 3.225.351 4.224.434l1.152.089a1.487 1.487 0 0 0 .4 0 1.559 1.559 0 0 0 -.4-.086l-1.143-.164-4.207-.564c-3.553-.476-8.454-1.191-13.868-1.989s-10.323-1.469-13.888-1.871c-1.782-.2-3.225-.352-4.225-.434l-1.151-.088a1.479 1.479 0 0 0 -.401-.002z" fill="#263238" transform="translate(-48.642 -133.751)"/><path d="m329.164 109.842a6.855 6.855 0 0 0 2.357-6.468 9.1 9.1 0 0 0 -3.921-5.844 3.835 3.835 0 0 0 -3.127-.816 2.932 2.932 0 0 0 -1.9 2.288 5.945 5.945 0 0 0 .357 3.067c1.169 3.376 2.919 6.428 6.229 7.772" fill="#86a445" transform="translate(-142.166 -64.159)"/><path d="m338.3 124.889a16.039 16.039 0 0 1 14.177-3.712c1.26.292 2.679.958 2.887 2.235s-.934 2.364-2.056 3.014a13.7 13.7 0 0 1 -15.156-1.219" fill="#86a445" transform="translate(-148.174 -73.44)"/><path d="m359.172 83.961a8.034 8.034 0 0 0 -6.2 1.067 14.177 14.177 0 0 0 -4.435 4.634c-2.232 3.527-3.019 8.266-3.118 12.439 4.632-.187 8.589-3.827 10.481-5.8 2.99-3.118 6.5-10.57 3.275-12.34" fill="#86a445" transform="translate(-150.965 -59.209)"/><path d="m327.018 125.317a16.581 16.581 0 0 0 1.156-1.746 29.455 29.455 0 0 0 2.609-7.437 14.757 14.757 0 0 0 -.578-7.844 9.639 9.639 0 0 0 -1.121-2.126 2.689 2.689 0 0 0 -.572-.669 20.379 20.379 0 0 1 1.382 2.907 15.481 15.481 0 0 1 .429 7.649 34.107 34.107 0 0 1 -2.449 7.382" fill="#263238" transform="translate(-143.9 -67.568)"/><path d="m326.856 120.549 2.412-3.11c2.029-2.631 4.842-6.259 8-10.225s6.068-7.515 8.179-10.081l2.494-3.045a8.588 8.588 0 0 0 .872-1.154 8.537 8.537 0 0 0 -1.01 1.036c-.628.686-1.52 1.694-2.608 2.951-2.178 2.513-5.129 6.035-8.292 10s-5.937 7.634-7.9 10.317c-.982 1.342-1.765 2.436-2.294 3.2" fill="#263238" transform="translate(-143.782 -62.744)"/><path d="m345.179 125.491a2.9 2.9 0 0 0 -.8-.246 6.718 6.718 0 0 0 -.968-.185 11.291 11.291 0 0 0 -1.3-.139 16.878 16.878 0 0 0 -3.4.129 18.039 18.039 0 0 0 -7.727 3.006 16.894 16.894 0 0 0 -2.6 2.2 11.263 11.263 0 0 0 -.864.981 6.731 6.731 0 0 0 -.589.79c-.3.45-.257.66-.231.679a26.944 26.944 0 0 1 1.917-2.216 18.779 18.779 0 0 1 2.6-2.081 19.054 19.054 0 0 1 7.55-2.937 18.816 18.816 0 0 1 3.325-.225c1.908.053 3.068.333 3.087.244z" fill="#263238" transform="translate(-143.771 -75.012)"/><path d="m236.764 301.068-83.2-.385a18.378 18.378 0 0 1 -18.038-18.7l.907-214.337a18.379 18.379 0 0 1 18.209-18.546l83.2.385a18.379 18.379 0 0 1 18.038 18.7l-.907 214.337a18.379 18.379 0 0 1 -18.209 18.546z" fill="#263238" transform="translate(-73.447 -49.098)"/><path d="m316.322 363.016a1.833 1.833 0 1 1 -1.833-1.833 1.834 1.834 0 0 1 1.833 1.833z" fill="#e0e0e0" transform="translate(-140.489 -167.218)"/><path d="m315.507 368.153a12.592 12.592 0 0 1 0-4.021 12.545 12.545 0 0 1 0 4.021z" fill="#e0e0e0" transform="translate(-141.507 -168.334)"/><path d="m242.12 60.864-16.639-.077a4.133 4.133 0 0 0 -4.058 4.205l-.013 3.018a4.133 4.133 0 0 1 -4.058 4.205l-32.433-.15a4.137 4.137 0 0 1 -4.022-4.242l.013-3.018a4.138 4.138 0 0 0 -4.023-4.242l-5.852-.027-14.563-.067a13.093 13.093 0 0 0 -13.152 13.037l-.888 210a13.093 13.093 0 0 0 13.032 13.149l85.648.4a13.093 13.093 0 0 0 13.152-13.037l.888-210a13.093 13.093 0 0 0 -13.032-13.154z" fill="#fafafa" transform="translate(-76.061 -53.401)"/><path d="m148.275 305.089c.73-.548 36.549-16.328 36.549-16.328l-41.839-20.868-.142 33.61z" fill="#ebebeb" transform="translate(-76.216 -131.909)"/><path d="m150.557 246.326 30.519-15.512-32.8-18.183-5.058 1.267-.118 29.422z" fill="#e8505b" transform="translate(-76.313 -110.993)"/><path d="m150.7 246.977 31.109-15.812-33.431-18.534-5.155 1.291-.127 29.991z" fill="#a8cff2" transform="translate(-76.313 -110.993)"/><path d="m145.072 163.923 94.081-43.942-93.215-30.458z" fill="#ebebeb" transform="translate(-77.06 -64.398)"/><path d="m143.313 379.913 42.987-22.065 64 37.654-15.245 13.365h-54.615l-37.127-22.692z" fill="#ebebeb" transform="translate(-76.394 -165.956)"/><path d="m226.1 344.951 53.165 31.52 5.926-.673v-30.311l-29.133-15.418z" fill="#ebebeb" transform="translate(-107.728 -155.441)"/><path d="m240.16 295.573 50.124 28.2v-36.865l-18.134-7.772z" fill="#ebebeb" transform="translate(-113.05 -136.164)"/><path d="m154.02 320.367 29.4 16.135 35.684-18.483-28.345-14.419z" fill="#ebebeb" transform="translate(-80.447 -145.422)"/><path d="m225.039 231.384 41.661 20.642 19.314-9.868.127-13.831-28.141-13.658z" fill="#ebebeb" transform="translate(-107.327 -111.764)"/><path d="m156.5 260.353 41.657 20.642 19.314-9.868.127-13.831-28.141-13.658z" fill="#ebebeb" transform="translate(-81.384 -122.728)"/><path d="m165.786 201.724 33.945 17 31.658-17-32.8-14.966z" fill="#ebebeb" transform="translate(-84.9 -101.2)"/><path d="m227.107 303.535a3.763 3.763 0 0 1 -.613-.309l-1.756-.988-6.739-3.9-24.962-14.635-.519-.3.538-.274 32.744-16.65-.009.754-24.452-13.033-.774-.413.778-.408 33.963-17.827.006.863-4.053-2.051-76.071-38.594-.716-.363.723-.345 40.369-19.253 11.2-5.277 2.95-1.357.761-.333a.974.974 0 0 1 .265-.094.993.993 0 0 1 -.239.149l-.735.387-2.9 1.461-11.111 5.471-40.223 19.558.007-.707 76.161 38.433 4.052 2.051.842.426-.835.438-33.985 17.785v-.82l24.412 13.1.722.387-.73.367-32.827 16.479.019-.578 24.81 14.892 6.65 4.047 1.709 1.068a3.736 3.736 0 0 1 .568.393z" fill="none" stroke="#43a7ff" transform="translate(-80.618 -94.383)"/><path d="m243.541 241.32-.15-7.324 19.085 9.245v7.6z" fill="#f5f5f5" transform="translate(-114.273 -119.079)"/><path d="m274.1 241.7 23.708-11.779v8.2l-23.708 11.179z" fill="#e0e0e0" transform="translate(-125.895 -117.536)"/><path d="m243.391 226.914 23.26-11.63 19.533 9.1-23.708 11.779z" fill="#f5f5f5" transform="translate(-114.273 -111.997)"/><path d="m247.4 239.085v3.551l1.866.843v-3.395z" fill="#fafafa" transform="translate(-115.791 -121.005)"/><path d="m252.2 241.2v3.551l1.866.843v-3.394z" fill="#fafafa" transform="translate(-117.608 -121.807)"/><path d="m147.011 165.649v-9.531l22.589 10.943v9z" fill="#e0e0e0" transform="translate(-77.794 -89.603)"/><path d="m183.363 165.234 28.065-13.944v9.71l-28.065 13.238z" fill="#f5f5f5" transform="translate(-91.552 -87.776)"/><path d="m147.011 147.734 27.535-13.768 23.123 10.767-28.069 13.944z" fill="#fafafa" transform="translate(-77.794 -81.219)"/><path d="m151.759 162.142v4.2l2.209 1v-4.019z" fill="#fafafa" transform="translate(-79.591 -91.883)"/><path d="m157.442 164.65v4.2l2.209 1v-4.019z" fill="#fafafa" transform="translate(-81.742 -92.833)"/><path d="m256.586 299.586v7.51l8.052 3.971v-7.754z" fill="#e0e0e0" transform="translate(-119.267 -143.904)"/><path d="m279.829 297.666-10.288 4.921v7.753l10.288-5.741z" fill="#e0e0e0" transform="translate(-124.17 -143.178)"/><path d="m256.586 296.579 10.2-4.938 8.143 3.745-10.288 4.921z" fill="#f5f5f5" transform="translate(-119.267 -140.897)"/><path d="m261.189 308.258v3.551l1.866.842v-3.395z" fill="#fafafa" transform="translate(-121.009 -147.186)"/><path d="m151.939 293.337v7.51l8.052 3.971v-7.753z" fill="#e0e0e0" transform="translate(-79.659 -141.539)"/><path d="m175.183 291.418-10.288 4.921v7.753l10.288-5.741z" fill="#e0e0e0" transform="translate(-84.562 -140.813)"/><path d="m151.939 290.33 10.2-4.937 8.143 3.745-10.288 4.921z" fill="#f5f5f5" transform="translate(-79.659 -138.532)"/><path d="m156.542 302.009v3.551l1.866.842v-3.395z" fill="#fafafa" transform="translate(-81.401 -144.822)"/><path d="m205.649 213.6v7.51l8.052 3.971v-7.753z" fill="#f5f5f5" transform="translate(-99.988 -111.361)"/><path d="m228.892 211.685-10.292 4.921v7.753l10.288-5.741z" fill="#e0e0e0" transform="translate(-104.891 -110.634)"/><path d="m205.649 210.6 10.2-4.938 8.143 3.745-10.292 4.918z" fill="#f5f5f5" transform="translate(-99.988 -108.354)"/><path d="m210.252 222.277v3.551l1.866.843v-3.395z" fill="#e0e0e0" transform="translate(-101.73 -114.643)"/><path d="m191.25 317.131v7.51l8.052 3.971v-7.753z" fill="#e0e0e0" transform="translate(-94.538 -150.545)"/><path d="m214.493 315.212-10.293 4.921v7.754l10.288-5.741z" fill="#ebebeb" transform="translate(-99.441 -149.818)"/><path d="m191.25 314.125 10.2-4.938 8.143 3.745-10.288 4.92z" fill="#f5f5f5" transform="translate(-94.538 -147.538)"/><path d="m195.853 325.8v3.551l1.866.843v-3.394z" fill="#fafafa" transform="translate(-96.28 -153.827)"/><path d="m244.732 346.315v9.418l16.969 9.991v-9.724z" fill="#f5f5f5" transform="translate(-114.78 -161.591)"/><path d="m284.936 350.72-12.9 6.949v9.723l12.9-7.2z" fill="#e0e0e0" transform="translate(-125.114 -163.258)"/><path d="m244.732 342.545 12.787-6.192 17.083 8.93-12.9 6.949z" fill="#fafafa" transform="translate(-114.78 -157.82)"/><path d="m255.041 360.326v4.453l2.34 1.407v-4.405z" fill="#fafafa" transform="translate(-118.682 -166.894)"/><path d="m179.059 377.5v9.418l16.969 9.991v-9.722z" fill="#e0e0e0" transform="translate(-89.924 -173.394)"/><path d="m226.607 375.432-20.246 10.968v9.723l20.306-11.252z" fill="#fafafa" transform="translate(-100.258 -172.611)"/><path d="m179.059 371.185 21.416-10.37 15.858 9.12-20.306 10.937z" fill="#f5f5f5" transform="translate(-89.924 -167.079)"/><path d="m189.368 391.51v4.453l2.34 1.407v-4.405z" fill="#fafafa" transform="translate(-93.826 -178.697)"/><path d="m282.4 320.854v37.606l10.588 5.477v-38.084z" fill="#f5f5f5" transform="translate(-129.039 -151.954)"/><path d="m290.225 315.045-7.821 3.61 10.588 5 7.124-4.012z" fill="#fafafa" transform="translate(-129.039 -149.755)"/><path d="m299.44 326.454v38.084l6.445-3.47.679-38.626z" fill="#e0e0e0" transform="translate(-135.487 -152.555)"/><path d="m210.391 271.842v37.607l10.588 5.477v-38.085z" fill="#f5f5f5" transform="translate(-101.783 -133.403)"/><path d="m218.212 266.033-7.821 3.61 10.588 5 7.124-4.012z" fill="#fafafa" transform="translate(-101.783 -131.204)"/><path d="m227.427 277.442v38.084l6.44-3.178.684-38.918z" fill="#e0e0e0" transform="translate(-108.231 -134.004)"/><path d="m218.124 386.912v9.418l16.968 9.991v-9.721z" fill="#e0e0e0" transform="translate(-104.709 -176.956)"/><path d="m258.328 391.317-12.9 6.949v9.723l12.9-7.2z" fill="#fafafa" transform="translate(-115.042 -178.623)"/><path d="m218.124 382.567 12.935-7.135 16.935 9.872-12.9 6.949z" fill="#f5f5f5" transform="translate(-104.709 -172.611)"/><path d="m228.432 400.923v4.453l2.34 1.407v-4.406z" fill="#fafafa" transform="translate(-108.611 -182.259)"/><path d="m260.023 184.461-30.905-13.929 43.035-21.9 14.12 21.056z" fill="#ebebeb" transform="translate(-108.87 -86.769)"/><path d="m308.637 212.175.213-24.113-23.955 13.638z" fill="#a8cff2" transform="translate(-129.981 -101.693)"/><g fill="#e0e0e0"><path d="m291.572 264.6a1.833 1.833 0 1 1 -1.833-1.833 1.833 1.833 0 0 1 1.833 1.833z" transform="translate(-131.121 -129.969)"/><path d="m290.757 269.737a12.547 12.547 0 0 1 0-4.021 12.58 12.58 0 0 1 0 4.021z" transform="translate(-132.139 -131.085)"/><path d="m211.107 257.373a1.833 1.833 0 1 1 -1.833-1.833 1.834 1.834 0 0 1 1.833 1.833z" transform="translate(-100.666 -127.233)"/><path d="m210.292 262.51a12.584 12.584 0 0 1 0-4.021 12.545 12.545 0 0 1 0 4.021z" transform="translate(-101.684 -128.349)"/><path d="m171.688 298.551a1.833 1.833 0 1 1 -1.833-1.833 1.834 1.834 0 0 1 1.833 1.833z" transform="translate(-85.746 -142.819)"/><path d="m170.873 303.688a12.589 12.589 0 0 1 0-4.021 12.543 12.543 0 0 1 0 4.021z" transform="translate(-86.764 -143.935)"/><path d="m174.637 266.777a1.833 1.833 0 1 1 -1.833-1.833 1.833 1.833 0 0 1 1.833 1.833z" transform="translate(-86.863 -130.792)"/><path d="m173.822 271.914a12.536 12.536 0 0 1 0-4.021 12.584 12.584 0 0 1 0 4.021z" transform="translate(-87.881 -131.909)"/><path d="m247.434 263.859a1.833 1.833 0 1 1 -1.833-1.833 1.833 1.833 0 0 1 1.833 1.833z" transform="translate(-114.415 -129.688)"/><path d="m246.619 269a12.584 12.584 0 0 1 0-4.021 12.542 12.542 0 0 1 0 4.021z" transform="translate(-115.433 -130.805)"/><path d="m294.023 285.954a1.833 1.833 0 1 1 -1.833-1.833 1.833 1.833 0 0 1 1.833 1.833z" transform="translate(-132.049 -138.051)"/><path d="m293.208 291.092a12.546 12.546 0 0 1 0-4.021 12.578 12.578 0 0 1 0 4.021z" transform="translate(-133.067 -139.168)"/><path d="m295.91 303.3a1.833 1.833 0 1 1 -1.833-1.833 1.834 1.834 0 0 1 1.833 1.833z" transform="translate(-132.763 -144.617)"/><path d="m295.1 308.441a12.541 12.541 0 0 1 0-4.021 12.583 12.583 0 0 1 0 4.021z" transform="translate(-133.781 -145.734)"/><path d="m213.2 339.3a1.833 1.833 0 1 1 -1.833-1.833 1.833 1.833 0 0 1 1.833 1.833z" transform="translate(-101.457 -158.241)"/><path d="m212.383 344.436a12.542 12.542 0 0 1 0-4.021 12.589 12.589 0 0 1 0 4.021z" transform="translate(-102.475 -159.357)"/><circle cx="170.135" cy="213.026" r="1.833"/><path d="m309.288 395.873a12.538 12.538 0 0 1 0-4.021 12.592 12.592 0 0 1 0 4.021z" transform="translate(-139.153 -178.826)"/><path d="m253.736 423a1.833 1.833 0 1 1 -1.833-1.833 1.834 1.834 0 0 1 1.833 1.833z" transform="translate(-116.801 -189.92)"/><path d="m252.921 428.134a12.585 12.585 0 0 1 0-4.021 12.543 12.543 0 0 1 0 4.021z" transform="translate(-117.819 -191.036)"/><path d="m231.031 414.082a1.833 1.833 0 1 1 -1.833-1.833 1.833 1.833 0 0 1 1.833 1.833z" transform="translate(-108.207 -186.546)"/><path d="m230.216 419.219a12.542 12.542 0 0 1 0-4.021 12.587 12.587 0 0 1 0 4.021z" transform="translate(-109.225 -187.662)"/><path d="m283.12 407.612a1.833 1.833 0 1 1 -1.833-1.833 1.833 1.833 0 0 1 1.833 1.833z" transform="translate(-127.922 -184.097)"/><path d="m282.305 412.749a12.54 12.54 0 0 1 0-4.021 12.587 12.587 0 0 1 0 4.021z" transform="translate(-128.94 -185.213)"/><circle cx="125.761" cy="188.21" r="1.833"/><path d="m237.892 355.944a12.586 12.586 0 0 1 0-4.021 12.588 12.588 0 0 1 0 4.021z" transform="translate(-112.13 -163.713)"/><path d="m246.143 322.013a1.833 1.833 0 1 1 -1.834-1.833 1.834 1.834 0 0 1 1.834 1.833z" transform="translate(-113.927 -151.699)"/><path d="m245.328 327.15a12.589 12.589 0 0 1 0-4.021 12.545 12.545 0 0 1 0 4.021z" transform="translate(-114.945 -152.815)"/><path d="m174.637 325.252a1.833 1.833 0 1 1 -1.833-1.833 1.833 1.833 0 0 1 1.833 1.833z" transform="translate(-86.863 -152.924)"/><path d="m173.822 330.389a12.54 12.54 0 0 1 0-4.021 12.588 12.588 0 0 1 0 4.021z" transform="translate(-87.881 -154.041)"/><path d="m310.856 298.551a1.833 1.833 0 1 1 -1.833-1.833 1.833 1.833 0 0 1 1.833 1.833z" transform="translate(-138.42 -142.819)"/><path d="m310.041 303.688a12.54 12.54 0 0 1 0-4.021 12.587 12.587 0 0 1 0 4.021z" transform="translate(-139.438 -143.935)"/><path d="m302.943 254.423a1.833 1.833 0 1 1 -1.833-1.833 1.833 1.833 0 0 1 1.833 1.833z" transform="translate(-135.425 -126.117)"/><path d="m302.128 259.561a12.585 12.585 0 0 1 0-4.021 12.59 12.59 0 0 1 0 4.021z" transform="translate(-136.443 -127.234)"/><circle cx="128.561" cy="104.069" r="1.833"/><path d="m242.4 220.563a12.589 12.589 0 0 1 0-4.021 12.545 12.545 0 0 1 0 4.021z" transform="translate(-113.836 -112.473)"/><path d="m186.821 271.07a1.833 1.833 0 1 1 -1.833-1.833 1.833 1.833 0 0 1 1.833 1.833z" transform="translate(-91.474 -132.417)"/><path d="m186.007 276.207a12.587 12.587 0 0 1 0-4.021 12.589 12.589 0 0 1 0 4.021z" transform="translate(-92.492 -133.533)"/><path d="m221.475 194.371a1.833 1.833 0 1 1 -1.833-1.833 1.833 1.833 0 0 1 1.833 1.833z" transform="translate(-104.59 -103.388)"/><path d="m220.66 199.509a12.583 12.583 0 0 1 0-4.021 12.539 12.539 0 0 1 0 4.021z" transform="translate(-105.608 -104.505)"/><path d="m281.631 187.9a1.833 1.833 0 1 1 -1.833-1.833 1.833 1.833 0 0 1 1.833 1.833z" transform="translate(-127.358 -100.939)"/><path d="m280.816 193.039a12.545 12.545 0 0 1 0-4.021 12.584 12.584 0 0 1 0 4.021z" transform="translate(-128.376 -102.056)"/><path d="m298.255 185.182a1.833 1.833 0 1 1 -1.833-1.833 1.833 1.833 0 0 1 1.833 1.833z" transform="translate(-133.65 -99.91)"/><path d="m297.441 190.319a12.584 12.584 0 0 1 0-4.021 12.587 12.587 0 0 1 0 4.021z" transform="translate(-134.668 -101.026)"/><path d="m291.572 163.421a1.833 1.833 0 1 1 -1.833-1.833 1.833 1.833 0 0 1 1.833 1.833z" transform="translate(-131.121 -91.674)"/><path d="m290.757 168.559a12.547 12.547 0 0 1 0-4.021 12.58 12.58 0 0 1 0 4.021z" transform="translate(-132.139 -92.791)"/><path d="m198.948 213.553a1.833 1.833 0 1 1 -1.833-1.833 1.833 1.833 0 0 1 1.833 1.833z" transform="translate(-96.064 -110.648)"/><path d="m198.133 218.69a12.54 12.54 0 0 1 0-4.021 12.589 12.589 0 0 1 0 4.021z" transform="translate(-97.082 -111.764)"/><path d="m267.508 185.642a1.833 1.833 0 1 1 -1.833-1.833 1.833 1.833 0 0 1 1.833 1.833z" transform="translate(-122.013 -100.084)"/><path d="m266.694 190.78a12.592 12.592 0 0 1 0-4.021 12.587 12.587 0 0 1 0 4.021z" transform="translate(-123.031 -101.201)"/><path d="m184.678 119.2a1.833 1.833 0 1 1 -1.833-1.833 1.834 1.834 0 0 1 1.833 1.833z" transform="translate(-90.663 -74.936)"/><path d="m183.863 124.336a12.589 12.589 0 0 1 0-4.021 12.54 12.54 0 0 1 0 4.021z" transform="translate(-91.681 -76.052)"/><path d="m218.525 135.356a1.833 1.833 0 1 1 -1.833-1.833 1.833 1.833 0 0 1 1.833 1.833z" transform="translate(-103.474 -81.051)"/><path d="m217.711 140.493a12.587 12.587 0 0 1 0-4.021 12.584 12.584 0 0 1 0 4.021z" transform="translate(-104.492 -82.167)"/><path d="m164.725 186.371a1.833 1.833 0 1 1 -1.833-1.833 1.833 1.833 0 0 1 1.833 1.833z" transform="translate(-83.111 -100.36)"/><path d="m163.91 191.508a12.537 12.537 0 0 1 0-4.021 12.592 12.592 0 0 1 0 4.021z" transform="translate(-84.129 -101.476)"/><path d="m167.675 138.305a1.833 1.833 0 1 1 -1.833-1.833 1.833 1.833 0 0 1 1.833 1.833z" transform="translate(-84.228 -82.167)"/><path d="m166.86 143.443a12.591 12.591 0 0 1 0-4.021 12.541 12.541 0 0 1 0 4.021z" transform="translate(-85.246 -83.284)"/></g><path d="m296.862 272.094 15.112-8.012-.061 14.447z" fill="#ebebeb" transform="translate(-134.511 -130.466)"/><path d="m175.685 349.4-33.117 17.092v-31.886l3.671-1.639z" fill="#ebebeb" transform="translate(-76.113 -156.538)"/><g fill="#fff" transform="translate(-123.748 -175.59)"><path d="m270.6685791 388.58010864c-1.67269897 0-3.03353882-1.36083984-3.03353882-3.0335083 0-1.67276001 1.36083985-3.03363037 3.03353882-3.03363037 1.67300415 0 3.03408814 1.36087036 3.03408814 3.03363037 0 1.67266846-1.36108399 3.0335083-3.03408814 3.0335083z"/><path d="m270.6685791 387.58010864c1.12356568 0 2.03408814-.91052246 2.03408814-2.0335083 0-1.12359619-.91052246-2.03363037-2.03408814-2.03363037-1.12301636 0-2.03353882.91003418-2.03353882 2.03363037 0 1.12298584.91052246 2.0335083 2.03353882 2.0335083m0 2c-2.22409057 0-4.03353882-1.80941772-4.03353882-4.0335083 0-2.22415161 1.80944825-4.03363037 4.03353882-4.03363037 2.22439575 0 4.03408814 1.80947876 4.03408814 4.03363037 0 2.22409058-1.80969239 4.0335083-4.03408814 4.0335083z" fill="#5e53ff"/></g><path d="m306.542 144.221 10.547 3.2v16.622z" fill="#ebebeb" transform="translate(-138.174 -85.1)"/><path d="m256.7 90.323-.065-18.137a13.084 13.084 0 0 0 -12.9-11.322l-16.635-.077a4.134 4.134 0 0 0 -4.058 4.205l-.013 3.018a4.133 4.133 0 0 1 -4.058 4.205l-32.433-.15a4.137 4.137 0 0 1 -4.022-4.242l.013-3.018a4.138 4.138 0 0 0 -4.023-4.242l-5.852-.027-14.563-.067a13.03 13.03 0 0 0 -8.871 3.429c-1.461 2.809-3.053 6.807-2.323 9.875l109.726 35.717z" fill="#e8505b" transform="translate(-77.682 -53.401)"/><path d="m256.722 90.323-.065-18.137a13.084 13.084 0 0 0 -12.9-11.322l-16.639-.077a4.134 4.134 0 0 0 -4.058 4.205l-.013 3.018a4.133 4.133 0 0 1 -4.058 4.205l-32.433-.15a4.137 4.137 0 0 1 -4.022-4.242l.013-3.018a4.138 4.138 0 0 0 -4.023-4.242l-5.852-.027-14.563-.067a13.03 13.03 0 0 0 -8.869 3.431c-2.255 2.813-4.875 5.674-4.274 11.177l111.675 35.709z" fill="#d4e5ad" transform="translate(-77.7 -53.401)"/><path d="m1520.327 611.719 7.771 16.032 8.157-15.823c2.415-5.8-1.462-12.426-7.541-12.688q-.135-.006-.271-.008c-.091 0-.181 0-.271 0-6.082.104-10.118 6.622-7.845 12.487zm3.976-3.327a4.033 4.033 0 1 1 3.979 4.241 4.106 4.106 0 0 1 -3.982-4.241z" fill="#ffa025" transform="translate(-1397.732 -552.581)"/><path d="m242.023 60.794s.15 0 .448.016a9.744 9.744 0 0 1 1.326.109 12.315 12.315 0 0 1 4.9 1.718 12.557 12.557 0 0 1 2.976 2.432 13.077 13.077 0 0 1 2.475 3.918 13.548 13.548 0 0 1 .958 5.316q-.009 2.9-.019 6.172c-.062 17.445-.151 42.684-.261 73.87s-.267 68.324-.429 109.559q-.031 7.731-.063 15.652-.008 1.979-.016 3.97a13.994 13.994 0 0 1 -.517 3.986 13.226 13.226 0 0 1 -1.684 3.677 14.159 14.159 0 0 1 -2.735 3.011 13.228 13.228 0 0 1 -7.56 2.9c-.692.045-1.373.036-2.055.031l-2.052-.009-4.12-.019-16.675-.075-34.22-.155-17.5-.08-8.84-.04a13.818 13.818 0 0 1 -8.5-2.385 13.377 13.377 0 0 1 -5.152-7.177 14.377 14.377 0 0 1 -.528-4.425q.009-2.211.019-4.415.038-8.814.075-17.507.075-17.384.147-34.229c.1-22.442.193-44.088.283-64.709s.18-40.215.263-58.553q.062-13.753.121-26.535.007-1.6.015-3.176c.009-.527.049-1.06.08-1.586.095-.52.137-1.049.274-1.558a13.373 13.373 0 0 1 2.772-5.53 13.272 13.272 0 0 1 10.682-4.682l11.413.058 5.491.028 2.69.014a4.17 4.17 0 0 1 2.566.728 4.31 4.31 0 0 1 1.588 2.1 6.984 6.984 0 0 1 .255 2.582q0 .64-.006 1.275a9.546 9.546 0 0 0 .036 1.25 4.158 4.158 0 0 0 .972 2.2 3.878 3.878 0 0 0 2 1.255 4.476 4.476 0 0 0 1.183.121l1.206.006 4.726.025 17.264.093 7.611.042c.6-.008 1.211.032 1.784-.016a3.859 3.859 0 0 0 1.609-.559 4.155 4.155 0 0 0 1.85-2.636 7.264 7.264 0 0 0 .109-1.591q0-.8.009-1.566a8.97 8.97 0 0 1 .075-1.525 4.42 4.42 0 0 1 .5-1.4 4.122 4.122 0 0 1 2.094-1.836 6.554 6.554 0 0 1 2.6-.267l8.493.055 5.223.04c1.177.011 1.779.025 1.779.025s-.6.008-1.779.008l-5.223-.008-8.492-.024a6.471 6.471 0 0 0 -2.56.267 4.018 4.018 0 0 0 -2.035 1.794 4.3 4.3 0 0 0 -.482 1.363 8.837 8.837 0 0 0 -.07 1.507q0 .771 0 1.566a7.372 7.372 0 0 1 -.108 1.617 4.282 4.282 0 0 1 -1.9 2.723 3.989 3.989 0 0 1 -1.664.582c-.6.05-1.191.01-1.8.02l-7.611-.028-17.265-.066-4.742-.008h-1.206a4.65 4.65 0 0 1 -1.229-.126 4.065 4.065 0 0 1 -2.1-1.313 4.35 4.35 0 0 1 -1.021-2.3 9.767 9.767 0 0 1 -.039-1.276q0-.635 0-1.274a6.834 6.834 0 0 0 -.246-2.513 4.111 4.111 0 0 0 -1.515-2 3.963 3.963 0 0 0 -2.444-.698l-2.69-.011-5.49-.022-11.413-.047a13.039 13.039 0 0 0 -10.5 4.608 13.133 13.133 0 0 0 -2.717 5.43c-.134.5-.175 1.019-.267 1.529-.029.518-.068 1.035-.078 1.561q-.006 1.579-.012 3.176-.049 12.767-.1 26.535c-.073 18.338-.15 37.933-.232 58.553s-.172 42.267-.264 64.709q-.07 16.83-.142 34.229-.036 8.692-.073 17.508-.009 2.2-.019 4.414a14.073 14.073 0 0 0 .516 4.334 13.051 13.051 0 0 0 5.027 7 13.482 13.482 0 0 0 8.32 2.327l8.84.041 17.5.081 34.22.16 16.675.078 4.119.02 2.052.009c.684 0 1.367.014 2.037-.03a12.916 12.916 0 0 0 7.384-2.828 13.84 13.84 0 0 0 2.673-2.94 12.91 12.91 0 0 0 1.646-3.59 13.657 13.657 0 0 0 .506-3.9q.009-1.99.018-3.97.035-7.919.069-15.652c.187-41.235.356-78.37.5-109.559s.278-56.425.364-73.87q.018-3.27.034-6.172a13.462 13.462 0 0 0 -.936-5.28 13.023 13.023 0 0 0 -2.446-3.9 13.066 13.066 0 0 0 -7.823-4.172 10.431 10.431 0 0 0 -1.323-.126c-.302-.025-.452-.039-.452-.039z" fill="#263238" transform="translate(-75.964 -53.331)"/><path d="m2417.867 1157.513-1.223 1.1a1.5 1.5 0 0 1 -2.117-.053l-21.728-23.965a1.491 1.491 0 0 1 .166-2.1l1.223-1.1a1.505 1.505 0 0 1 2.118.053l21.726 23.965a1.487 1.487 0 0 1 -.165 2.1z" fill="#183658" transform="translate(-2279.936 -992.996)"/><path d="m2496.269 1144.508c-2.905-2.368-25.361 7.52-25.075 10.96s-15.669 36.81-15.669 36.81l-27.574-22.059-.01.006c-.244-.8-2.857-9.375-2.986-10.911-.131-1.611-4.792-4.427-6.954-4.013s1.848 3.139 2.113 3.639c.719 1.362-2.055 1.872-2.055 1.872s-7.967-4.387-8.137-6.967-1.812-7.989-3.536-6.857c-.887.584-.88 4.422-.6 6.241-.512-2.067-1.237-4.4-1.94-4.631-1.291-.422-1.932 1.222-1.7 2.03s2.317 9.581 2.948 10.569c.617.964 13.482 11.364 15.338 13.623 0 0 35.661 40.906 38.2 41.976 2.228.939 10.169-13.158 17.675-22.517s29.035-42.368 19.962-49.771z" fill="#f7a491" transform="translate(-2284.681 -999.46)"/><path d="m2520.557 1142.442 26.652 2.73s1.223-21.924 1.223-32.382c0-12.687-1.078-29.029-2.6-28.677-4.288.987-10.059 3.361-13.494 8.1-11.894 16.392-11.781 50.229-11.781 50.229z" fill="#5e53ff" transform="translate(-2342.864 -969.971)"/><path d="m2535.861 1109.741c-.559 3.866-11.305 112.088-11.305 112.088l76.767.262s-2.551-72.976-.647-83.028c1.258-6.65 2.827-50.84-1.466-52.078a107.17 107.17 0 0 0 -18.72-3.993c-5.879-.614-28.717-.966-32.8.41a52.288 52.288 0 0 0 -11.829 26.339z" fill="#ffa025" transform="translate(-2345.075 -969.156)"/><path d="m2510.072 1260.45a5.854 5.854 0 0 1 -.731-.546c.862-10.3.707-20.286-2.517-23.661.079-.162.781-1.665 1.517-3.221 3.734 2.9 5.51 10.6 4.815 23.1a21.387 21.387 0 0 1 -.492 2.589c-1.083 1.189-2.064 1.96-2.592 1.739z" fill="#f7a491" transform="translate(-2336.12 -1043.114)"/><path d="m2720.237 1243.619a3.083 3.083 0 0 0 .012-.677c-.715-7.283-6.741-68.438-7.757-71.039-.916-2.347-27.944-41.134-27.944-41.134l-13.285 18.161 25.994 34.789c.582 2.211 9.961 43.494 9.961 43.494s1.923 7.524 2.783 12.032c-.391 1.086-.778 2.112-1.12 2.953a27.042 27.042 0 0 1 -2.8 4.517 31.045 31.045 0 0 0 -3.319 5.89c-.277 1.063-.77 3.269-1.053 4.6s-.664 2.883-.729 3.606a6.9 6.9 0 0 1 -.84 1.937 1.163 1.163 0 0 0 1.369 1.68c.943-.315 1.68-1.541 2.132-2.305 1.281-2.158 1.961-6.1 2.28-5.89s1.437 6.892 1.617 7.648 1.524 8.516 2.28 9.935 1.762 1.181 2.03.292c.229-.764-.838-11.622-.838-11.622s-.133-1.385.472-.952 1.592 10.29 2.012 11.731 1.379 2.207 2.191 1.048c.99-1.41-.712-11.865-.712-11.865s-.189-1.314.37-1.191 1.259 8.522 1.694 9.249a1.1 1.1 0 0 0 2.06-.223c.618-1.427-.982-10.747-.982-10.747s.079-.741.427-.5 1.459 7.365 2.181 8.024a.763.763 0 0 0 1.11.016c1.325-.907-.705-7.678-.685-11.045s-1.536-7.15-1.072-11.16c.024-.246.109-.863.161-1.252z" fill="#f8a492" transform="translate(-2416.89 -992.89)"/><path d="m2694.28 1136.031-23.086 15.553s-13.015-19.429-20-26.346c-8.75-8.666 3.188-35.21 8.826-33.709 12.611 3.361 34.26 44.502 34.26 44.502z" fill="#5e53ff" transform="translate(-2405.506 -973.585)"/><path d="m2611.073 1037.523 3.454 22.839s-12.613 27.193-20.141 24.835c-6.316-1.978-2.43-26.039-2.43-26.039s3.443-12.922 2.411-19.387 16.706-2.248 16.706-2.248z" fill="#f7a491" transform="translate(-2377.354 -946.424)"/><path d="m2597.409 1039.77c-1.032-6.466 16.706-2.247 16.706-2.247l.288 1.9a10.536 10.536 0 0 1 -1.924 3.182 23.318 23.318 0 0 1 -15.513 7.044 35.32 35.32 0 0 0 .443-9.879z" fill="#f47458" transform="translate(-2380.396 -946.424)"/><path d="m2607.147 968.442c.5-.182 4.02 26.011-2.657 33.219s-19.679 9.567-24.345 3.89c-5.159-6.279-4.9-34.432 5.478-41.846s21.524 4.737 21.524 4.737z" fill="#f7a491" transform="translate(-2370.518 -909.653)"/><path d="m2593.153 938.324a28.814 28.814 0 0 1 15.125 8.656c3.642.432 8.592 2.452 13.7 10.945 6.287 10.443 1.645 22.012-5.673 27.689s-7.213 12.234-7.213 12.234l-1.157-3.391a19.007 19.007 0 0 1 -.917-7.988 15.641 15.641 0 0 1 1.184-4.8c1.76-3.791-3.78-6.31-5.333-9.463-1.2-2.429-1.254-7.985-3.141-12l-2.25-3.064s-5.192-4.054-10.271-2.91-4.348-18.014 5.946-15.908z" transform="translate(-2374.097 -898.284)"/><path d="m2621.623 1008.691c-.053 3.2 1.4 5.812 3.234 5.844s3.372-2.534 3.426-5.73-1.395-5.812-3.236-5.844-3.37 2.533-3.424 5.73z" fill="#f7a491" transform="translate(-2392.506 -930.112)"/><path d="m2590.607 1028.229-10.062-.522a4.415 4.415 0 0 0 4.453 4.2c5.388.441 5.609-3.678 5.609-3.678z" fill="#fff" transform="translate(-2372.33 -942.267)"/></svg>