<svg xmlns="http://www.w3.org/2000/svg" width="24.671" height="24.671" viewBox="0 0 24.671 24.671">
  <g id="add_mobile_number" data-name="add mobile number" transform="translate(0)">
    <g id="Group_1007" data-name="Group 1007" transform="translate(0)">
      <g id="Group_1006" data-name="Group 1006">
        <path id="Path_2353" data-name="Path 2353" d="M17.712,12.38a12.538,12.538,0,0,0-1.45-.582,6.553,6.553,0,1,0-7.847,0A12.535,12.535,0,0,0,.063,21.14a2.928,2.928,0,0,0,2.862,3.531H14.793a.964.964,0,1,0,0-1.927H2.925a.979.979,0,0,1-.771-.367,1.007,1.007,0,0,1-.2-.844A10.648,10.648,0,0,1,12.08,13.1q.127,0,.255,0t.258-.005a10.5,10.5,0,0,1,4.291,1.019.964.964,0,0,0,.827-1.741Zm-5.141-1.206-.235,0-.233,0a4.626,4.626,0,1,1,.468,0Z" transform="translate(0)" fill="#707070"/>
      </g>
    </g>
    <g id="Group_1009" data-name="Group 1009" transform="translate(15.516 15.516)">
      <g id="Group_1008" data-name="Group 1008">
        <path id="Path_2354" data-name="Path 2354" d="M44.039,39.462h-2.65v-2.65a.964.964,0,1,0-1.927,0v2.65h-2.65a.964.964,0,1,0,0,1.927h2.65v2.65a.964.964,0,1,0,1.927,0v-2.65h2.65a.964.964,0,1,0,0-1.927Z" transform="translate(-35.848 -35.848)" fill="#707070"/>
      </g>
    </g>
  </g>
</svg>
