<svg xmlns="http://www.w3.org/2000/svg" width="23.358" height="23.359" viewBox="0 0 23.358 23.359">
  <path id="call-_189_" data-name="call-[#189]" d="M185.982,7184.889a35.909,35.909,0,0,0-3.309-1.705c-2.186-.895-2.038,1.742-3.6,2.6-1.015.555-2.445-.452-3.332-1.008a15.846,15.846,0,0,1-4.061-3.743c-.583-.759-1.874-2.186-1.713-3.249.251-1.688,2.249-1.771,1.677-3.836-.305-1.1-.852-2.194-1.261-3.259-.55-1.426-.774-2.343-2.375-2.265a3.3,3.3,0,0,0-2.632,1.477c-1.92,2.5-1.63,5.878-.339,8.622a26.447,26.447,0,0,0,8.308,9.916,17.729,17.729,0,0,0,8.032,3.32c2.018.183,4.843-.909,5.564-3.1l-.123.371.125-.371c.07-.223.109-.332.125-.381l-.125.376c.635-1.933.712-2.86-.958-3.76Zm.833,4.138Zm.249-.752C187.075,7188.236,187.077,7188.233,187.064,7188.274Z" transform="translate(-164 -7168.418)" fill="#fff" fill-rule="evenodd"/>
</svg>
