<svg xmlns="http://www.w3.org/2000/svg" width="209.148" height="147.423" viewBox="0 0 209.148 147.423">
  <g id="few_cloud" data-name="few cloud" transform="translate(0 0)">
    <ellipse id="Ellipse_15" data-name="Ellipse 15" cx="31.706" cy="31.706" rx="31.706" ry="31.706" transform="translate(11.208 59.657) rotate(-49.208)" fill="#faaf40"/>
    <g id="Group_603" data-name="Group 603" transform="translate(52.546)">
      <path id="Path_2032" data-name="Path 2032" d="M674.992,156.227a3.379,3.379,0,0,1-3.38-3.38V138.142a3.38,3.38,0,1,1,6.76,0v14.706A3.379,3.379,0,0,1,674.992,156.227Z" transform="translate(-671.612 -134.762)" fill="#faaf40"/>
    </g>
    <g id="Group_604" data-name="Group 604" transform="translate(0 52.544)">
      <path id="Path_2033" data-name="Path 2033" d="M631.135,200.084H616.428a3.38,3.38,0,1,1,0-6.76h14.707a3.38,3.38,0,0,1,0,6.76Z" transform="translate(-613.048 -193.324)" fill="#faaf40"/>
    </g>
    <g id="Group_605" data-name="Group 605" transform="translate(15.391 15.389)">
      <path id="Path_2034" data-name="Path 2034" d="M643.981,169.073a3.369,3.369,0,0,1-2.39-.991l-10.4-10.4a3.379,3.379,0,0,1,4.78-4.779l10.4,10.4a3.38,3.38,0,0,1-2.389,5.769Z" transform="translate(-630.202 -151.914)" fill="#faaf40"/>
    </g>
    <g id="Group_606" data-name="Group 606" transform="translate(15.391 79.3)">
      <path id="Path_2035" data-name="Path 2035" d="M633.581,240.3a3.38,3.38,0,0,1-2.389-5.769l10.4-10.4a3.38,3.38,0,0,1,4.779,4.78l-10.4,10.4A3.368,3.368,0,0,1,633.581,240.3Z" transform="translate(-630.202 -223.145)" fill="#faaf40"/>
    </g>
    <g id="Group_607" data-name="Group 607" transform="translate(79.301 15.389)">
      <path id="Path_2036" data-name="Path 2036" d="M704.812,169.073a3.38,3.38,0,0,1-2.39-5.769l10.4-10.4a3.379,3.379,0,0,1,4.78,4.779l-10.4,10.4A3.364,3.364,0,0,1,704.812,169.073Z" transform="translate(-701.432 -151.914)" fill="#faaf40"/>
    </g>
    <path id="Path_2037" data-name="Path 2037" d="M792.026,220.582l-.051,0c.008-.337.051-.665.051-1a48.29,48.29,0,0,0-96.579,0c0,.032.005.063.005.093a39.418,39.418,0,0,0,1.848,78.795h94.726a38.943,38.943,0,1,0,0-77.886Z" transform="translate(-621.822 -151.046)" fill="#5e53ff"/>
  </g>
</svg>
