<svg xmlns="http://www.w3.org/2000/svg" width="163.095" height="127.588" viewBox="0 0 163.095 127.588">
  <g id="scatted_cloud" data-name="scatted cloud" transform="translate(-355.732 -129.952)">
    <path id="Path_2286" data-name="Path 2286" d="M456.464,166.959l-.038,0c.005-.254.038-.5.038-.754a36.255,36.255,0,1,0-72.51,0c0,.024,0,.046,0,.07a29.594,29.594,0,0,0,1.387,59.157h71.119a29.238,29.238,0,0,0,0-58.475Z" fill="#8c84fb"/>
    <path id="Path_2287" data-name="Path 2287" d="M489.59,199.065l-.038,0c.005-.253.038-.5.038-.753a36.255,36.255,0,0,0-72.51,0c0,.023,0,.046,0,.07a29.594,29.594,0,0,0,1.387,59.156H489.59a29.238,29.238,0,0,0,0-58.475Z" fill="#5e53ff"/>
  </g>
</svg>
