<svg xmlns="http://www.w3.org/2000/svg" width="129.969" height="127.238" viewBox="0 0 129.969 127.238">
  <g id="shower_rain" data-name="shower rain" transform="translate(-388.858 -401.607)">
    <path id="Path_2329" data-name="Path 2329" d="M489.59,438.613l-.038,0c.005-.253.038-.5.038-.753a36.255,36.255,0,1,0-72.51,0c0,.023,0,.046,0,.07a29.594,29.594,0,0,0,1.387,59.156H489.59a29.238,29.238,0,0,0,0-58.475Z" fill="#5e53ff"/>
    <g id="Group_989" data-name="Group 989">
      <g id="Group_978" data-name="Group 978">
        <path id="Path_2330" data-name="Path 2330" d="M411.173,480.843a2.511,2.511,0,0,1-2.512-2.511V461.617a2.511,2.511,0,1,1,5.023,0v16.715A2.511,2.511,0,0,1,411.173,480.843Z" fill="#3ea4ff"/>
      </g>
      <g id="Group_979" data-name="Group 979">
        <path id="Path_2331" data-name="Path 2331" d="M411.173,528.845a2.512,2.512,0,0,1-2.512-2.512V492.017a2.511,2.511,0,0,1,5.023,0v34.316A2.512,2.512,0,0,1,411.173,528.845Z" fill="#3ea4ff"/>
      </g>
      <g id="Group_980" data-name="Group 980">
        <path id="Path_2332" data-name="Path 2332" d="M432.507,471.343A2.511,2.511,0,0,1,430,468.832V444.459a2.512,2.512,0,0,1,5.023,0v24.373A2.511,2.511,0,0,1,432.507,471.343Z" fill="#3ea4ff"/>
      </g>
      <g id="Group_981" data-name="Group 981">
        <path id="Path_2333" data-name="Path 2333" d="M432.507,499.342A2.511,2.511,0,0,1,430,496.831v-15.88a2.512,2.512,0,0,1,5.023,0v15.88A2.511,2.511,0,0,1,432.507,499.342Z" fill="#3ea4ff"/>
      </g>
      <g id="Group_982" data-name="Group 982">
        <path id="Path_2334" data-name="Path 2334" d="M432.507,528.845A2.512,2.512,0,0,1,430,526.333v-12.7a2.512,2.512,0,0,1,5.023,0v12.7A2.512,2.512,0,0,1,432.507,528.845Z" fill="#3ea4ff"/>
      </g>
      <g id="Group_983" data-name="Group 983">
        <path id="Path_2335" data-name="Path 2335" d="M453.842,528.845a2.511,2.511,0,0,1-2.511-2.512V492.017a2.511,2.511,0,0,1,5.022,0v34.316A2.511,2.511,0,0,1,453.842,528.845Z" fill="#3ea4ff"/>
      </g>
      <g id="Group_984" data-name="Group 984">
        <path id="Path_2336" data-name="Path 2336" d="M475.178,528.845a2.511,2.511,0,0,1-2.511-2.512v-12.7a2.511,2.511,0,1,1,5.022,0v12.7A2.511,2.511,0,0,1,475.178,528.845Z" fill="#3ea4ff"/>
      </g>
      <g id="Group_985" data-name="Group 985">
        <path id="Path_2337" data-name="Path 2337" d="M496.513,528.845A2.511,2.511,0,0,1,494,526.333V500.068a2.511,2.511,0,0,1,5.022,0v26.265A2.511,2.511,0,0,1,496.513,528.845Z" fill="#3ea4ff"/>
      </g>
      <g id="Group_986" data-name="Group 986">
        <path id="Path_2338" data-name="Path 2338" d="M496.513,485.616A2.51,2.51,0,0,1,494,483.105V471.2a2.511,2.511,0,1,1,5.022,0v11.9A2.51,2.51,0,0,1,496.513,485.616Z" fill="#3ea4ff"/>
      </g>
      <g id="Group_987" data-name="Group 987">
        <path id="Path_2339" data-name="Path 2339" d="M475.178,505.689a2.51,2.51,0,0,1-2.511-2.511V452.067a2.511,2.511,0,0,1,5.022,0v51.111A2.51,2.51,0,0,1,475.178,505.689Z" fill="#3ea4ff"/>
      </g>
      <g id="Group_988" data-name="Group 988">
        <path id="Path_2340" data-name="Path 2340" d="M453.842,480.015a2.511,2.511,0,0,1-2.511-2.512V462.445a2.511,2.511,0,1,1,5.022,0V477.5A2.511,2.511,0,0,1,453.842,480.015Z" fill="#3ea4ff"/>
      </g>
    </g>
  </g>
</svg>
