<svg id="snow" xmlns="http://www.w3.org/2000/svg" width="351.606" height="351.606" viewBox="0 0 351.606 351.606">
  <g id="Layer_x0020_1" transform="translate(43.951 43.951)">
    <g id="_247792848">
      <path id="_247794192" d="M19.823,9.138a8.285,8.285,0,0,0-16.57,0V256.273a8.285,8.285,0,0,0,16.57,0V9.138Z" transform="translate(120.315 -0.853)" fill="#5e53ff"/>
      <path id="_247794336" d="M4.381,40.07a8.273,8.273,0,0,0,13.4,9.709L40.755,18.064a8.273,8.273,0,1,0-13.4-9.709L4.381,40.07Z" transform="translate(97.797 205.317)" fill="#5e53ff"/>
      <path id="_247793544" d="M27.8,49.779A8.273,8.273,0,0,0,41.2,40.07L18.226,8.355a8.273,8.273,0,1,0-13.4,9.709Z" transform="translate(120.326 205.317)" fill="#5e53ff"/>
      <path id="_247793376" d="M17.78,4.373a8.273,8.273,0,1,0-13.4,9.709L27.357,45.8a8.273,8.273,0,0,0,13.4-9.709Z" transform="translate(97.797 4.235)" fill="#5e53ff"/>
      <path id="_247793832" d="M41.2,14.082A8.273,8.273,0,1,0,27.8,4.373L4.827,36.089a8.273,8.273,0,1,0,13.4,9.709L41.2,14.082Z" transform="translate(120.326 4.235)" fill="#5e53ff"/>
      <path id="_247793808" d="M190.45,15.7A8.285,8.285,0,0,0,178.733,3.982L3.982,178.733A8.285,8.285,0,1,0,15.7,190.45L190.45,15.7Z" transform="translate(34.637 34.636)" fill="#5e53ff"/>
      <path id="_247794048" d="M8.282,10.727a8.273,8.273,0,0,0,2.609,16.34l38.672-6.18a8.273,8.273,0,1,0-2.609-16.34L8.282,10.727Z" transform="translate(22.307 180.423)" fill="#5e53ff"/>
      <path id="_247793496" d="M2.047,50.085a8.273,8.273,0,0,0,16.34,2.609l6.18-38.672a8.273,8.273,0,0,0-16.34-2.609L2.047,50.085Z" transform="translate(54.168 180.423)" fill="#5e53ff"/>
      <path id="_247793640" d="M27.067,10.891a8.273,8.273,0,0,0-16.34-2.609L4.547,46.954a8.273,8.273,0,0,0,16.34,2.609l6.18-38.672Z" transform="translate(180.423 22.306)" fill="#5e53ff"/>
      <path id="_247793976" d="M52.694,18.387a8.273,8.273,0,0,0-2.609-16.34L11.413,8.227a8.273,8.273,0,1,0,2.609,16.34l38.672-6.18Z" transform="translate(180.423 54.167)" fill="#5e53ff"/>
      <path id="_247794000" d="M256.273,19.823a8.285,8.285,0,1,0,0-16.57H9.139a8.285,8.285,0,0,0,0,16.57Z" transform="translate(-0.853 120.315)" fill="#5e53ff"/>
      <path id="_247793688" d="M14.082,4.381a8.273,8.273,0,0,0-9.709,13.4L36.088,40.755a8.273,8.273,0,1,0,9.709-13.4L14.082,4.381Z" transform="translate(4.236 97.796)" fill="#5e53ff"/>
      <path id="_247793928" d="M4.373,27.8a8.273,8.273,0,0,0,9.709,13.4L45.8,18.226a8.273,8.273,0,1,0-9.709-13.4L4.373,27.8Z" transform="translate(4.236 120.326)" fill="#5e53ff"/>
      <path id="_247793280" d="M49.779,17.78a8.273,8.273,0,1,0-9.709-13.4L8.355,27.357a8.273,8.273,0,1,0,9.709,13.4Z" transform="translate(205.317 97.796)" fill="#5e53ff"/>
      <path id="_247793112" d="M40.07,41.2a8.273,8.273,0,0,0,9.709-13.4L18.064,4.827a8.273,8.273,0,1,0-9.709,13.4L40.07,41.2Z" transform="translate(205.317 120.326)" fill="#5e53ff"/>
      <path id="_247792752" d="M178.733,190.45a8.285,8.285,0,1,0,11.717-11.717L15.7,3.982A8.285,8.285,0,0,0,3.982,15.7Z" transform="translate(34.636 34.636)" fill="#5e53ff"/>
      <path id="_247792968" d="M18.387,8.282a8.273,8.273,0,0,0-16.34,2.609l6.18,38.672a8.273,8.273,0,0,0,16.34-2.609L18.387,8.282Z" transform="translate(54.168 22.306)" fill="#5e53ff"/>
      <path id="_247792872" d="M10.891,2.047a8.273,8.273,0,0,0-2.609,16.34l38.672,6.18a8.273,8.273,0,0,0,2.609-16.34L10.891,2.047Z" transform="translate(22.306 54.168)" fill="#5e53ff"/>
      <path id="_247793208" d="M50.085,27.067a8.273,8.273,0,0,0,2.609-16.34L14.022,4.547a8.273,8.273,0,0,0-2.609,16.34l38.672,6.18Z" transform="translate(180.423 180.423)" fill="#5e53ff"/>
      <path id="_247793040" d="M10.727,52.694a8.273,8.273,0,0,0,16.34-2.609l-6.18-38.672a8.273,8.273,0,0,0-16.34,2.609l6.18,38.672Z" transform="translate(180.423 180.423)" fill="#5e53ff"/>
    </g>
  </g>
  <rect id="Rectangle_149" data-name="Rectangle 149" width="351.606" height="351.606" fill="none"/>
</svg>
