<svg xmlns="http://www.w3.org/2000/svg" width="124.659" height="124.659" viewBox="0 0 124.659 124.659">
  <g id="sun" transform="translate(-129.425 -130.032)">
    <circle id="Ellipse_21" data-name="Ellipse 21" cx="29.888" cy="29.888" r="29.888" transform="translate(155.732 214.058) rotate(-76.542)" fill="#faaf40"/>
    <g id="Group_950" data-name="Group 950">
      <path id="Path_2290" data-name="Path 2290" d="M191.755,153.957a3.766,3.766,0,0,1-3.767-3.767V133.8a3.767,3.767,0,0,1,7.534,0V150.19A3.766,3.766,0,0,1,191.755,153.957Z" fill="#faaf40"/>
    </g>
    <g id="Group_951" data-name="Group 951">
      <path id="Path_2291" data-name="Path 2291" d="M191.755,254.691a3.766,3.766,0,0,1-3.767-3.767V234.533a3.767,3.767,0,0,1,7.534,0v16.391A3.766,3.766,0,0,1,191.755,254.691Z" fill="#faaf40"/>
    </g>
    <g id="Group_952" data-name="Group 952">
      <path id="Path_2292" data-name="Path 2292" d="M250.317,196.129h-16.39a3.767,3.767,0,1,1,0-7.534h16.39a3.767,3.767,0,0,1,0,7.534Z" fill="#faaf40"/>
    </g>
    <g id="Group_953" data-name="Group 953">
      <path id="Path_2293" data-name="Path 2293" d="M133.192,196.129h16.39a3.767,3.767,0,1,0,0-7.534h-16.39a3.767,3.767,0,1,0,0,7.534Z" fill="#faaf40"/>
    </g>
    <g id="Group_954" data-name="Group 954">
      <path id="Path_2294" data-name="Path 2294" d="M161.935,166.309a3.756,3.756,0,0,1-2.664-1.1l-11.59-11.59a3.767,3.767,0,0,1,5.327-5.327l11.59,11.59a3.768,3.768,0,0,1-2.663,6.431Z" fill="#faaf40"/>
    </g>
    <g id="Group_955" data-name="Group 955">
      <path id="Path_2295" data-name="Path 2295" d="M233.164,237.539a3.752,3.752,0,0,1-2.663-1.1l-11.589-11.59a3.766,3.766,0,0,1,5.326-5.326l11.589,11.59a3.767,3.767,0,0,1-2.663,6.43Z" fill="#faaf40"/>
    </g>
    <g id="Group_956" data-name="Group 956">
      <path id="Path_2296" data-name="Path 2296" d="M150.345,237.539a3.767,3.767,0,0,1-2.664-6.43l11.59-11.59a3.766,3.766,0,1,1,5.327,5.326l-11.59,11.59A3.755,3.755,0,0,1,150.345,237.539Z" fill="#faaf40"/>
    </g>
    <g id="Group_957" data-name="Group 957">
      <path id="Path_2297" data-name="Path 2297" d="M221.575,166.309a3.768,3.768,0,0,1-2.663-6.431l11.589-11.59a3.766,3.766,0,0,1,5.326,5.327l-11.589,11.59A3.75,3.75,0,0,1,221.575,166.309Z" fill="#faaf40"/>
    </g>
  </g>
</svg>
