<svg height="88.356" viewBox="0 0 125.35 88.356" width="125.35" xmlns="http://www.w3.org/2000/svg"><g fill="#faaf40"><ellipse cx="19.003" cy="19.003" rx="19.003" ry="19.003" transform="matrix(.6533149 -.75708628 .75708628 .6533149 6.717 35.754)"/><path d="m673.638 147.627a2.025 2.025 0 0 1 -2.026-2.026v-8.814a2.026 2.026 0 1 1 4.051 0v8.813a2.025 2.025 0 0 1 -2.025 2.027z" transform="translate(-640.12 -134.762)"/><path d="m623.888 197.375h-8.814a2.026 2.026 0 1 1 0-4.051h8.814a2.026 2.026 0 0 1 0 4.051z" transform="translate(-613.048 -161.833)"/><path d="m638.46 162.2a2.019 2.019 0 0 1 -1.433-.594l-6.232-6.232a2.025 2.025 0 1 1 2.865-2.864l6.232 6.232a2.026 2.026 0 0 1 -1.432 3.458z" transform="translate(-620.978 -142.691)"/><path d="m632.227 233.428a2.025 2.025 0 0 1 -1.432-3.458l6.232-6.232a2.026 2.026 0 0 1 2.865 2.865l-6.232 6.232a2.019 2.019 0 0 1 -1.433.593z" transform="translate(-620.978 -175.618)"/><path d="m703.458 162.2a2.026 2.026 0 0 1 -1.433-3.458l6.232-6.232a2.025 2.025 0 0 1 2.865 2.864l-6.232 6.226a2.016 2.016 0 0 1 -1.432.6z" transform="translate(-653.904 -142.691)"/></g><path d="m738.268 200.834h-.03c0-.2.03-.4.03-.6a28.942 28.942 0 0 0 -57.883 0v.056a23.625 23.625 0 0 0 1.107 47.225h56.773a23.34 23.34 0 1 0 0-46.68z" fill="#5e53ff" transform="translate(-636.259 -159.158)"/></svg>