<svg height="36.926" viewBox="0 0 57.427 36.926" width="57.427" xmlns="http://www.w3.org/2000/svg"><g transform="translate(-648.274 -661.645)"><path d="m677.983 672.559h-.011c0-.075.011-.147.011-.222a10.693 10.693 0 1 0 -21.385 0v.021a8.728 8.728 0 0 0 .409 17.447h20.975a8.623 8.623 0 0 0 0-17.246z" fill="#5e53ff"/><g fill="#3ea4ff"><path d="m780.53 701.811h-17.267a1.481 1.481 0 0 1 0-2.963h17.267a2.239 2.239 0 0 0 0-4.479h-2.194a1.481 1.481 0 1 1 0-2.963h2.194a5.2 5.2 0 0 1 0 10.4z" transform="translate(-80.031 -20.984)"/><path d="m743.885 748.291a6.641 6.641 0 0 1 -6.633-6.632 4.534 4.534 0 0 1 9.069 0v.763a1.481 1.481 0 1 1 -2.963 0v-.763a1.572 1.572 0 0 0 -3.144 0 3.67 3.67 0 0 0 7.341 0v-1.516a5.022 5.022 0 0 0 -5.017-5.017h-23.267a1.481 1.481 0 1 1 0-2.963h23.267a7.988 7.988 0 0 1 7.979 7.979v1.516a6.64 6.64 0 0 1 -6.632 6.633z" transform="translate(-49.014 -49.72)"/></g></g></svg>