<svg height="36.854" viewBox="0 0 37.39 36.854" width="37.39" xmlns="http://www.w3.org/2000/svg"><g transform="translate(-388.858 -401.607)"><path d="m417.837 412.253h-.011c0-.073.011-.144.011-.217a10.43 10.43 0 1 0 -20.86 0v.02a8.514 8.514 0 0 0 .4 17.018h20.46a8.411 8.411 0 0 0 0-16.822z" fill="#5e53ff"/><g fill="#3ea4ff" stroke="#3ea4ff" stroke-width=".5"><path d="m409.384 465.359a.722.722 0 0 1 -.723-.722v-4.809a.723.723 0 1 1 1.445 0v4.809a.722.722 0 0 1 -.722.722z" transform="translate(-14.106 -40.957)"/><path d="m409.384 500.823a.723.723 0 0 1 -.723-.723v-9.872a.723.723 0 0 1 1.445 0v9.872a.723.723 0 0 1 -.722.723z" transform="translate(-14.106 -62.612)"/><path d="m430.718 450.4a.722.722 0 0 1 -.722-.722v-7.008a.723.723 0 0 1 1.445 0v7.012a.722.722 0 0 1 -.723.718z" transform="translate(-29.303 -28.736)"/><path d="m430.718 484.453a.722.722 0 0 1 -.722-.722v-4.568a.723.723 0 0 1 1.445 0v4.568a.722.722 0 0 1 -.723.722z" transform="translate(-29.303 -54.73)"/><path d="m430.718 516.223a.723.723 0 0 1 -.718-.723v-3.652a.723.723 0 0 1 1.445 0v3.652a.723.723 0 0 1 -.727.723z" transform="translate(-29.303 -78.013)"/><path d="m452.053 500.823a.722.722 0 0 1 -.722-.723v-9.872a.722.722 0 0 1 1.445 0v9.872a.722.722 0 0 1 -.723.723z" transform="translate(-44.501 -62.612)"/><path d="m473.389 516.223a.722.722 0 0 1 -.722-.723v-3.652a.722.722 0 1 1 1.445 0v3.652a.722.722 0 0 1 -.723.723z" transform="translate(-59.699 -78.013)"/><path d="m494.724 506.558a.722.722 0 0 1 -.722-.723v-7.556a.722.722 0 1 1 1.445 0v7.556a.722.722 0 0 1 -.723.723z" transform="translate(-74.896 -68.347)"/><path d="m494.724 473.561a.722.722 0 0 1 -.722-.722v-3.424a.722.722 0 0 1 1.445 0v3.424a.722.722 0 0 1 -.723.722z" transform="translate(-74.896 -47.786)"/><path d="m473.389 465.7a.722.722 0 0 1 -.722-.722v-14.7a.722.722 0 1 1 1.445 0v14.7a.722.722 0 0 1 -.723.722z" transform="translate(-59.699 -34.155)"/><path d="m452.053 465.711a.722.722 0 0 1 -.722-.723v-4.332a.722.722 0 0 1 1.445 0v4.332a.722.722 0 0 1 -.723.723z" transform="translate(-44.501 -41.548)"/></g></g></svg>