<svg height="28.017" viewBox="0 0 28.017 28.017" width="28.017" xmlns="http://www.w3.org/2000/svg"><g fill="#fff" stroke="#fff" transform="translate(-2 -2)"><path d="m16.009 2.5a13.509 13.509 0 1 0 13.508 13.509 13.524 13.524 0 0 0 -13.508-13.509zm0 25.937a12.428 12.428 0 1 1 12.428-12.428 12.444 12.444 0 0 1 -12.428 12.428z"/><path d="m26.7 17.806a.539.539 0 0 0 -.762.762l1.416 1.416h-8.324a.542.542 0 0 0 -.54.54v7.23a.54.54 0 0 0 1.081 0v-6.69h7.786l-1.416 1.416a.538.538 0 0 0 0 .762.531.531 0 0 0 .384.157.554.554 0 0 0 .384-.157l2.34-2.34a.538.538 0 0 0 0-.762z" transform="translate(-7.35 -6.963)"/></g></svg>