<svg height="39.155" viewBox="0 0 43.823 39.155" width="43.823" xmlns="http://www.w3.org/2000/svg"><g fill="#fff"><path d="m43.814 65.669-2.568-14.157a.643.643 0 1 0 -1.266.229l1.086 5.986-8.366-9.722 5.629-1.256.833.464.362 2a.643.643 0 0 0 1.266-.229l-.416-2.3a.643.643 0 0 0 -.32-.447l-1.313-.731-4.15-2.31-3.2-1.783a.637.637 0 0 0 -.076-.036l-.025-.008c-.018-.006-.036-.012-.055-.017l-.032-.006-.05-.008h-.034-.049-.035-.048l-.035.006-.046.011-.034.01-.044.017-.034.015-.015.007-1.469.766a12.508 12.508 0 0 0 1.645-5.9 9 9 0 1 0 -17.995 0 12.547 12.547 0 0 0 1.677 5.961l-1.588-.831-.015-.007-.034-.009-.045-.017-.034-.01-.046-.011-.035-.006h-.047-.035-.047-.035l-.048.008-.034.007c-.018 0-.035.01-.052.016l-.027.009a.647.647 0 0 0 -.076.036l-8.665 4.821a.643.643 0 0 0 -.32.447l-2.441 13.458a.643.643 0 0 0 1.266.229l.732-4.037 8.325-4.4-.669 8.644-9.173 4.122.323-1.78a.643.643 0 1 0 -1.266-.229l-.541 2.978a.643.643 0 0 0 .9.7l10.371-4.657 10.367 4.655.018.007.029.011.028.01.018.005.024.006.04.008h.019.013a.631.631 0 0 0 .065 0h.012a.645.645 0 0 0 .078-.006h.008.015a.61.61 0 0 0 .06-.013h.017.005a.637.637 0 0 0 .074-.027l10.371-4.657 10.375 4.659.031.012.03.012.041.011.025.007.05.008h.018a.635.635 0 0 0 .069 0 .651.651 0 0 0 .094-.008h.022a.63.63 0 0 0 .091-.023h.006a.6.6 0 0 0 .059-.024l.016-.009c.016-.008.032-.017.047-.027s.031-.019.046-.03l.016-.01c.011-.009.021-.019.032-.029l.025-.023a.613.613 0 0 0 .054-.061l.01-.012a.642.642 0 0 0 .051-.082c0-.008.007-.016.011-.025a.663.663 0 0 0 .026-.057c0-.011.007-.022.01-.033s.011-.04.015-.061 0-.024.006-.036a.653.653 0 0 0 0-.066c0-.011 0-.021 0-.032a.6.6 0 0 0 -.004-.103zm-11.306-22.159-.659.154-.042-.545zm-1.408 7.21-2.686-2.1a.643.643 0 0 0 -.653-.083l-5.208 2.267v-.7a30.213 30.213 0 0 0 2.333-2.137l5.8-2.549zm-.594-7.72.082 1.061-3.625 1.593q.54-.669 1.007-1.331zm-17.188 0 2.666 1.39q.592.833 1.3 1.677c.412.492.823.949 1.218 1.368l-5.466-.782zm-1.865 7.421-8.153 4.304.4-2.189.01-.056 7.906-4.167zm.28-3.62-7.733 4.071.664-3.659 7.353-4.093-.185 2.386zm.221 13.81.609-7.863 7.6 11.548zm9.315-2.479-3.962-6.245 3.962.474zm0-7.066-5.155-.617a.643.643 0 0 0 -.62.983l5.775 9.1v3.106l-8.544-12.988.21-2.716 7.1 1.015c.535.5.969.865 1.237 1.086v1.027zm.684-2.133c-1.624-1.37-7.711-6.89-7.711-12.66a7.711 7.711 0 1 1 15.423 0c0 5.767-6.087 11.287-7.712 12.656zm.6 15.86v-2.859l1.923 1.992zm3.17-1.424-3.17-3.284v-7.875l5.373-2.338 3.311 2.585.631 8.15zm6.223-18.4 2.23-.522 1.582.88.875.487-4.543 1.014zm1.209 15.616-.5-6.484 8.263 9.968zm-.674-8.707-.175-2.257-.007-.1 9.217 10.707.591 3.259z" transform="translate(0 -27.272)"/><path d="m214.017 85.95a.643.643 0 0 0 0 1.286 2.689 2.689 0 1 1 -1.918.8.643.643 0 1 0 -.918-.9 3.975 3.975 0 1 0 2.836-1.189z" transform="translate(-192.064 -80.928)"/></g></svg>