<svg height="20.19" viewBox="0 0 28.266 20.19" width="28.266" xmlns="http://www.w3.org/2000/svg"><g fill="#707070"><path d="m231.571 256-5.325 4.051c-.076-.006-.151-.013-.227-.013a2.019 2.019 0 1 0 2.019 2.019c0-.076-.006-.151-.013-.227l4.051-5.325z" transform="translate(-211.886 -245.905)"/><path d="m46.133 96a14.135 14.135 0 0 0 -12.77 20.19h2.277a12.041 12.041 0 0 1 -1.609-5.552h2.006v-1.01h-2.005a12.092 12.092 0 0 1 1.375-5.136l1.735 1 .5-.877-1.735-1a12.181 12.181 0 0 1 1.653-2.057 12.516 12.516 0 0 1 2.088-1.672l1 1.722.877-.5-1-1.722a12.022 12.022 0 0 1 5.1-1.357v2.006h1.01v-2.003a12.114 12.114 0 0 1 5.1 1.357l-.991 1.722.877.5 1-1.722a12.516 12.516 0 0 1 2.088 1.672 12.242 12.242 0 0 1 1.653 2.057l-1.729 1 .5.877 1.735-1a12.092 12.092 0 0 1 1.375 5.136h-2.015v1.01h2.006a12.041 12.041 0 0 1 -1.609 5.552h2.275a14.135 14.135 0 0 0 -12.767-20.193z" transform="translate(-32 -96)"/></g></svg>