<svg height="24" viewBox="0 0 29.621 24" width="29.621" xmlns="http://www.w3.org/2000/svg"><g fill="#86a445"><path d="m7.859 17.658a.567.567 0 0 1 -.4-.165 5.907 5.907 0 0 1 0-8.457 5.864 5.864 0 0 1 4.22-1.769 5.882 5.882 0 0 1 4.234 1.779.576.576 0 0 1 -.823.806 4.738 4.738 0 0 0 -3.412-1.433 4.819 4.819 0 0 0 -3.418 8.248.578.578 0 0 1 -.4.991z" transform="translate(-1.274 -3.056)"/><path d="m7.934 7.863a.573.573 0 0 1 -.534-.363l-.79-2a.575.575 0 1 1 1.07-.423l.79 2a.577.577 0 0 1 -.535.788z" transform="translate(-.697 -4.708)"/><path d="m3.576 14.568a.577.577 0 0 1 -.216-1.111l1.957-.79a.576.576 0 0 1 .431 1.068l-1.957.79a.554.554 0 0 1 -.215.043z" transform="translate(-3.001 .404)"/><path d="m5.56 10.13a.583.583 0 0 1 -.216-.041l-1.957-.789a.577.577 0 0 1 .431-1.071l1.957.79a.578.578 0 0 1 -.215 1.111z" transform="translate(-2.984 -2.463)"/><path d="m11.56 7.872a.584.584 0 0 1 -.227-.046.576.576 0 0 1 -.3-.757l.839-1.955a.576.576 0 1 1 1.058.454l-.839 1.955a.574.574 0 0 1 -.531.349z" transform="translate(2.153 -4.671)"/><path d="m26.287 26.427h-16.126a.579.579 0 0 1 -.272-.069 5.421 5.421 0 0 1 .643-10.809c.12 0 .24 0 .359.015a7.473 7.473 0 0 1 14.945.188c0 .074 0 .148-.007.222.072 0 .148-.007.225-.007a5.232 5.232 0 0 1 .263 10.457.182.182 0 0 1 -.03.003zm-15.945-1.154h15.929a4.079 4.079 0 0 0 -.214-8.153 4.474 4.474 0 0 0 -.792.084.572.572 0 0 1 -.5-.158.582.582 0 0 1 -.168-.5 5.45 5.45 0 0 0 .089-.8 6.323 6.323 0 1 0 -12.645 0 1.339 1.339 0 0 0 .018.278.582.582 0 0 1 -.624.759 6.33 6.33 0 0 0 -.9-.087 4.3 4.3 0 0 0 -4.315 4.267 4.354 4.354 0 0 0 3.951 4.266.61.61 0 0 1 .171.044z" transform="translate(-1.667 -2.426)"/></g></svg>