<svg height="44" viewBox="0 0 44 44" width="44" xmlns="http://www.w3.org/2000/svg"><circle cx="22" cy="22" fill="#668425" r="22"/><g fill="#fff"><path d="m274.556 169.353 1.863-3.353h-3.119l-1.863 3.353z" transform="translate(-246.205 -148.26)"/><path d="m364.556 169.353 1.863-3.353h-3.119l-1.863 3.353z" transform="translate(-331.175 -148.26)"/><path d="m211.522 169.353 1.863-3.353h-3.385v3.353z" transform="translate(-188.201 -148.26)"/><path d="m451.438 169.353h3.385v-3.353h-1.523z" transform="translate(-416.145 -148.26)"/><path d="m31.677 48.515v.838h-1.677v15.09h8.383v-15.09h-1.676v-.838a2.515 2.515 0 0 0 -5.03 0zm2.515 7.545a.838.838 0 1 1 .838-.838.838.838 0 0 1 -.838.838z" transform="translate(-18.261 -34.967)"/><path d="m10.151 30.94h11.886v3.566h-11.886z"/></g></svg>