<svg height="27.021" viewBox="0 0 36.284 27.021" width="36.284" xmlns="http://www.w3.org/2000/svg"><g fill="#707070" stroke="#707070" stroke-width=".5"><path d="m31.153 74.894a8.55 8.55 0 0 0 -1.779-5.248.524.524 0 0 0 -.832.638 7.582 7.582 0 0 1 -1.342 10.574 5.25 5.25 0 0 0 -4.748-3.015h-2.317a1.721 1.721 0 0 1 -1.719-1.719 6.427 6.427 0 0 0 -2.444-5.045 7.582 7.582 0 0 1 11.18-2.189.524.524 0 1 0 .641-.83 8.631 8.631 0 0 0 -12.693 2.44 6.2 6.2 0 0 0 -2.777-.759 6.315 6.315 0 0 0 -6.51 5.805 6.315 6.315 0 0 0 -5.813 6.343 6.367 6.367 0 0 0 6.386 6.266h12.14a.524.524 0 1 0 0-1.048h-12.14a5.316 5.316 0 0 1 -5.338-5.225 5.265 5.265 0 0 1 5.265-5.3.524.524 0 0 0 .524-.524 5.265 5.265 0 0 1 5.446-5.262 5.343 5.343 0 0 1 5.084 5.335 2.77 2.77 0 0 0 2.767 2.767h2.319a4.158 4.158 0 0 1 4.176 4.053 4.107 4.107 0 0 1 -4.107 4.162h-1.9a.524.524 0 1 0 0 1.048h1.9a5.155 5.155 0 0 0 5.155-5.224 5.037 5.037 0 0 0 -.12-1.029 8.607 8.607 0 0 0 3.594-7.007z" transform="translate(.25 -61.384)"/><path d="m315.292 3.364a.524.524 0 0 0 .524-.524v-2.316a.524.524 0 1 0 -1.048 0v2.316a.524.524 0 0 0 .524.524z" transform="translate(-292.519 .25)"/><path d="m187.7 55.907a.524.524 0 0 0 .741-.741l-1.641-1.638a.524.524 0 0 0 -.741.741z" transform="translate(-172.666 -49.395)"/><path d="m421.092 287.816a.524.524 0 1 0 -.741.741l1.637 1.637a.524.524 0 0 0 .741-.741z" transform="translate(-390.58 -267.308)"/><path d="m466.707 182.233h-2.316a.524.524 0 1 0 0 1.048h2.316a.524.524 0 1 0 0-1.048z" transform="translate(-431.197 -169.247)"/><path d="m421.988 53.529-1.637 1.637a.524.524 0 0 0 .741.741l1.637-1.637a.524.524 0 0 0 -.741-.741z" transform="translate(-390.58 -49.395)"/></g></svg>