<svg height="39.28" viewBox="0 0 52.825 39.28" width="52.825" xmlns="http://www.w3.org/2000/svg"><g fill="#fff" stroke="#fff" stroke-width=".5"><path d="m45.553 78.883a12.5 12.5 0 0 0 -2.6-7.674.766.766 0 0 0 -1.216.933 11.086 11.086 0 0 1 -1.96 15.458 7.677 7.677 0 0 0 -6.943-4.4h-3.391a2.516 2.516 0 0 1 -2.513-2.513 9.4 9.4 0 0 0 -3.575-7.387 11.087 11.087 0 0 1 16.345-3.2.766.766 0 1 0 .937-1.213 12.621 12.621 0 0 0 -18.567 3.569 9.073 9.073 0 0 0 -4.06-1.11 9.234 9.234 0 0 0 -9.519 8.489 9.234 9.234 0 0 0 -8.491 9.276 9.31 9.31 0 0 0 9.338 9.162h17.752a.766.766 0 0 0 0-1.533h-17.751a7.773 7.773 0 0 1 -7.8-7.64 7.7 7.7 0 0 1 7.7-7.757.766.766 0 0 0 .761-.767 7.7 7.7 0 0 1 7.963-7.694 7.814 7.814 0 0 1 7.435 7.8 4.051 4.051 0 0 0 4.046 4.046h3.392a6.08 6.08 0 0 1 6.106 5.926 6.006 6.006 0 0 1 -6.005 6.086h-2.78a.766.766 0 1 0 0 1.533h2.78a7.539 7.539 0 0 0 7.538-7.639 7.365 7.365 0 0 0 -.175-1.505 12.586 12.586 0 0 0 5.255-10.246z" transform="translate(.25 -59.243)"/><path d="m315.534 4.919a.766.766 0 0 0 .766-.766v-3.387a.766.766 0 1 0 -1.533 0v3.387a.766.766 0 0 0 .767.766z" transform="translate(-282.35 .25)"/><path d="m188.528 57.078a.767.767 0 0 0 1.084-1.084l-2.394-2.394a.767.767 0 1 0 -1.084 1.084z" transform="translate(-166.66 -47.67)"/><path d="m421.506 287.887a.767.767 0 0 0 -1.084 1.084l2.394 2.394a.767.767 0 0 0 1.084-1.084z" transform="translate(-377.004 -258.015)"/><path d="m468.02 182.233h-3.386a.766.766 0 1 0 0 1.533h3.386a.766.766 0 1 0 0-1.533z" transform="translate(-416.211 -163.359)"/><path d="m422.816 53.6-2.394 2.394a.767.767 0 0 0 1.084 1.084l2.394-2.394a.767.767 0 0 0 -1.084-1.084z" transform="translate(-377.004 -47.671)"/></g></svg>